<svg xmlns="http://www.w3.org/2000/svg" xmlns:xlink="http://www.w3.org/1999/xlink" viewBox="0 0 595.37 622.64"><defs><style>.cls-1,.cls-41{fill:none;}.cls-2,.cls-23{opacity:0.49;}.cls-2{fill:url(#linear-gradient);}.cls-3{fill:url(#linear-gradient-2);}.cls-4{fill:url(#linear-gradient-3);}.cls-5{fill:url(#linear-gradient-4);}.cls-6{fill:url(#linear-gradient-5);}.cls-7{fill:url(#linear-gradient-6);}.cls-8{fill:url(#linear-gradient-7);}.cls-9{fill:url(#linear-gradient-8);}.cls-10{fill:url(#linear-gradient-9);}.cls-11{fill:url(#linear-gradient-10);}.cls-12{fill:url(#linear-gradient-11);}.cls-13{fill:url(#linear-gradient-12);}.cls-14{fill:url(#linear-gradient-13);}.cls-15{fill:url(#linear-gradient-14);}.cls-16{fill:url(#linear-gradient-15);}.cls-17{fill:url(#linear-gradient-16);}.cls-18{fill:url(#linear-gradient-17);}.cls-19{fill:url(#linear-gradient-18);}.cls-20{fill:url(#linear-gradient-19);}.cls-21{fill:url(#linear-gradient-20);}.cls-22{fill:url(#linear-gradient-21);}.cls-23{fill:url(#linear-gradient-22);}.cls-24,.cls-26,.cls-28{opacity:0.45;}.cls-24{fill:url(#linear-gradient-23);}.cls-25{fill:url(#linear-gradient-24);}.cls-26{fill:url(#linear-gradient-25);}.cls-27{fill:url(#linear-gradient-26);}.cls-28{fill:url(#linear-gradient-27);}.cls-29{fill:url(#linear-gradient-28);}.cls-30{clip-path:url(#clip-path);}.cls-31{fill:url(#linear-gradient-29);}.cls-32{fill:url(#linear-gradient-30);}.cls-33{fill:url(#linear-gradient-31);}.cls-34{fill:url(#linear-gradient-32);}.cls-35{fill:url(#linear-gradient-33);}.cls-36{fill:#fff;}.cls-37{fill:url(#linear-gradient-34);}.cls-38{fill:url(#linear-gradient-35);}.cls-39{fill:url(#linear-gradient-36);}.cls-40{fill:url(#linear-gradient-37);}.cls-41{stroke:#eb6057;stroke-linecap:round;stroke-linejoin:round;}.cls-42{fill:url(#linear-gradient-38);}.cls-43{fill:url(#linear-gradient-39);}.cls-44{fill:#223762;}.cls-45{fill:url(#linear-gradient-40);}.cls-46{fill:#d6e3fa;}.cls-47{fill:url(#linear-gradient-41);}.cls-48{fill:url(#linear-gradient-42);}.cls-49{fill:url(#linear-gradient-43);}.cls-50{fill:url(#linear-gradient-44);}.cls-51{fill:url(#linear-gradient-45);}</style><linearGradient id="linear-gradient" x1="-2387.78" y1="372.49" x2="-2321.23" y2="309.98" gradientTransform="matrix(-0.13, -0.97, 1.09, -0.14, -1538.67, -2740.83)" gradientUnits="userSpaceOnUse"><stop offset="0" stop-color="#eaf1fc"/><stop offset="1" stop-color="#c0d4f4"/></linearGradient><linearGradient id="linear-gradient-2" x1="-451.52" y1="275.5" x2="-339.56" y2="275.5" gradientTransform="matrix(1.16, -0.05, 0.08, 1, 606.05, 93.98)" gradientUnits="userSpaceOnUse"><stop offset="0" stop-color="#223762"/><stop offset="1" stop-color="#041b48"/></linearGradient><linearGradient id="linear-gradient-3" x1="96.96" y1="278.84" x2="8.44" y2="460.85" gradientTransform="matrix(1, -0.14, 0.1, 1.26, 78.07, -333.05)" xlink:href="#linear-gradient-2"/><linearGradient id="linear-gradient-4" x1="-76.05" y1="384.4" x2="-18.93" y2="384.4" gradientTransform="translate(73.53 -167.97) rotate(-6.21)" gradientUnits="userSpaceOnUse"><stop offset="0" stop-color="#3769a5"/><stop offset="1" stop-color="#08448b"/></linearGradient><linearGradient id="linear-gradient-5" x1="34.31" y1="207.73" x2="-69.93" y2="680.95" gradientTransform="translate(73.53 -167.97) rotate(-6.21)" gradientUnits="userSpaceOnUse"><stop offset="0" stop-color="#4c93f4"/><stop offset="1" stop-color="#0b63da"/></linearGradient><linearGradient id="linear-gradient-6" x1="92.39" y1="716.38" x2="-27.57" y2="923.2" gradientTransform="translate(-24.6 -539.5) rotate(-13.9)" xlink:href="#linear-gradient-4"/><linearGradient id="linear-gradient-7" x1="11.94" y1="336.28" x2="2.56" y2="361.1" gradientTransform="translate(117.66 -168.75)" xlink:href="#linear-gradient-5"/><linearGradient id="linear-gradient-8" x1="24.96" y1="-2029.83" x2="15.58" y2="-2005.01" gradientTransform="translate(-1833 254.16) rotate(90)" xlink:href="#linear-gradient-5"/><linearGradient id="linear-gradient-9" x1="77.77" y1="-2009.88" x2="68.39" y2="-1985.06" gradientTransform="translate(-1782.33 273.98) rotate(90)" xlink:href="#linear-gradient-5"/><linearGradient id="linear-gradient-10" x1="318.94" y1="-935.2" x2="309.56" y2="-910.38" gradientTransform="translate(-692.94 71.12) rotate(90)" xlink:href="#linear-gradient-5"/><linearGradient id="linear-gradient-11" x1="-103.34" y1="358.01" x2="-41.7" y2="593.79" gradientTransform="translate(72.16 -130.13) rotate(-5.2)" xlink:href="#linear-gradient-4"/><linearGradient id="linear-gradient-12" x1="-75.73" y1="350.79" x2="-14.09" y2="586.58" gradientTransform="translate(72.16 -130.13) rotate(-5.2)" xlink:href="#linear-gradient-5"/><linearGradient id="linear-gradient-13" x1="-84.4" y1="317.63" x2="3.95" y2="655.6" gradientTransform="translate(72.16 -130.13) rotate(-5.2)" xlink:href="#linear-gradient-5"/><linearGradient id="linear-gradient-14" x1="-724.37" y1="1467.49" x2="-731.6" y2="1486.64" gradientTransform="translate(818.12 -1129.4)" xlink:href="#linear-gradient-5"/><linearGradient id="linear-gradient-15" x1="-695.96" y1="1485.14" x2="-703.19" y2="1504.28" gradientTransform="translate(823.08 -1144.76)" xlink:href="#linear-gradient-5"/><linearGradient id="linear-gradient-16" x1="285.77" y1="-707.05" x2="278.54" y2="-687.91" gradientTransform="translate(-559.11 133.01) rotate(90)" xlink:href="#linear-gradient-5"/><linearGradient id="linear-gradient-17" x1="294.95" y1="-691.72" x2="287.72" y2="-672.58" gradientTransform="translate(-539.5 141.18) rotate(90)" xlink:href="#linear-gradient-5"/><linearGradient id="linear-gradient-18" x1="326.51" y1="-691.67" x2="319.27" y2="-672.52" gradientTransform="translate(-502.35 143.53) rotate(90)" xlink:href="#linear-gradient-5"/><linearGradient id="linear-gradient-19" x1="105.09" y1="389.29" x2="97.86" y2="408.44" gradientTransform="translate(48.1 -17.22)" xlink:href="#linear-gradient-5"/><linearGradient id="linear-gradient-20" x1="217.77" y1="297" x2="235.71" y2="289.36" gradientUnits="userSpaceOnUse"><stop offset="0" stop-color="#ffc063"/><stop offset="0.95" stop-color="#e44d0b"/></linearGradient><linearGradient id="linear-gradient-21" x1="242.99" y1="258.8" x2="225.88" y2="342.69" xlink:href="#linear-gradient-20"/><linearGradient id="linear-gradient-22" x1="-3142.17" y1="-2032.38" x2="-3075.62" y2="-2094.9" gradientTransform="matrix(-0.94, 0.25, -0.26, -0.97, -3724.92, -33.12)" xlink:href="#linear-gradient"/><linearGradient id="linear-gradient-23" x1="472.54" y1="319.03" x2="490.22" y2="255.93" gradientTransform="matrix(1, 0, 0, 1, 0, 0)" xlink:href="#linear-gradient-2"/><linearGradient id="linear-gradient-24" x1="468.84" y1="314.23" x2="486.78" y2="250.23" gradientTransform="matrix(1, 0, 0, 1, 0, 0)" xlink:href="#linear-gradient-5"/><linearGradient id="linear-gradient-25" x1="621.75" y1="148.41" x2="639.44" y2="85.31" gradientTransform="translate(-64.29 232.36)" xlink:href="#linear-gradient-2"/><linearGradient id="linear-gradient-26" x1="618.06" y1="143.61" x2="635.99" y2="79.62" gradientTransform="translate(-44.11 155.27) rotate(7.13)" xlink:href="#linear-gradient-5"/><linearGradient id="linear-gradient-27" x1="69.93" y1="713.44" x2="88.17" y2="648.36" gradientTransform="translate(414.07 -479.08)" xlink:href="#linear-gradient-2"/><linearGradient id="linear-gradient-28" x1="68.79" y1="660.24" x2="68.79" y2="772.3" gradientTransform="translate(210.98 -424.1) rotate(-17.49)" xlink:href="#linear-gradient-20"/><clipPath id="clip-path"><path class="cls-1" d="M128.59,465.33C129.38,338.09,26.4,260.54,6.59,200-23.17,109.09,53.83-10.85,266.82,66.5S534,183.92,552.17,323.23C566.71,434.71,483.37,532.88,416.86,572,312.8,633.18,127.8,592.57,128.59,465.33Z"/></clipPath><linearGradient id="linear-gradient-29" x1="218.9" y1="215.33" x2="286.04" y2="252.09" gradientTransform="translate(-70.09 112.59) rotate(4.58)" gradientUnits="userSpaceOnUse"><stop offset="0" stop-color="#f8a695"/><stop offset="1" stop-color="#e56045"/></linearGradient><linearGradient id="linear-gradient-30" x1="160.93" y1="294.9" x2="212.9" y2="301.42" gradientTransform="translate(-37.89 62) rotate(2.56)" xlink:href="#linear-gradient-29"/><linearGradient id="linear-gradient-31" x1="176.73" y1="316.17" x2="193.98" y2="317.81" gradientTransform="translate(-37.89 62) rotate(2.56)" xlink:href="#linear-gradient-20"/><linearGradient id="linear-gradient-32" x1="517.14" y1="207.76" x2="293.76" y2="673.41" gradientTransform="translate(-37.89 62) rotate(2.56)" gradientUnits="userSpaceOnUse"><stop offset="0" stop-color="#ffc063"/><stop offset="1" stop-color="#e58f0f"/></linearGradient><linearGradient id="linear-gradient-33" x1="222.4" y1="416.99" x2="300.83" y2="430.95" gradientTransform="translate(-37.89 62) rotate(2.56)" xlink:href="#linear-gradient-20"/><linearGradient id="linear-gradient-34" x1="308.91" y1="438.02" x2="308.91" y2="412.35" gradientTransform="matrix(1, -0.05, 0.05, 1, 28.5, -95.84)" xlink:href="#linear-gradient-29"/><linearGradient id="linear-gradient-35" x1="273.11" y1="388.96" x2="268.53" y2="399.94" gradientTransform="translate(34.48 -186.64) rotate(-4.37)" xlink:href="#linear-gradient-2"/><linearGradient id="linear-gradient-36" x1="300.02" y1="396.95" x2="331.84" y2="283.41" gradientTransform="matrix(1, -0.05, 0.05, 1, 28.5, -95.84)" xlink:href="#linear-gradient-29"/><linearGradient id="linear-gradient-37" x1="301.63" y1="384.46" x2="312.86" y2="497.71" gradientTransform="translate(34.48 -186.64) rotate(-4.37)" xlink:href="#linear-gradient-2"/><linearGradient id="linear-gradient-38" x1="365.54" y1="255.05" x2="324.01" y2="218.43" gradientTransform="translate(23.15 -31.77) rotate(-1.38)" xlink:href="#linear-gradient-2"/><linearGradient id="linear-gradient-39" x1="96.67" y1="626.35" x2="102.34" y2="625.19" gradientTransform="translate(94.43 -194.99) rotate(-7.76)" xlink:href="#linear-gradient-29"/><linearGradient id="linear-gradient-40" x1="-55.99" y1="389.15" x2="-15" y2="242.85" gradientTransform="matrix(1, 0.04, 0.24, 1.01, 204.45, 72.85)" xlink:href="#linear-gradient-5"/><linearGradient id="linear-gradient-41" x1="130.99" y1="362.81" x2="128.76" y2="367.37" gradientTransform="matrix(1, 0.04, 0.1, 1.01, 83.28, 67.43)" xlink:href="#linear-gradient-5"/><linearGradient id="linear-gradient-42" x1="133.34" y1="363.96" x2="131.11" y2="368.52" gradientTransform="matrix(1, 0.04, 0.1, 1.01, 83.28, 67.43)" xlink:href="#linear-gradient-5"/><linearGradient id="linear-gradient-43" x1="328.68" y1="338.85" x2="355.46" y2="345.09" gradientTransform="translate(-37.89 62) rotate(2.56)" xlink:href="#linear-gradient-29"/><linearGradient id="linear-gradient-44" x1="392.06" y1="289.74" x2="498.28" y2="390.75" gradientTransform="translate(-37.89 62) rotate(2.56)" xlink:href="#linear-gradient-20"/><linearGradient id="linear-gradient-45" x1="521.38" y1="209.79" x2="298" y2="675.44" xlink:href="#linear-gradient-32"/></defs><title>Asset 9</title><g id="Layer_2" data-name="Layer 2"><g id="Layer_1-2" data-name="Layer 1"><g id="_9" data-name="9"><path class="cls-2" d="M128.59,465.33C129.38,338.09,26.4,260.54,6.59,200-23.17,109.09,53.83-10.85,266.82,66.5S534,183.92,552.17,323.23C566.71,434.71,483.37,532.88,416.86,572,312.8,633.18,127.8,592.57,128.59,465.33Z"/><path class="cls-3" d="M106.83,382.06c-5.21,64.45,21,124.31,53.59,164.07,38.56-34,66.08-89.51,71.29-154s-13.05-123.64-45.65-163.4C147.49,262.79,112,317.61,106.83,382.06Z"/><path class="cls-4" d="M131,135.15c-1.52,55.27,10.4,104.81,30.16,137,21.5-31.07,36.13-79.88,37.65-135.15S188.44,32.21,168.68,0C147.18,31.07,132.55,79.88,131,135.15Z"/><path class="cls-5" d="M90,228C86.82,177.88,80.36,87.52,76.55,34.86c-29.94,46.59-45,114.62-37,188.3C47.49,296,76.24,358.54,114.81,397.71,105.58,347.81,92.9,273.61,90,228Z"/><path class="cls-6" d="M156.1,210.48C148,135.75,117.93,71.74,77.82,32.82c-.44.66-.84,1.37-1.27,2C80.36,87.52,86.82,177.88,90,228c2.9,45.62,15.58,119.82,24.81,169.72,1,1,2,2.11,3,3.11C148.65,354.18,164.22,285.21,156.1,210.48Z"/><path class="cls-7" d="M162,261.48c-8.56,46.27-2,90,15,120.58,26.85-22.42,48.58-61,57.14-107.24s2-90-15-120.58C192.32,176.66,170.59,215.21,162,261.48Z"/><ellipse class="cls-8" cx="102.77" cy="238.52" rx="6.64" ry="11.85" transform="translate(-25.19 12.51) rotate(-6.21)"/><ellipse class="cls-9" cx="119.44" cy="249.89" rx="11.85" ry="6.64" transform="translate(-150.15 186.43) rotate(-51.21)"/><ellipse class="cls-10" cx="124.1" cy="312.67" rx="16.26" ry="9.12" transform="translate(-197.35 213.51) rotate(-51.21)"/><ellipse class="cls-11" cx="123.9" cy="345.35" rx="16.26" ry="9.12" transform="translate(-242.95 351.57) rotate(-71.24)"/><path class="cls-12" d="M27.05,391.23C52.26,441.1,89.91,477.76,128,494.34,72.6,442.16,3.85,248.82,3.85,248.82-5.37,289.32,1.84,341.37,27.05,391.23Z"/><path class="cls-13" d="M104.8,351.92C79.58,302.06,41.93,265.4,3.85,248.82c0,0,68.75,193.35,124.15,245.52C137.22,453.84,130,401.78,104.8,351.92Z"/><path class="cls-14" d="M104.8,351.92C79.58,302.06,41.93,265.4,3.85,248.82c0,0,68.75,193.35,124.15,245.52C137.22,453.84,130,401.78,104.8,351.92Z"/><ellipse class="cls-15" cx="73.06" cy="392.85" rx="5.13" ry="9.14" transform="translate(-175.52 80) rotate(-27.93)"/><ellipse class="cls-16" cx="106.43" cy="395.13" rx="5.13" ry="9.14" transform="translate(-172.7 95.89) rotate(-27.93)"/><ellipse class="cls-17" cx="88.25" cy="396.23" rx="9.14" ry="5.13" transform="translate(-316.43 364.32) rotate(-72.93)"/><ellipse class="cls-18" cx="92.53" cy="413.59" rx="9.14" ry="5.13" transform="matrix(0.29, -0.96, 0.96, 0.29, -330, 380.67)"/><ellipse class="cls-19" cx="109.52" cy="439.89" rx="12.54" ry="7.03" transform="translate(-343.14 415.49) rotate(-72.93)"/><ellipse class="cls-20" cx="118.7" cy="463.36" rx="7.03" ry="12.54" transform="translate(-23.78 6.75) rotate(-2.96)"/><path class="cls-21" d="M259.27,269.42h-38a5.21,5.21,0,0,0-5.21,5.21v23.42a5.21,5.21,0,0,0,5.21,5.21h8.3L237.37,314h2.88L251,303.26h8.3a5.21,5.21,0,0,0,5.21-5.21V274.63A5.21,5.21,0,0,0,259.27,269.42Z"/><path class="cls-22" d="M256.39,269.42h-38a5.21,5.21,0,0,0-5.21,5.21v23.42a5.21,5.21,0,0,0,5.21,5.21h8.3L237.37,314l10.71-10.71h8.3a5.21,5.21,0,0,0,5.21-5.21V274.63A5.21,5.21,0,0,0,256.39,269.42Z"/><path class="cls-23" d="M448.45,109.5c3.06,10.53-8.19,19.14-17.32,13.32-21.57-13.76-64.84-36.11-98.25-44.55C286,66.42,325,9.71,362.12,6.27S443,91.42,448.29,109Z"/><rect class="cls-24" x="452.38" y="266.86" width="54.32" height="54.32"/><path class="cls-25" d="M436.15,313l8.28-2.42c8.28-2.42,8-19.6,8-19.6V262.22H506.7V291s.33,17.19-8,19.6L490.47,313Z"/><rect class="cls-26" x="537.31" y="328.6" width="54.32" height="54.32" transform="translate(48.53 -67.32) rotate(7.13)"/><path class="cls-27" d="M519.06,369.18l8.52-1.37c8.52-1.37,10.32-18.46,10.32-18.46l3.57-28.51,53.9,6.74-3.57,28.51s-1.8,17.09-10.32,18.46L573,375.93Z"/><rect class="cls-28" x="463.22" y="180.56" width="56.03" height="56.03" transform="translate(-39.97 157.27) rotate(-17.49)"/><path class="cls-29" d="M454.42,240.67l7.4-4.94c7.4-4.94,1.75-21.75,1.75-21.75l-8.91-28.27,53.43-16.84L517,197.14s5.65,16.8-1.75,21.75l-7.4,4.94Z"/><g class="cls-30"><path class="cls-31" d="M174.7,378s2-20.7-5.16-30.35-16.58-12.7-18.81-15-26.4-26.25-31.49-28.17c-1.92-.72-9-2.33-5.36,8.21s22.68,20.14,21.74,23.35-10.58,5.89-14.07,15.62-5,19.62,5.49,22.53,32.25,19.61,32.25,19.61Z"/><path class="cls-32" d="M159.48,386.05s-10.61-7.47-10.61-11.69S153,349.78,153,349.78s-5.94,17-18,24.92c-1,.62-1.86,1.16-2.75,1.66,10.68,5.23,25.4,16.4,26.6,17.31l.35-4.44Z"/><path class="cls-33" d="M297.27,331.93l-52.14,97.69-67.22-67.06s-17.81,12.11-20.77,23.2l-3,11.09s77.82,76.69,88.69,83.32S315.76,443,315.76,443Z"/><path class="cls-34" d="M390,317.67s50,17.72,62,30.18-7.1,133.94-7.06,157.72,3.33,109.28,3.33,109.28-77.88,15.27-118.48,3.05c-41.18-12.39-50.29-16-50.29-16s-1.37-153-.69-180.34,8.74-78.13,18.42-89.68,39.18-13,39.18-13Z"/><path class="cls-35" d="M319,451.64s32.16,37.88,56.58,55.69,25.53,48,17.91,65.2-74.37,14.75-93,20.22A95.25,95.25,0,0,0,279.68,602c1.29.49,11.85,4.37,50.14,15.9,40.59,12.22,118.48-3.05,118.48-3.05S445,529.35,445,505.57c0-7.61,1.94-25.23,4.21-46.07Z"/><path class="cls-36" d="M336.24,318.05l-11.72,2.3s-1.13,8.41,8.57,16.88,22.13,7.17,35.18.83S390,317.67,390,317.67l-8.34-1.89Z"/><path class="cls-37" d="M329,286.68,336.45,319s5,6,18.59,5.86,26.63-9,26.63-9l-.39-33.06Z"/><path class="cls-38" d="M308.16,169.82s-1.9,46.45-2.05,62.68,20,19.9,20,19.9L354.75,221,340.61,172.8Z"/><path class="cls-39" d="M309.64,225.19c1.39,18.25,3.23,40.29,11.34,59.41s46.23,22.4,58.57,6.77,16.2-40.25,16.2-40.25,13.13.6,16.27-9.27,2-24.48-4.14-27.22S396,218.75,396,218.75s1.77-19-12-30.52-65-6.28-67.75-3.78S308.25,206.94,309.64,225.19Z"/><path class="cls-40" d="M387.95,242.92s4.32-23.58,2.29-34.14-8.06-17.44-20.3-21.4-47,1-54.82-1.1-12.4-5.7-10.06-21.17,24-37.63,55.6-35.15,46.84,16.31,57.39,25.6,4.79,35.43,2.49,57.33-9.2,51.8-15.43,62.37-20.54,8.55-20.54,8.55l10.89-34.74s5.29,2.2,11.16-5.06,8-19.9,4.35-25.9-13.31-4.32-16.23,3.55S387.95,242.92,387.95,242.92Z"/><path class="cls-41" d="M326.9,231.4s-3.56,23.44-2.67,29.22,15.83,1.18,15.83,1.18"/><path class="cls-42" d="M386.38,166.54c-16.56-6-65.76,10-73,3.25-2.23-2.08-4-7-5.49-12.91a27.64,27.64,0,0,0-2.87,8.33c-2.34,15.48,2.22,19.11,10.06,21.17s42.58-2.86,54.82,1.1,18.27,10.84,20.3,21.4S387.95,243,387.95,243,402.94,172.51,386.38,166.54Z"/><path class="cls-41" d="M397.49,228.34s4.35-3.09,5.93.87,1.51,7.81-3.49,10.39c-2.79,1.44-4.6-1.38-4.6-1.38"/><path class="cls-43" d="M316.07,413.63s-6.31-11.23-12.49-16-18.79-4.07-18.79-4.07l5.1,17Z"/><path class="cls-44" d="M302.09,465,290.63,344.63a7.19,7.19,0,0,0-6.61-6.34l-84.76-3.8a5.26,5.26,0,0,0-3.57,1.14v0L191,338.78l3,3.92,11.22,117.95a7.19,7.19,0,0,0,6.61,6.34l81.49,3.65,1.88,2.42,4.58-3.11.17-.12.17-.12v0A5.22,5.22,0,0,0,302.09,465Z"/><path class="cls-45" d="M291.6,474.22l-84.76-3.8a7.19,7.19,0,0,1-6.61-6.34L188.78,343.72a5.13,5.13,0,0,1,5.46-5.8l84.76,3.8a7.19,7.19,0,0,1,6.61,6.34l11.45,120.36A5.13,5.13,0,0,1,291.6,474.22Z"/><path class="cls-46" d="M240.6,382a12.53,12.53,0,0,1-.74-3.72,8.78,8.78,0,0,0-4.21.41c-5.1,1.85-7.48,8.06-5.32,13.88s8,9,13.14,7.19c4-1.45,6.3-5.62,6.05-10.16A11.51,11.51,0,0,1,240.6,382Z"/><polygon class="cls-47" points="259.92 453.31 229.13 451.93 228.55 445.82 259.34 447.2 259.92 453.31"/><polygon class="cls-48" points="264.31 458.13 225.62 456.39 225.29 452.98 263.99 454.71 264.31 458.13"/><path class="cls-49" d="M324.94,420.34S305.5,405.17,297.13,401s-32.4-4.25-37.23-1.67-4.47,17.5-2.79,22.73,20.18,13.73,31.24,17,33.34,9.89,33.34,9.89Z"/><path class="cls-50" d="M400.69,387.06s-5.49,36.82-11.12,40.23-37.13.68-37.13.68l46.27,46.14s32.1-.76,33.23-1.53,4.22-51.33,4.22-51.33Z"/><path class="cls-51" d="M406.41,355.18s10.68-15.17,27.45-13.69c3.15.28,5.91.65,8.3,1.07a17.87,17.87,0,0,1,14.77,16.59c1.77,30.61,5.87,110,1.91,126.89q-.23,1-.51,1.95c-6.09,20.69-30.68,29.47-49.13,18.3l-93.7-56.75s-5.84-19.47,1.23-27.52l7.08-8s74.56,36.93,81.6,38.17-12.78-51-8.83-70.1S406.41,355.18,406.41,355.18Z"/></g></g></g></g></svg>