<svg xmlns="http://www.w3.org/2000/svg" xmlns:xlink="http://www.w3.org/1999/xlink" viewBox="0 0 609.46 600.34"><defs><style>.a,.b{fill:none;}.a{clip-rule:evenodd;}.c{clip-path:url(#a);}.d{clip-path:url(#b);}.e{fill:#7579c0;}.f{clip-path:url(#c);}.g{clip-path:url(#e);}.h{clip-path:url(#g);}.i{clip-path:url(#i);}.j{clip-path:url(#k);}.k{fill:#39475b;}.l{clip-path:url(#m);}.m{fill:#5ab700;}.n{clip-path:url(#o);}.o{fill:#b4ee73;}.p{clip-path:url(#q);}.q{fill:#ffbf51;}.r{clip-path:url(#s);}.s{clip-path:url(#u);}.t{clip-path:url(#w);}.u{clip-path:url(#y);}.v{clip-path:url(#aa);}.w{clip-path:url(#ac);}.x{clip-path:url(#ae);}.y{fill:#fdd786;}.z{clip-path:url(#ag);}.aa{clip-path:url(#ai);}.ab{clip-path:url(#ak);}.ac{clip-path:url(#am);}.ad{clip-path:url(#ao);}.ae{isolation:isolate;}.af{clip-path:url(#aq);}.ag{clip-path:url(#ar);}.ah{fill:#4b4e85;}.ai{clip-path:url(#at);}.aj{fill:#0d2155;}.ak{clip-path:url(#av);}.al{fill:#00ffc3;}.am{clip-path:url(#ax);}.an{clip-path:url(#az);}.ao{fill:#17378a;}.ap{clip-path:url(#bb);}.aq{clip-path:url(#bd);}.ar{fill:#fff;}.as{clip-path:url(#bf);}.at{clip-path:url(#bh);}.au{fill:#2b6eff;}.av{clip-path:url(#bj);}.aw{clip-path:url(#bl);}.ax{clip-path:url(#bn);}.ay{clip-path:url(#bo);}.az{clip-path:url(#bq);}.ba{clip-path:url(#bs);}.bb{clip-path:url(#bu);}.bc{clip-path:url(#bw);}.bd{fill:#121633;}.be{clip-path:url(#by);}.bf{clip-path:url(#ca);}.bg{clip-path:url(#cc);}.bh{clip-path:url(#cd);}.bi{clip-path:url(#cf);}.bj{clip-path:url(#ch);}.bk{clip-path:url(#cj);}.bl{clip-path:url(#cl);}.bm{clip-path:url(#cn);}.bn{clip-path:url(#cp);}.bo{clip-path:url(#cr);}.bp{clip-path:url(#ct);}.bq{clip-path:url(#cv);}.br{clip-path:url(#cx);}.bs{clip-path:url(#cz);}.bt{clip-path:url(#db);}.bu{clip-path:url(#dc);}.bv{clip-path:url(#de);}.bw{clip-path:url(#dg);}.bx{clip-path:url(#di);}.by{clip-path:url(#dk);}.bz{clip-path:url(#dm);}.ca{clip-path:url(#do);}.cb{clip-path:url(#dq);}.cc{clip-path:url(#ds);}.cd{clip-path:url(#du);}.ce{clip-path:url(#dv);}.cf{fill:#edf0f9;}.cg{clip-path:url(#dx);}.ch{fill:#5465c1;}.ci{clip-path:url(#dz);}.cj{clip-path:url(#eb);}.ck{clip-path:url(#ed);}.cl{fill:#fd0000;}.cm{clip-path:url(#ef);}.cn{fill:#ff7362;}.co{clip-path:url(#eh);}.cp{clip-path:url(#ej);}.cq{clip-path:url(#el);}.cr{fill:#7375a8;}.cs{clip-path:url(#en);}.ct{clip-path:url(#ep);}.cu{clip-path:url(#er);}.cv{clip-path:url(#et);}.cw{fill:#ee70a7;}.cx{clip-path:url(#ev);}.cy{clip-path:url(#ex);}.cz{clip-path:url(#ez);}.da{clip-path:url(#fb);}.db{clip-path:url(#fd);}.dc{fill:#00b8d2;}.dd{clip-path:url(#ff);}.de{clip-path:url(#fh);}.df{fill:#00dfff;}.dg{clip-path:url(#fj);}.dh{fill:#ff8f00;}.di{clip-path:url(#fl);}.dj{clip-path:url(#fn);}.dk{clip-path:url(#fp);}.dl{clip-path:url(#fr);}.dm{clip-path:url(#ft);}.dn{fill:#faa800;}.do{clip-path:url(#fv);}.dp{fill:#fdfeff;}.dq{clip-path:url(#fx);}.dr{clip-path:url(#fz);}.ds{clip-path:url(#gb);}.dt{clip-path:url(#gd);}.du{clip-path:url(#ge);}.dv{fill:#2222ba;}.dw{clip-path:url(#gg);}.dx{clip-path:url(#gi);}.dy{fill:#ff5a7e;}.dz{clip-path:url(#gk);}.ea{clip-path:url(#gm);}.eb{clip-path:url(#go);}.ec{fill:#5e59c3;}.ed{clip-path:url(#gq);}.ee{fill:#a3c0ff;}.ef{clip-path:url(#gs);}.eg{clip-path:url(#gu);}.eh{clip-path:url(#gw);}.ei{fill:#ff9fb4;}</style><clipPath id="a" transform="translate(-295 -150)"><polygon class="a" points="865.76 614.92 744.04 544.65 744.04 413.34 865.76 483.62 865.76 614.92"/></clipPath><clipPath id="b" transform="translate(-295 -150)"><rect class="b" width="1200" height="900"/></clipPath><clipPath id="c" transform="translate(-295 -150)"><polygon class="a" points="744.04 506.27 784.91 487.57 842.82 601.68 744.04 544.65 744.04 506.27"/></clipPath><clipPath id="e" transform="translate(-295 -150)"><polygon class="a" points="865.76 598.18 830.65 526.76 809.06 535.16 842.82 601.68 865.76 614.92 865.76 598.18"/></clipPath><clipPath id="g" transform="translate(-295 -150)"><path class="a" d="M840.31,499.54c0,9.57-5.82,14-13,9.83s-13-15.27-13-24.85,5.83-14,13-9.83,13,15.27,13,24.85"/></clipPath><clipPath id="i" transform="translate(-295 -150)"><polyline class="a" points="737.91 416.87 744.04 413.34 865.76 614.92 859.63 618.45"/></clipPath><clipPath id="k" transform="translate(-295 -150)"><polygon class="a" points="859.63 618.45 737.91 548.18 737.91 416.87 859.63 487.15 859.63 618.45"/></clipPath><clipPath id="m" transform="translate(-295 -150)"><polygon class="a" points="737.91 509.8 778.78 491.1 836.69 605.21 737.91 548.18 737.91 509.8"/></clipPath><clipPath id="o" transform="translate(-295 -150)"><polygon class="a" points="859.63 601.71 824.52 530.29 802.93 538.69 836.69 605.21 859.63 618.45 859.63 601.71"/></clipPath><clipPath id="q" transform="translate(-295 -150)"><path class="a" d="M834.18,503.07c0,9.57-5.82,14-13,9.82s-13-15.26-13-24.84,5.82-14,13-9.83,13,15.27,13,24.85"/></clipPath><clipPath id="s" transform="translate(-295 -150)"><path class="a" d="M667.66,569.8c1.52,14.84-8.23,22.65-21.78,17.45S620.11,565.81,618.59,551s8.24-22.65,21.78-17.45S666.14,555,667.66,569.8"/></clipPath><clipPath id="u" transform="translate(-295 -150)"><path class="a" d="M726.06,603.52c1.52,14.84-8.23,22.65-21.78,17.45S678.52,599.53,677,584.69s8.23-22.65,21.78-17.45,25.76,21.44,27.28,36.28"/></clipPath><clipPath id="w" transform="translate(-295 -150)"><polygon class="a" points="667.81 572.89 660.03 568.39 660.03 453.71 667.81 458.21 667.81 572.89"/></clipPath><clipPath id="y" transform="translate(-295 -150)"><polygon class="a" points="726.21 606.6 718.42 602.11 718.42 487.43 726.21 491.92 726.21 606.6"/></clipPath><clipPath id="aa" transform="translate(-295 -150)"><polygon class="a" points="726.21 521.22 660.03 483.01 660.03 453.71 726.21 491.92 726.21 521.22"/></clipPath><clipPath id="ac" transform="translate(-295 -150)"><polygon class="a" points="651.07 458.87 660.03 453.71 724.44 517.39 718.92 621.01 710.41 625.92 674.55 572.72 683.22 567.75 712.59 580.71 712.3 510.02 666.18 492.63 660.54 587.28 651.95 592.24 616.62 538.73 624.85 534 653.31 548.62 651.07 458.87"/></clipPath><clipPath id="ae" transform="translate(-295 -150)"><path class="a" d="M658.7,575c1.52,14.84-8.23,22.65-21.78,17.45S611.15,571,609.63,556.13s8.24-22.64,21.78-17.45S657.18,560.13,658.7,575"/></clipPath><clipPath id="ag" transform="translate(-295 -150)"><path class="a" d="M717.1,608.68c1.52,14.84-8.23,22.65-21.78,17.45S669.56,604.69,668,589.85s8.23-22.64,21.78-17.44,25.76,21.44,27.28,36.27"/></clipPath><clipPath id="ai" transform="translate(-295 -150)"><polygon class="a" points="658.85 578.05 651.07 573.55 651.07 458.87 658.85 463.37 658.85 578.05"/></clipPath><clipPath id="ak" transform="translate(-295 -150)"><polygon class="a" points="717.25 611.77 709.46 607.27 709.47 492.59 717.25 497.09 717.25 611.77"/></clipPath><clipPath id="am" transform="translate(-295 -150)"><polygon class="a" points="717.25 526.38 651.07 488.17 651.07 458.88 717.25 497.09 717.25 526.38"/></clipPath><clipPath id="ao" transform="translate(-295 -150)"><rect class="b" x="735.22" y="599.82" width="103.48" height="145.52"/></clipPath><clipPath id="aq" transform="translate(-295 -150)"><rect class="b" x="735" y="599" width="104" height="147"/></clipPath><clipPath id="ar" transform="translate(-295 -150)"><polygon class="a" points="748.48 599.82 735.22 607.46 748.48 627.72 748.48 685.61 809.36 720.76 825.44 745.34 838.7 737.7 838.7 651.91 748.48 599.82"/></clipPath><clipPath id="at" transform="translate(-295 -150)"><polygon class="a" points="825.44 745.34 735.22 693.25 735.22 607.46 825.44 659.55 825.44 745.34"/></clipPath><clipPath id="av" transform="translate(-295 -150)"><polygon class="a" points="797.58 686.36 763.08 643.64 763.08 689.23 797.58 686.36"/></clipPath><clipPath id="ax" transform="translate(-295 -150)"><path class="a" d="M705.64,303.12,689.84,294h0L540.21,207.61v0l-15.81-9.13c-2.88-1.66-5.51-1.67-7.47-.34l-8,4.56,4.51,6.07V334.59c0,8,4.92,17.42,10.93,20.89l15.81,9.12L620.56,411l36.58,21.11L689.84,451l6.37,3.68,8.09,10.89,7.89-4.59c2.66-1.13,4.38-4.37,4.38-9.12V324C716.57,316,711.65,306.59,705.64,303.12ZM540.21,274.59v0Z"/></clipPath><clipPath id="az" transform="translate(-295 -150)"><path class="a" d="M516.09,203.27c-6-3.47-10.94.25-10.94,8.27V339.38c0,8,4.92,17.42,10.94,20.89l15.8,9.13v-157Z"/></clipPath><clipPath id="bb" transform="translate(-295 -150)"><path class="a" d="M697.32,464.91c6,3.47,10.94-.25,10.94-8.27V328.8c0-8-4.92-17.42-10.94-20.89l-15.8-9.12v157Z"/></clipPath><clipPath id="bd" transform="translate(-295 -150)"><path class="a" d="M519.74,263.66v40.45c0,.89-.55,1.31-1.22.92a2.94,2.94,0,0,1-1.22-2.33V262.25c0-.9.55-1.31,1.22-.92a2.91,2.91,0,0,1,1.22,2.33"/></clipPath><clipPath id="bf" transform="translate(-295 -150)"><path class="a" d="M520.52,315.09c0,1.46-.9,2.14-2,1.51a4.81,4.81,0,0,1-2-3.81c0-1.46.9-2.14,2-1.5a4.77,4.77,0,0,1,2,3.8"/></clipPath><clipPath id="bh" transform="translate(-295 -150)"><polygon class="a" points="531.89 235.79 531.89 279.38 531.89 307.54 531.89 369.39 612.24 415.79 648.82 436.9 681.52 455.78 681.52 437.36 681.52 298.79 531.89 212.4 531.89 235.79"/></clipPath><clipPath id="bj" transform="translate(-295 -150)"><polygon class="a" points="630.19 350.05 583.22 291.9 583.22 353.96 630.19 350.05"/></clipPath><clipPath id="bl" transform="translate(-295 -150)"><rect class="b" x="300" y="184.98" width="183.41" height="306.1"/></clipPath><clipPath id="bn" transform="translate(-295 -150)"><rect class="b" x="300" y="184" width="184" height="308"/></clipPath><clipPath id="bo" transform="translate(-295 -150)"><polygon class="a" points="300 225.33 314.32 214.18 300 193.18 314.32 184.98 483.4 311.8 469.09 320 483.4 482.88 469.09 491.08 300 225.33"/></clipPath><clipPath id="bq" transform="translate(-295 -150)"><polygon class="a" points="480.69 310.23 483.41 311.8 483.41 282.61 467.75 273.57 451.01 263.9 434.26 254.23 417.51 244.56 400.77 234.9 384.02 225.23 367.27 215.56 350.53 205.89 333.78 196.22 317.03 186.55 314.32 184.99 314.32 214.18 321.5 218.33 321.5 221.28 314.32 217.13 314.32 246.33 314.32 385.26 483.41 482.88 483.41 343.95 483.41 314.76 480.69 313.19 476.22 310.61 476.22 307.65 480.69 310.23"/></clipPath><clipPath id="bs" transform="translate(-295 -150)"><polygon class="a" points="461.9 322.83 307.19 233.5 307.19 222.26 461.9 311.58 461.9 322.83"/></clipPath><clipPath id="bu" transform="translate(-295 -150)"><polygon class="a" points="319.46 204.42 332.4 241.08 349.15 250.75 336.21 214.09 319.46 204.42"/></clipPath><clipPath id="bw" transform="translate(-295 -150)"><polygon class="a" points="336.21 214.09 349.15 250.75 365.89 260.42 352.96 223.76 336.21 214.09"/></clipPath><clipPath id="by" transform="translate(-295 -150)"><polygon class="a" points="302.71 194.75 315.65 231.41 332.4 241.08 319.46 204.42 302.71 194.75"/></clipPath><clipPath id="ca" transform="translate(-295 -150)"><rect class="b" x="300" y="193.18" width="15.65" height="38.23"/></clipPath><clipPath id="cc" transform="translate(-295 -150)"><rect class="b" x="300" y="193" width="16" height="39"/></clipPath><clipPath id="cd" transform="translate(-295 -150)"><polygon class="a" points="300 193.18 300 222.38 315.65 231.41 302.72 194.75 300 193.18"/></clipPath><clipPath id="cf" transform="translate(-295 -150)"><polygon class="a" points="352.96 223.76 365.89 260.42 382.64 270.09 369.7 233.43 352.96 223.76"/></clipPath><clipPath id="ch" transform="translate(-295 -150)"><polygon class="a" points="453.44 281.77 436.69 272.1 449.63 308.76 466.37 318.43 453.44 281.77"/></clipPath><clipPath id="cj" transform="translate(-295 -150)"><polygon class="a" points="369.7 233.43 382.64 270.09 399.39 279.76 386.45 243.09 369.7 233.43"/></clipPath><clipPath id="cl" transform="translate(-295 -150)"><polygon class="a" points="469.09 320 469.09 290.81 453.44 281.77 466.37 318.43 469.09 320"/></clipPath><clipPath id="cn" transform="translate(-295 -150)"><polygon class="a" points="419.94 262.43 432.88 299.09 449.63 308.76 436.69 272.1 419.94 262.43"/></clipPath><clipPath id="cp" transform="translate(-295 -150)"><polygon class="a" points="403.2 252.76 416.13 289.43 432.88 299.09 419.94 262.43 403.2 252.76"/></clipPath><clipPath id="cr" transform="translate(-295 -150)"><polygon class="a" points="386.45 243.09 399.39 279.76 416.13 289.43 403.2 252.76 386.45 243.09"/></clipPath><clipPath id="ct" transform="translate(-295 -150)"><polygon class="a" points="319.46 265.76 332.4 244.04 349.15 253.71 336.21 275.43 319.46 265.76"/></clipPath><clipPath id="cv" transform="translate(-295 -150)"><polygon class="a" points="336.21 275.43 349.15 253.71 365.89 263.38 352.96 285.1 336.21 275.43"/></clipPath><clipPath id="cx" transform="translate(-295 -150)"><polygon class="a" points="302.71 256.09 315.65 234.37 332.4 244.04 319.46 265.76 302.71 256.09"/></clipPath><clipPath id="cz" transform="translate(-295 -150)"><rect class="b" x="300" y="225.33" width="15.65" height="30.76"/></clipPath><clipPath id="db" transform="translate(-295 -150)"><rect class="b" x="300" y="225" width="16" height="32"/></clipPath><clipPath id="dc" transform="translate(-295 -150)"><polygon class="a" points="300 254.53 300 225.33 315.65 234.37 302.72 256.09 300 254.53"/></clipPath><clipPath id="de" transform="translate(-295 -150)"><polygon class="a" points="352.96 285.1 365.89 263.38 382.64 273.05 369.7 294.77 352.96 285.1"/></clipPath><clipPath id="dg" transform="translate(-295 -150)"><polygon class="a" points="453.44 343.11 436.69 333.44 449.63 311.72 466.37 321.39 453.44 343.11"/></clipPath><clipPath id="di" transform="translate(-295 -150)"><polygon class="a" points="369.7 294.77 382.64 273.05 399.39 282.71 386.45 304.44 369.7 294.77"/></clipPath><clipPath id="dk" transform="translate(-295 -150)"><polygon class="a" points="469.09 322.96 469.09 352.15 453.44 343.11 466.37 321.39 469.09 322.96"/></clipPath><clipPath id="dm" transform="translate(-295 -150)"><polygon class="a" points="419.94 323.77 432.88 302.05 449.63 311.72 436.69 333.44 419.94 323.77"/></clipPath><clipPath id="do" transform="translate(-295 -150)"><polygon class="a" points="403.2 314.11 416.13 292.38 432.88 302.05 419.94 323.77 403.2 314.11"/></clipPath><clipPath id="dq" transform="translate(-295 -150)"><polygon class="a" points="386.45 304.44 399.39 282.72 416.13 292.38 403.2 314.11 386.45 304.44"/></clipPath><clipPath id="ds" transform="translate(-295 -150)"><rect class="b" x="300" y="254.53" width="169.09" height="236.56"/></clipPath><clipPath id="du" transform="translate(-295 -150)"><rect class="b" x="300" y="254" width="170" height="238"/></clipPath><clipPath id="dv" transform="translate(-295 -150)"><polygon class="a" points="469.09 491.08 300 393.46 300 254.53 469.09 352.15 469.09 491.08"/></clipPath><clipPath id="dx" transform="translate(-295 -150)"><polygon class="a" points="378.22 334.87 324.96 304.12 324.96 297.02 378.22 327.77 378.22 334.87"/></clipPath><clipPath id="dz" transform="translate(-295 -150)"><polygon class="a" points="378.22 356.76 324.96 326.02 324.96 318.92 378.22 349.66 378.22 356.76"/></clipPath><clipPath id="eb" transform="translate(-295 -150)"><polygon class="a" points="378.22 378.66 324.96 347.91 324.96 340.81 378.22 371.56 378.22 378.66"/></clipPath><clipPath id="ed" transform="translate(-295 -150)"><polygon class="a" points="543.72 360.8 530.46 368.44 543.72 388.7 543.72 446.59 604.6 481.74 620.68 506.32 633.94 498.68 633.94 412.89 543.72 360.8"/></clipPath><clipPath id="ef" transform="translate(-295 -150)"><polygon class="a" points="620.68 506.32 530.46 454.23 530.46 368.44 620.68 420.52 620.68 506.32"/></clipPath><clipPath id="eh" transform="translate(-295 -150)"><polygon class="a" points="592.83 447.34 558.32 404.62 558.32 450.21 592.83 447.34"/></clipPath><clipPath id="ej" transform="translate(-295 -150)"><path class="a" d="M458,535.71c0,6.15-8.68,11.13-19.4,11.13s-19.39-5-19.39-11.13,8.68-11.13,19.39-11.13,19.4,5,19.4,11.13"/></clipPath><clipPath id="el" transform="translate(-295 -150)"><path class="a" d="M458,517.17c0,6.15-8.68,11.13-19.4,11.13s-19.39-5-19.39-11.13,8.68-11.12,19.39-11.12,19.4,5,19.4,11.12"/></clipPath><clipPath id="en" transform="translate(-295 -150)"><polyline class="a" points="419.17 517.17 419.17 535.71 457.96 535.71 457.96 517.17"/></clipPath><clipPath id="ep" transform="translate(-295 -150)"><path class="a" d="M472.67,517.17c0,10.81-15.27,19.58-34.1,19.58s-34.11-8.77-34.11-19.58,15.27-19.57,34.11-19.57,34.1,8.76,34.1,19.57"/></clipPath><clipPath id="er" transform="translate(-295 -150)"><polyline class="a" points="404.46 497.6 404.46 517.17 472.67 517.17 472.67 497.6"/></clipPath><clipPath id="et" transform="translate(-295 -150)"><path class="a" d="M472.67,497.6c0,10.81-15.27,19.57-34.1,19.57s-34.11-8.76-34.11-19.57S419.73,478,438.57,478s34.1,8.76,34.1,19.57"/></clipPath><clipPath id="ev" transform="translate(-295 -150)"><path class="a" d="M497,444.05a58.47,58.47,0,1,1-58.46-58.47A58.46,58.46,0,0,1,497,444.05"/></clipPath><clipPath id="ex" transform="translate(-295 -150)"><polyline class="a" points="404.46 497.6 404.46 483.03 472.67 483.03 472.67 497.6"/></clipPath><clipPath id="ez" transform="translate(-295 -150)"><path class="a" d="M489.73,444.05a51.18,51.18,0,0,0-41.2-50.19,59.48,59.48,0,0,1,10.81,96.95,51.19,51.19,0,0,0,30.39-46.76"/></clipPath><clipPath id="fb" transform="translate(-295 -150)"><polygon class="a" points="421.71 464.87 398 435.51 398 466.84 421.71 464.87"/></clipPath><clipPath id="fd" transform="translate(-295 -150)"><path class="a" d="M509.54,513.68C513,499.81,524,494.54,537,502.05c6.84,3.95,13.11,10.79,18,19,0-22.9,14-33.41,31.22-23.48,15,8.67,27.55,30,30.54,50.6.22.13.45.24.68.37,12.87,7.43,23.75,25.07,27.31,42.74a17.66,17.66,0,0,1,4.41,1.84c10.33,6,18.7,22,18.7,35.73s-8.37,20.1-18.7,14.14l-31.72-18.32L537,578.18l-21.7-12.53c-10.33-6-18.7-22-18.7-35.73,0-11.11,5.45-17.37,13-16.24"/></clipPath><clipPath id="ff" transform="translate(-295 -150)"><polygon class="a" points="489.83 522.43 502.81 514.93 505.96 507.75 518.2 500.6 541.83 521.49 552.26 503.69 565.21 496.24 661.09 644.11 647.98 651.66 489.83 522.43"/></clipPath><clipPath id="fh" transform="translate(-295 -150)"><path class="a" d="M495.82,521.59c3.45-13.87,14.41-19.14,27.42-11.63,6.84,3.95,13.12,10.78,18,19,.05-22.91,14-33.42,31.22-23.48,15,8.67,27.55,30,30.54,50.6l.68.37c12.87,7.43,23.75,25.07,27.31,42.74a17.29,17.29,0,0,1,4.41,1.84c10.33,6,18.7,22,18.7,35.73s-8.37,20.09-18.7,14.13l-31.72-18.31-80.47-46.46-21.7-12.53c-10.33-6-18.7-22-18.7-35.73,0-11.11,5.45-17.37,13-16.24"/></clipPath><clipPath id="fj" transform="translate(-295 -150)"><path class="a" d="M893.12,599.63,803,547.6c-3.48-2-6.34.14-6.34,4.79V618c0,4.65,2.86,10.1,6.34,12.12l8.13,4.69V668l24.33-19.19,57.67,33.3c3.48,2,6.34-.14,6.34-4.8V611.74c0-4.65-2.86-10.1-6.34-12.11"/></clipPath><clipPath id="fl" transform="translate(-295 -150)"><path class="a" d="M808.45,578.93l79.21,45.74c1.78,1,3.23-.08,3.23-2.44a7.76,7.76,0,0,0-3.23-6.17l-79.21-45.73c-1.78-1-3.23.07-3.23,2.43a7.74,7.74,0,0,0,3.23,6.17"/></clipPath><clipPath id="fn" transform="translate(-295 -150)"><path class="a" d="M887.66,633.42l-79.21-45.74c-1.78-1-3.23.08-3.23,2.44a7.76,7.76,0,0,0,3.23,6.17L887.66,642c1.78,1,3.23-.07,3.23-2.44a7.74,7.74,0,0,0-3.23-6.16"/></clipPath><clipPath id="fp" transform="translate(-295 -150)"><path class="a" d="M859.4,634.46,808.45,605c-1.78-1-3.23.07-3.23,2.44a7.74,7.74,0,0,0,3.23,6.16l50.95,29.42c1.78,1,3.23-.07,3.23-2.44a7.74,7.74,0,0,0-3.23-6.16"/></clipPath><clipPath id="fr" transform="translate(-295 -150)"><polyline class="a" points="791.86 551.3 798.92 547.23 897.18 682.48 890.03 686.59 829.55 653.46 811.12 668 804.14 672.02 819.32 617.9"/></clipPath><clipPath id="ft" transform="translate(-295 -150)"><path class="a" d="M886.14,603.65l-90.12-52c-3.49-2-6.34.14-6.34,4.79V622c0,4.65,2.85,10.11,6.34,12.12l8.12,4.69V672l24.33-19.18,57.67,33.29c3.49,2,6.34-.14,6.34-4.79V615.77c0-4.65-2.85-10.11-6.34-12.12"/></clipPath><clipPath id="fv" transform="translate(-295 -150)"><path class="a" d="M801.47,583l79.22,45.74c1.78,1,3.23-.07,3.23-2.44a7.76,7.76,0,0,0-3.23-6.17l-79.22-45.73c-1.77-1-3.22.07-3.22,2.44a7.76,7.76,0,0,0,3.22,6.16"/></clipPath><clipPath id="fx" transform="translate(-295 -150)"><path class="a" d="M880.69,637.44,801.47,591.7c-1.77-1-3.22.08-3.22,2.44a7.78,7.78,0,0,0,3.22,6.17l79.22,45.74c1.78,1,3.23-.08,3.23-2.44a7.76,7.76,0,0,0-3.23-6.17"/></clipPath><clipPath id="fz" transform="translate(-295 -150)"><path class="a" d="M852.43,638.48l-51-29.42c-1.77-1-3.22.08-3.22,2.44a7.78,7.78,0,0,0,3.22,6.17l51,29.42c1.78,1,3.23-.08,3.23-2.44a7.76,7.76,0,0,0-3.23-6.17"/></clipPath><clipPath id="gb" transform="translate(-295 -150)"><rect class="b" x="716.52" y="288.6" width="61.48" height="106.39"/></clipPath><clipPath id="gd" transform="translate(-295 -150)"><rect class="b" x="716" y="288" width="62" height="107"/></clipPath><clipPath id="ge" transform="translate(-295 -150)"><path class="a" d="M736.53,344c4.78-2.76,8.68-10.2,8.68-16.57V288.8l.32,1.66c1.49,4.34,8.12,7.61,16.07,7.61,9.06,0,16.4-4.24,16.4-9.47v19.86c0,30.49,0,52-41.47,75l-20,11.55V355.53Z"/></clipPath><clipPath id="gg" transform="translate(-295 -150)"><path class="a" d="M761.6,279.13a28.32,28.32,0,0,1,3.23.19c7.51.86,13.17,4.69,13.17,9.28,0,5.23-7.34,9.47-16.4,9.47-8,0-14.58-3.27-16.07-7.61a5.6,5.6,0,0,1-.32-1.86c0-5.23,7.34-9.47,16.39-9.47"/></clipPath><clipPath id="gi" transform="translate(-295 -150)"><path class="a" d="M740.53,225.26l7.19-9.48,19.16,11.5,4.15,2.5c2.6,1.56,4.09,5.1,4.09,9.72l0,21.43-13.86,8v-12.2c-4.87-.07-8.26-4.59-8.26-12.13v-9.9Z"/></clipPath><clipPath id="gk" transform="translate(-295 -150)"><path class="a" d="M752.77,256.54l.25.18V267a19.53,19.53,0,0,0,.59,4.61c1.17,4.5,4,7.09,7.67,7.14V291l.59-.34-.59.34v5.47a21.11,21.11,0,0,1-7.22-1.31c-3.65-1.4-6.06-3.8-6.06-6.52a4.85,4.85,0,0,1,.54-2.19H748c-4.86-.06-8.26-4.59-8.26-12.14V264.06Z"/></clipPath><clipPath id="gm" transform="translate(-295 -150)"><path class="a" d="M721.83,174.54l32.32-18.66c1.91-1.1,3.64-1.13,5-.31h0l4.41,2.57-1.93,6v87.39c0,5.46-3.35,11.86-7.45,14.22l-31,17.91-1.27,4L717,284.8h0c-1.59-.91-2.6-3-2.6-6v-90c0-5.46,3.35-11.86,7.44-14.22"/></clipPath><clipPath id="go" transform="translate(-295 -150)"><path class="a" d="M726.5,177.26l32.32-18.66c4.1-2.36,7.45.16,7.45,5.62v90c0,5.45-3.35,11.86-7.45,14.22L726.5,287.13c-4.09,2.36-7.44-.17-7.44-5.63v-90c0-5.46,3.35-11.86,7.44-14.22"/></clipPath><clipPath id="gq" transform="translate(-295 -150)"><polygon class="a" points="721.58 192.49 763.75 168.14 763.75 254.14 721.58 278.49 721.58 192.49"/></clipPath><clipPath id="gs" transform="translate(-295 -150)"><path class="a" d="M736,181.42l13.24-7.65a2,2,0,0,0,.85-1.62v0c0-.63-.38-.92-.85-.65L736,179.13a2,2,0,0,0-.85,1.62v0c0,.63.38.92.85.65"/></clipPath><clipPath id="gu" transform="translate(-295 -150)"><path class="a" d="M743.46,170.2c.55-.31,1,0,1,.76a2.39,2.39,0,0,1-1,1.9c-.55.32-1,0-1-.75a2.39,2.39,0,0,1,1-1.91"/></clipPath><clipPath id="gw" transform="translate(-295 -150)"><path class="a" d="M744.13,240.41c2-3.79,5.2-5.65,7.19-4.15l23.8,18,0,0V288.6c0,4.33-6.08,7.83-13.57,7.83h-.29V278.76c-3.67-.05-6.5-2.63-7.67-7.14A19.53,19.53,0,0,1,753,267V256.72l-.25-.18L744.13,250c-2-1.5-2-5.79,0-9.59"/></clipPath></defs><title>live-stream</title><g class="c"><g class="d"><rect class="e" x="444.04" y="258.34" width="131.72" height="211.58"/></g></g><g class="f"><g class="d"><rect class="e" x="444.04" y="332.57" width="108.78" height="124.11"/></g></g><g class="g"><g class="d"><rect class="e" x="509.06" y="371.76" width="66.7" height="98.16"/></g></g><g class="h"><g class="d"><rect class="e" x="514.3" y="318.13" width="36" height="47.79"/></g></g><g class="i"><g class="d"><rect class="e" x="437.91" y="258.34" width="137.85" height="215.11"/></g></g><g class="j"><g class="d"><rect class="k" x="437.91" y="261.87" width="131.72" height="211.58"/></g></g><g class="l"><g class="d"><rect class="m" x="437.91" y="336.1" width="108.78" height="124.11"/></g></g><g class="n"><g class="d"><rect class="o" x="502.93" y="375.29" width="66.7" height="98.16"/></g></g><g class="p"><g class="d"><rect class="q" x="508.18" y="321.66" width="36" height="47.79"/></g></g><g class="r"><g class="d"><rect class="q" x="318.44" y="376.91" width="59.38" height="66.95"/></g></g><g class="s"><g class="d"><rect class="q" x="376.84" y="410.63" width="59.38" height="66.95"/></g></g><g class="t"><g class="d"><rect class="q" x="360.03" y="298.71" width="17.79" height="129.18"/></g></g><g class="u"><g class="d"><rect class="q" x="418.42" y="332.43" width="17.79" height="129.18"/></g></g><g class="v"><g class="d"><rect class="q" x="360.03" y="298.71" width="76.18" height="77.51"/></g></g><g class="w"><g class="d"><rect class="q" x="316.62" y="298.71" width="117.82" height="182.21"/></g></g><g class="x"><g class="d"><rect class="y" x="309.48" y="382.07" width="59.38" height="66.95"/></g></g><g class="z"><g class="d"><rect class="y" x="367.88" y="415.8" width="59.38" height="66.95"/></g></g><g class="aa"><g class="d"><rect class="y" x="351.07" y="303.87" width="17.79" height="129.18"/></g></g><g class="ab"><g class="d"><rect class="y" x="409.46" y="337.59" width="17.79" height="129.18"/></g></g><g class="ac"><g class="d"><rect class="y" x="351.07" y="303.87" width="76.18" height="77.51"/></g></g><g class="ad"><g class="d"><g class="ae"><g class="af"><g class="ag"><g class="af"><rect class="ah" x="435.22" y="444.82" width="113.48" height="155.52"/></g></g></g></g></g></g><g class="ai"><g class="d"><rect class="aj" x="435.22" y="452.46" width="100.22" height="147.88"/></g></g><g class="ak"><g class="d"><rect class="al" x="463.08" y="488.64" width="44.5" height="55.59"/></g></g><g class="am"><g class="d"><rect class="aj" x="208.96" y="42.18" width="217.61" height="278.37"/></g></g><g class="an"><g class="d"><rect class="ao" x="205.15" y="46.97" width="36.74" height="177.42"/></g></g><g class="ap"><g class="d"><rect class="ao" x="381.52" y="143.79" width="36.74" height="177.42"/></g></g><g class="aq"><g class="d"><rect class="ar" x="217.3" y="106.18" width="12.44" height="54"/></g></g><g class="as"><g class="d"><rect class="ar" x="216.53" y="156.05" width="13.99" height="15.79"/></g></g><g class="at"><g class="d"><rect class="au" x="231.89" y="57.4" width="159.63" height="253.38"/></g></g><g class="av"><g class="d"><rect class="ar" x="283.22" y="136.9" width="56.97" height="72.06"/></g></g><g class="aw"><g class="d"><g class="ae"><g class="ax"><g class="ay"><g class="ax"><rect class="ah" y="29.98" width="193.41" height="316.1"/></g></g></g></g></g></g><g class="az"><g class="d"><rect class="ah" x="14.32" y="29.98" width="179.09" height="307.9"/></g></g><g class="ba"><g class="d"><rect class="ah" x="7.19" y="67.26" width="164.71" height="110.57"/></g></g><g class="bb"><g class="d"><rect class="ar" x="19.46" y="49.42" width="39.68" height="56.33"/></g></g><g class="bc"><g class="d"><rect class="bd" x="36.21" y="59.09" width="39.68" height="56.33"/></g></g><g class="be"><g class="d"><rect class="bd" x="2.72" y="39.75" width="39.68" height="56.33"/></g></g><g class="bf"><g class="d"><g class="ae"><g class="bg"><g class="bh"><g class="bg"><rect class="ar" y="38.18" width="25.65" height="48.23"/></g></g></g></g></g></g><g class="bi"><g class="d"><rect class="ar" x="52.96" y="68.76" width="39.68" height="56.33"/></g></g><g class="bj"><g class="d"><rect class="bd" x="136.69" y="117.1" width="39.68" height="56.33"/></g></g><g class="bk"><g class="d"><rect class="bd" x="69.7" y="78.43" width="39.68" height="56.33"/></g></g><g class="bl"><g class="d"><rect class="ar" x="153.44" y="126.77" width="25.65" height="48.23"/></g></g><g class="bm"><g class="d"><rect class="ar" x="119.94" y="107.43" width="39.68" height="56.33"/></g></g><g class="bn"><g class="d"><rect class="bd" x="103.2" y="97.76" width="39.68" height="56.33"/></g></g><g class="bo"><g class="d"><rect class="ar" x="86.45" y="88.09" width="39.68" height="56.33"/></g></g><g class="bp"><g class="d"><rect class="ar" x="19.46" y="89.04" width="39.68" height="41.39"/></g></g><g class="bq"><g class="d"><rect class="bd" x="36.21" y="98.71" width="39.68" height="41.39"/></g></g><g class="br"><g class="d"><rect class="bd" x="2.72" y="79.37" width="39.68" height="41.39"/></g></g><g class="bs"><g class="d"><g class="ae"><g class="bt"><g class="bu"><g class="bt"><rect class="ar" y="70.33" width="25.65" height="40.76"/></g></g></g></g></g></g><g class="bv"><g class="d"><rect class="ar" x="52.96" y="108.38" width="39.68" height="41.39"/></g></g><g class="bw"><g class="d"><rect class="bd" x="136.69" y="156.72" width="39.68" height="41.39"/></g></g><g class="bx"><g class="d"><rect class="bd" x="69.7" y="118.05" width="39.68" height="41.39"/></g></g><g class="by"><g class="d"><rect class="ar" x="153.44" y="166.39" width="25.65" height="40.76"/></g></g><g class="bz"><g class="d"><rect class="ar" x="119.94" y="147.05" width="39.68" height="41.39"/></g></g><g class="ca"><g class="d"><rect class="bd" x="103.2" y="137.38" width="39.68" height="41.39"/></g></g><g class="cb"><g class="d"><rect class="ar" x="86.45" y="127.72" width="39.68" height="41.39"/></g></g><g class="cc"><g class="d"><g class="ae"><g class="cd"><g class="ce"><g class="cd"><rect class="cf" y="99.53" width="179.09" height="246.56"/></g></g></g></g></g></g><g class="cg"><g class="d"><rect class="ch" x="24.96" y="142.02" width="63.26" height="47.85"/></g></g><g class="ci"><g class="d"><rect class="ch" x="24.96" y="163.91" width="63.26" height="47.85"/></g></g><g class="cj"><g class="d"><rect class="ch" x="24.96" y="185.81" width="63.26" height="47.85"/></g></g><g class="ck"><g class="d"><rect class="cl" x="230.46" y="205.8" width="113.48" height="155.52"/></g></g><g class="cm"><g class="d"><rect class="cn" x="230.46" y="213.43" width="100.22" height="147.88"/></g></g><g class="co"><g class="d"><rect class="ar" x="258.32" y="249.62" width="44.5" height="55.59"/></g></g><g class="cp"><g class="d"><rect class="bd" x="119.17" y="369.58" width="48.79" height="32.26"/></g></g><g class="cq"><g class="d"><rect class="cr" x="119.17" y="351.04" width="48.79" height="32.26"/></g></g><g class="cs"><g class="d"><rect class="bd" x="119.17" y="362.17" width="48.79" height="28.54"/></g></g><g class="ct"><g class="d"><rect class="e" x="104.46" y="342.6" width="78.21" height="49.15"/></g></g><g class="cu"><g class="d"><rect class="e" x="104.46" y="342.6" width="78.21" height="29.57"/></g></g><g class="cv"><g class="d"><rect class="cw" x="104.46" y="323.03" width="78.21" height="49.15"/></g></g><g class="cx"><g class="d"><rect class="cw" x="80.1" y="230.58" width="126.94" height="126.94"/></g></g><g class="cy"><g class="d"><rect class="cw" x="104.46" y="328.03" width="78.21" height="24.58"/></g></g><g class="cz"><g class="d"><rect class="ar" x="148.53" y="238.86" width="51.2" height="106.95"/></g></g><g class="da"><g class="d"><rect class="aj" x="98" y="280.51" width="33.71" height="41.33"/></g></g><g class="db"><g class="d"><rect class="dc" x="196.56" y="338.8" width="181.29" height="161.4"/></g></g><g class="dd"><g class="d"><rect class="dc" x="189.83" y="341.24" width="181.26" height="165.42"/></g></g><g class="de"><g class="d"><rect class="df" x="182.84" y="346.7" width="181.29" height="161.4"/></g></g><g class="dg"><g class="d"><rect class="dh" x="496.65" y="391.84" width="112.8" height="146.02"/></g></g><g class="di"><g class="d"><rect class="bd" x="505.22" y="414.94" width="95.67" height="65.11"/></g></g><g class="dj"><g class="d"><rect class="bd" x="505.22" y="432.3" width="95.67" height="65.11"/></g></g><g class="dk"><g class="d"><rect class="bd" x="505.22" y="449.65" width="67.41" height="48.79"/></g></g><g class="dl"><g class="d"><rect class="dh" x="491.86" y="392.23" width="115.32" height="149.35"/></g></g><g class="dm"><g class="d"><rect class="dn" x="489.68" y="395.86" width="112.8" height="146.02"/></g></g><g class="do"><g class="d"><rect class="dp" x="498.25" y="418.96" width="95.67" height="65.11"/></g></g><g class="dq"><g class="d"><rect class="dp" x="498.25" y="436.32" width="95.67" height="65.11"/></g></g><g class="dr"><g class="d"><rect class="dp" x="498.25" y="453.68" width="67.41" height="48.79"/></g></g><g class="ds"><g class="d"><g class="ae"><g class="dt"><g class="du"><g class="dt"><rect class="dv" x="416.52" y="133.6" width="71.48" height="116.39"/></g></g></g></g></g></g><g class="dw"><g class="d"><rect class="ar" x="445.21" y="124.13" width="42.79" height="28.93"/></g></g><g class="dx"><g class="d"><rect class="dy" x="440.53" y="60.78" width="44.61" height="63.15"/></g></g><g class="dz"><g class="d"><rect class="dy" x="439.74" y="101.54" width="32.12" height="49.89"/></g></g><g class="ea"><g class="d"><rect class="dv" x="414.39" width="59.14" height="142.62"/></g></g><g class="eb"><g class="d"><rect class="ec" x="419.06" y="2.71" width="57.21" height="140.3"/></g></g><g class="ed"><g class="d"><rect class="ee" x="421.58" y="13.14" width="52.17" height="120.36"/></g></g><g class="ef"><g class="d"><rect class="dv" x="435.19" y="16.38" width="24.94" height="20.14"/></g></g><g class="eg"><g class="d"><rect class="dv" x="442.47" y="15.08" width="11.99" height="12.89"/></g></g><g class="eh"><g class="d"><rect class="ei" x="442.64" y="80.74" width="42.5" height="70.69"/></g></g></svg>