<svg xmlns="http://www.w3.org/2000/svg" xmlns:xlink="http://www.w3.org/1999/xlink" viewBox="0 0 600 492.21"><defs><style>.cls-1,.cls-8{opacity:0.49;}.cls-1{fill:url(#linear-gradient);}.cls-2{fill:#223762;}.cls-3{fill:url(#linear-gradient-2);}.cls-4{fill:url(#linear-gradient-3);}.cls-5{fill:#d6e3fa;}.cls-6{fill:#fff;}.cls-7{fill:#3769a5;}.cls-8{fill:url(#linear-gradient-4);}.cls-9{fill:url(#linear-gradient-5);}.cls-10{fill:url(#linear-gradient-6);}.cls-11{fill:url(#linear-gradient-7);}.cls-12{fill:url(#linear-gradient-8);}.cls-13{fill:url(#linear-gradient-9);}.cls-14{fill:url(#linear-gradient-10);}.cls-15{fill:url(#linear-gradient-11);}.cls-16{fill:url(#linear-gradient-12);}.cls-17{fill:url(#linear-gradient-13);}.cls-18{fill:url(#linear-gradient-14);}.cls-19{fill:url(#linear-gradient-15);}.cls-20{fill:url(#linear-gradient-16);}.cls-21{fill:url(#linear-gradient-17);}.cls-22{fill:url(#linear-gradient-18);}.cls-23{fill:url(#linear-gradient-19);}.cls-24{fill:url(#linear-gradient-20);}.cls-25{fill:url(#linear-gradient-21);}.cls-26{fill:url(#linear-gradient-22);}.cls-27{fill:url(#linear-gradient-23);}.cls-28{fill:url(#linear-gradient-24);}.cls-29{fill:url(#linear-gradient-25);}.cls-30{fill:url(#linear-gradient-26);}.cls-31{fill:url(#linear-gradient-27);}.cls-32{fill:url(#linear-gradient-28);}.cls-33,.cls-55{fill:none;stroke-linecap:round;stroke-linejoin:round;}.cls-33{stroke:#eb6057;}.cls-34{fill:url(#linear-gradient-29);}.cls-35{fill:url(#linear-gradient-30);}.cls-36{fill:url(#linear-gradient-31);}.cls-37{fill:url(#linear-gradient-32);}.cls-38{fill:url(#linear-gradient-33);}.cls-39{fill:url(#linear-gradient-34);}.cls-40{fill:url(#linear-gradient-35);}.cls-41{fill:url(#linear-gradient-36);}.cls-42{fill:#ef8c48;opacity:0.48;}.cls-43{fill:url(#linear-gradient-37);}.cls-44{fill:url(#linear-gradient-38);}.cls-45{fill:url(#linear-gradient-39);}.cls-46{fill:#4c93f4;}.cls-47{fill:url(#linear-gradient-40);}.cls-48{fill:#83a4d6;}.cls-49{fill:url(#linear-gradient-41);}.cls-50{fill:url(#linear-gradient-42);}.cls-51{fill:url(#linear-gradient-43);}.cls-52{fill:url(#linear-gradient-44);}.cls-53{fill:url(#linear-gradient-45);}.cls-54{fill:url(#linear-gradient-46);}.cls-55{stroke:#124;}.cls-56{fill:url(#linear-gradient-47);}.cls-57{fill:url(#linear-gradient-48);}.cls-58{fill:url(#linear-gradient-49);}.cls-59{fill:url(#linear-gradient-50);}.cls-60{fill:url(#linear-gradient-51);}.cls-61{fill:url(#linear-gradient-52);}.cls-62{fill:#ffd46a;}.cls-63{fill:url(#linear-gradient-53);}.cls-64{fill:url(#linear-gradient-54);}.cls-65{fill:url(#linear-gradient-55);}.cls-66{fill:url(#linear-gradient-56);}.cls-67{fill:url(#linear-gradient-57);}.cls-68{fill:url(#linear-gradient-58);}.cls-69{fill:url(#linear-gradient-59);}.cls-70{fill:url(#linear-gradient-60);}.cls-71{fill:url(#linear-gradient-61);}.cls-72{fill:url(#linear-gradient-62);}.cls-73{fill:url(#linear-gradient-63);}.cls-74{fill:url(#linear-gradient-64);}.cls-75{fill:url(#linear-gradient-65);}.cls-76{fill:url(#linear-gradient-66);}.cls-77{fill:url(#linear-gradient-67);}.cls-78{fill:url(#linear-gradient-68);}.cls-79{fill:url(#linear-gradient-69);}.cls-80{fill:url(#linear-gradient-70);}.cls-81{fill:url(#linear-gradient-71);}.cls-82{fill:url(#linear-gradient-72);}.cls-83{fill:url(#linear-gradient-73);}.cls-84{fill:url(#linear-gradient-74);}.cls-85{fill:url(#linear-gradient-75);}.cls-86{fill:url(#linear-gradient-76);}.cls-87{fill:url(#linear-gradient-77);}.cls-88{fill:url(#linear-gradient-78);}.cls-89{fill:url(#linear-gradient-79);}.cls-90{fill:url(#linear-gradient-80);}.cls-91{fill:url(#linear-gradient-81);}.cls-92{fill:url(#linear-gradient-82);}</style><linearGradient id="linear-gradient" x1="-2160.26" y1="315.2" x2="-2511.54" y2="743.23" gradientTransform="matrix(-0.95, 0.12, 0.14, 1.09, -1979.72, -77.43)" gradientUnits="userSpaceOnUse"><stop offset="0" stop-color="#eaf1fc"/><stop offset="1" stop-color="#c0d4f4"/></linearGradient><linearGradient id="linear-gradient-2" x1="244.74" y1="31.79" x2="194.1" y2="100.91" gradientUnits="userSpaceOnUse"><stop offset="0" stop-color="#4c93f4"/><stop offset="1" stop-color="#0b63da"/></linearGradient><linearGradient id="linear-gradient-3" x1="257.4" y1="31.73" x2="208.47" y2="80.66" xlink:href="#linear-gradient-2"/><linearGradient id="linear-gradient-4" x1="829.55" y1="-102.65" x2="-18.43" y2="143.65" gradientTransform="translate(-18.13 262.19) rotate(12.43)" xlink:href="#linear-gradient"/><linearGradient id="linear-gradient-5" x1="8.23" y1="478.32" x2="85.62" y2="524.39" gradientTransform="matrix(0.98, -0.2, 0.2, 0.98, -8.52, -235.77)" gradientUnits="userSpaceOnUse"><stop offset="0" stop-color="#223762"/><stop offset="1" stop-color="#041b48"/></linearGradient><linearGradient id="linear-gradient-6" x1="12.77" y1="485.01" x2="68.18" y2="517.99" gradientTransform="matrix(0.98, -0.2, 0.2, 0.98, -8.52, -235.77)" gradientUnits="userSpaceOnUse"><stop offset="0" stop-color="#3769a5"/><stop offset="1" stop-color="#08448b"/></linearGradient><linearGradient id="linear-gradient-7" x1="197.12" y1="278.07" x2="257.69" y2="274.86" gradientTransform="matrix(1, 0, 0, 1, 0, 0)" xlink:href="#linear-gradient-6"/><linearGradient id="linear-gradient-8" x1="197.3" y1="281.49" x2="257.86" y2="278.29" gradientTransform="matrix(1, 0, 0, 1, 0, 0)" xlink:href="#linear-gradient-5"/><linearGradient id="linear-gradient-9" x1="113" y1="240.29" x2="190.39" y2="286.36" gradientTransform="matrix(1, 0, 0, 1, 0, 0)" xlink:href="#linear-gradient-5"/><linearGradient id="linear-gradient-10" x1="337.83" y1="481.71" x2="354.95" y2="487.65" gradientTransform="matrix(1, 0, 0, 1, 0, 0)" xlink:href="#linear-gradient-5"/><linearGradient id="linear-gradient-11" x1="-4510.22" y1="481.71" x2="-4493.1" y2="487.65" gradientTransform="matrix(-1, 0, 0, 1, -4116.13, 0)" xlink:href="#linear-gradient-5"/><linearGradient id="linear-gradient-12" x1="334.79" y1="440.71" x2="372.06" y2="407.46" gradientTransform="matrix(1, 0, 0, 1, 0, 0)" xlink:href="#linear-gradient-5"/><linearGradient id="linear-gradient-13" x1="354.63" y1="380.94" x2="368.16" y2="368.87" gradientTransform="matrix(1, 0, 0, 1, 0, 0)" xlink:href="#linear-gradient-5"/><linearGradient id="linear-gradient-14" x1="323.56" y1="396.85" x2="318.04" y2="377.42" gradientTransform="matrix(1, 0, 0, 1, 0, 0)" xlink:href="#linear-gradient-5"/><linearGradient id="linear-gradient-15" x1="381.2" y1="365.5" x2="378.62" y2="356.4" gradientTransform="matrix(1, 0, 0, 1, 0, 0)" xlink:href="#linear-gradient-5"/><linearGradient id="linear-gradient-16" x1="358.32" y1="372" x2="355.74" y2="362.91" gradientTransform="matrix(1, 0, 0, 1, 0, 0)" xlink:href="#linear-gradient-5"/><linearGradient id="linear-gradient-17" x1="340.38" y1="432.73" x2="349.65" y2="418.1" gradientTransform="matrix(1, 0, 0, 1, 0, 0)" xlink:href="#linear-gradient-6"/><linearGradient id="linear-gradient-18" x1="226.76" y1="303.43" x2="308.02" y2="299.13" xlink:href="#linear-gradient-2"/><linearGradient id="linear-gradient-19" x1="288.9" y1="311.5" x2="333.2" y2="316.12" gradientTransform="matrix(1, 0, 0, 1, 0, 0)" xlink:href="#linear-gradient-6"/><linearGradient id="linear-gradient-20" x1="430.16" y1="12.83" x2="419.04" y2="2.9" gradientTransform="translate(-11.13 76.79) rotate(4.5)" gradientUnits="userSpaceOnUse"><stop offset="0" stop-color="#f8a695"/><stop offset="1" stop-color="#e56045"/></linearGradient><linearGradient id="linear-gradient-21" x1="479.73" y1="21.28" x2="464.39" y2="7.59" xlink:href="#linear-gradient-20"/><linearGradient id="linear-gradient-22" x1="328.94" y1="128.87" x2="384.92" y2="169.77" gradientUnits="userSpaceOnUse"><stop offset="0" stop-color="#ffc063"/><stop offset="0.95" stop-color="#e44d0b"/></linearGradient><linearGradient id="linear-gradient-23" x1="448.4" y1="113.71" x2="395.86" y2="202.24" gradientTransform="matrix(1, 0.08, -0.07, 0.88, -9.85, 60.58)" gradientUnits="userSpaceOnUse"><stop offset="0" stop-color="#ffc063"/><stop offset="1" stop-color="#e58f0f"/></linearGradient><linearGradient id="linear-gradient-24" x1="329.38" y1="134.29" x2="472.51" y2="219.49" gradientTransform="matrix(1, 0.08, -0.07, 0.88, -9.85, 60.58)" xlink:href="#linear-gradient-22"/><linearGradient id="linear-gradient-25" x1="445.12" y1="-292.75" x2="445.12" y2="-306.42" gradientTransform="matrix(0.94, 0.34, -0.34, 0.94, -111.61, 310.37)" xlink:href="#linear-gradient-20"/><linearGradient id="linear-gradient-26" x1="458.77" y1="-294.47" x2="456.34" y2="-288.62" gradientTransform="translate(-101.42 246.85) rotate(17.99)" xlink:href="#linear-gradient-5"/><linearGradient id="linear-gradient-27" x1="440.38" y1="-314.63" x2="457.33" y2="-375.09" gradientTransform="matrix(0.94, 0.34, -0.34, 0.94, -111.61, 310.37)" xlink:href="#linear-gradient-20"/><linearGradient id="linear-gradient-28" x1="473.97" y1="-296.87" x2="479.95" y2="-236.55" gradientTransform="translate(-101.42 246.85) rotate(17.99)" xlink:href="#linear-gradient-5"/><linearGradient id="linear-gradient-29" x1="451.45" y1="-406.87" x2="429.34" y2="-426.37" gradientTransform="matrix(0.93, 0.36, -0.36, 0.93, -119.49, 355.31)" xlink:href="#linear-gradient-5"/><linearGradient id="linear-gradient-30" x1="478.33" y1="103.07" x2="425.02" y2="192.89" gradientTransform="translate(-11.13 76.79) rotate(4.5)" xlink:href="#linear-gradient-23"/><linearGradient id="linear-gradient-31" x1="-4432.82" y1="430.46" x2="-4432.82" y2="270.4" gradientTransform="matrix(-1, 0, 0, 1, -4244.8, 0)" xlink:href="#linear-gradient-6"/><linearGradient id="linear-gradient-32" x1="-4372.92" y1="430.46" x2="-4372.92" y2="270.4" gradientTransform="matrix(-1, 0, 0, 1, -4244.8, 0)" xlink:href="#linear-gradient-6"/><linearGradient id="linear-gradient-33" x1="-4713.47" y1="348.98" x2="-4713.47" y2="300.1" gradientTransform="matrix(-1, 0, 0, 1, -4244.8, 0)" xlink:href="#linear-gradient-6"/><linearGradient id="linear-gradient-34" x1="-4653.57" y1="348.98" x2="-4653.57" y2="300.1" gradientTransform="matrix(-1, 0, 0, 1, -4244.8, 0)" xlink:href="#linear-gradient-6"/><linearGradient id="linear-gradient-35" x1="-4371.98" y1="421.43" x2="-4371.98" y2="302.97" gradientTransform="matrix(-1, 0, 0, 1, -4244.8, 0)" gradientUnits="userSpaceOnUse"><stop offset="0" stop-color="#a7bde5"/><stop offset="1" stop-color="#2f66cb"/></linearGradient><linearGradient id="linear-gradient-36" x1="-4312.08" y1="421.43" x2="-4312.08" y2="302.97" xlink:href="#linear-gradient-35"/><linearGradient id="linear-gradient-37" x1="-1756.86" y1="207.87" x2="-1778.01" y2="181.34" gradientTransform="translate(-1486.91 -632.16) rotate(-147.49)" xlink:href="#linear-gradient-2"/><linearGradient id="linear-gradient-38" x1="-2485.86" y1="209.99" x2="-2481.76" y2="204.64" gradientTransform="matrix(-0.84, -0.54, -0.54, 0.84, -1858.06, -1299.87)" xlink:href="#linear-gradient-22"/><linearGradient id="linear-gradient-39" x1="-1759.25" y1="209.53" x2="-1780.3" y2="183.13" gradientTransform="translate(1892.49)" xlink:href="#linear-gradient-2"/><linearGradient id="linear-gradient-40" x1="-4399.02" y1="291.1" x2="-4891.76" y2="319.16" gradientTransform="matrix(1, 0, 0, -1, 4782.13, 595.23)" xlink:href="#linear-gradient-35"/><linearGradient id="linear-gradient-41" x1="-4654.54" y1="391.08" x2="-4654.54" y2="266.58" xlink:href="#linear-gradient-35"/><linearGradient id="linear-gradient-42" x1="-4594.64" y1="391.08" x2="-4594.64" y2="266.58" xlink:href="#linear-gradient-35"/><linearGradient id="linear-gradient-43" x1="-4844.8" y1="486.95" x2="-4244.8" y2="486.95" gradientTransform="matrix(-1, 0, 0, 1, -4244.8, 0)" xlink:href="#linear-gradient-5"/><linearGradient id="linear-gradient-44" x1="117.55" y1="246.98" x2="172.95" y2="279.96" gradientTransform="matrix(1, 0, 0, 1, 0, 0)" xlink:href="#linear-gradient-6"/><linearGradient id="linear-gradient-45" x1="-2480.5" y1="222.83" x2="-2529.25" y2="283.51" gradientTransform="matrix(-1, 0, 0, 1, -2416.6, 0)" xlink:href="#linear-gradient-2"/><linearGradient id="linear-gradient-46" x1="85.95" y1="-23.08" x2="142.51" y2="-23.08" gradientTransform="matrix(1.15, 0.16, -0.1, 1, 398, 319.7)" xlink:href="#linear-gradient-5"/><linearGradient id="linear-gradient-47" x1="535.17" y1="362.89" x2="487.88" y2="460.11" gradientTransform="matrix(1, -0.04, -0.04, 1.27, 44.62, -326.48)" xlink:href="#linear-gradient-5"/><linearGradient id="linear-gradient-48" x1="470.05" y1="219.5" x2="500.57" y2="219.5" gradientTransform="matrix(1, 0, 0, 1, 0, 0)" xlink:href="#linear-gradient-6"/><linearGradient id="linear-gradient-49" x1="529.01" y1="125.13" x2="473.32" y2="377.91" xlink:href="#linear-gradient-2"/><linearGradient id="linear-gradient-50" x1="662.36" y1="532.99" x2="598.28" y2="643.47" gradientTransform="translate(-147.59 -255.69) rotate(-7.69)" xlink:href="#linear-gradient-6"/><linearGradient id="linear-gradient-51" x1="594.27" y1="399.74" x2="474.07" y2="453.36" gradientUnits="userSpaceOnUse"><stop offset="0" stop-color="#ff9f5b"/><stop offset="1" stop-color="#e5670e"/></linearGradient><linearGradient id="linear-gradient-52" x1="585.53" y1="437.02" x2="566.09" y2="437.02" xlink:href="#linear-gradient-51"/><linearGradient id="linear-gradient-53" x1="517.06" y1="193.8" x2="512.05" y2="207.06" xlink:href="#linear-gradient-2"/><linearGradient id="linear-gradient-54" x1="-16.9" y1="-1647.09" x2="-21.91" y2="-1633.83" gradientTransform="translate(-1094.83 271.23) rotate(90)" xlink:href="#linear-gradient-2"/><linearGradient id="linear-gradient-55" x1="11.31" y1="-1636.43" x2="6.3" y2="-1623.18" gradientTransform="translate(-1071.4 281.89) rotate(90)" xlink:href="#linear-gradient-2"/><linearGradient id="linear-gradient-56" x1="440.7" y1="-862.13" x2="435.69" y2="-848.88" gradientTransform="translate(-291.13 -127.14) rotate(90)" xlink:href="#linear-gradient-2"/><linearGradient id="linear-gradient-57" x1="443.54" y1="224.42" x2="476.46" y2="350.37" gradientTransform="matrix(1, 0, 0, 1, 0, 0)" xlink:href="#linear-gradient-6"/><linearGradient id="linear-gradient-58" x1="458.29" y1="220.57" x2="491.21" y2="346.52" xlink:href="#linear-gradient-2"/><linearGradient id="linear-gradient-59" x1="453.66" y1="202.85" x2="500.85" y2="383.39" xlink:href="#linear-gradient-2"/><linearGradient id="linear-gradient-60" x1="178.32" y1="1218.2" x2="174.46" y2="1228.43" gradientTransform="translate(306.61 -936.01)" xlink:href="#linear-gradient-2"/><linearGradient id="linear-gradient-61" x1="193.5" y1="1227.62" x2="189.64" y2="1237.85" gradientTransform="translate(309.07 -942.61)" xlink:href="#linear-gradient-2"/><linearGradient id="linear-gradient-62" x1="458.1" y1="-682.01" x2="454.23" y2="-671.78" gradientTransform="translate(-168.33 -132.08) rotate(90)" xlink:href="#linear-gradient-2"/><linearGradient id="linear-gradient-63" x1="463" y1="-673.82" x2="459.14" y2="-663.59" gradientTransform="translate(-158.7 -127.55) rotate(90)" xlink:href="#linear-gradient-2"/><linearGradient id="linear-gradient-64" x1="479.86" y1="-673.79" x2="475.99" y2="-663.56" gradientTransform="translate(-140.17 -125.53) rotate(90)" xlink:href="#linear-gradient-2"/><linearGradient id="linear-gradient-65" x1="553.31" y1="203.19" x2="549.45" y2="213.42" gradientTransform="translate(746.7 -183.73) rotate(90)" xlink:href="#linear-gradient-2"/><linearGradient id="linear-gradient-66" x1="317.93" y1="392.71" x2="312.84" y2="374.8" gradientTransform="matrix(1, 0, 0, 1, 0, 0)" xlink:href="#linear-gradient-5"/><linearGradient id="linear-gradient-67" x1="218.51" y1="197.48" x2="231.38" y2="192" xlink:href="#linear-gradient-22"/><linearGradient id="linear-gradient-68" x1="236.6" y1="170.09" x2="224.33" y2="230.24" xlink:href="#linear-gradient-22"/><linearGradient id="linear-gradient-69" x1="177.04" y1="146.47" x2="189.91" y2="140.99" xlink:href="#linear-gradient-22"/><linearGradient id="linear-gradient-70" x1="195.13" y1="119.08" x2="182.86" y2="179.23" xlink:href="#linear-gradient-22"/><linearGradient id="linear-gradient-71" x1="265.66" y1="165.54" x2="278.52" y2="160.06" xlink:href="#linear-gradient-22"/><linearGradient id="linear-gradient-72" x1="283.74" y1="138.15" x2="271.47" y2="198.3" xlink:href="#linear-gradient-22"/><linearGradient id="linear-gradient-73" x1="190.1" y1="258.31" x2="199.13" y2="291.58" xlink:href="#linear-gradient-22"/><linearGradient id="linear-gradient-74" x1="394.48" y1="216.23" x2="335.71" y2="318.65" gradientTransform="matrix(1, 0, 0.18, 1, -177.48, 0)" xlink:href="#linear-gradient-2"/><linearGradient id="linear-gradient-75" x1="323.56" y1="234.54" x2="313.39" y2="251.69" xlink:href="#linear-gradient-22"/><linearGradient id="linear-gradient-76" x1="323.05" y1="274.24" x2="317.22" y2="259.49" xlink:href="#linear-gradient-2"/><linearGradient id="linear-gradient-77" x1="327.45" y1="252.27" x2="314.53" y2="247.24" xlink:href="#linear-gradient-2"/><linearGradient id="linear-gradient-78" x1="334.62" y1="275.34" x2="362.95" y2="279.94" xlink:href="#linear-gradient-22"/><linearGradient id="linear-gradient-79" x1="332.96" y1="-95.66" x2="367.57" y2="-95.66" gradientTransform="matrix(1, 0, 0, -1, 0, 186.62)" xlink:href="#linear-gradient-2"/><linearGradient id="linear-gradient-80" x1="365.54" y1="-95.66" x2="389" y2="-95.66" gradientTransform="matrix(1, 0, 0, -1, 0, 186.62)" xlink:href="#linear-gradient-2"/><linearGradient id="linear-gradient-81" x1="364.32" y1="118.67" x2="398.93" y2="118.67" gradientTransform="matrix(0.99, 0.16, -0.16, 0.99, -0.76, 87.47)" xlink:href="#linear-gradient-2"/><linearGradient id="linear-gradient-82" x1="396.9" y1="118.67" x2="420.36" y2="118.67" gradientTransform="matrix(0.99, 0.16, -0.16, 0.99, -0.76, 87.47)" xlink:href="#linear-gradient-2"/></defs><title>Asset 3</title><g id="Layer_2" data-name="Layer 2"><g id="Layer_1-2" data-name="Layer 1"><g id="_3" data-name="3"><path class="cls-1" d="M413.49,46.69C293.83,79.79,196,3.27,134.28.15,41.48-4.53-53,97.93,71,277.31S245.83,497.13,381.42,478.68C489.91,463.92,562.35,361.07,583.21,289,615.85,176.16,533.15,13.6,413.49,46.69Z"/><rect class="cls-2" x="136.78" y="23.91" width="152.18" height="110.02"/><rect class="cls-3" x="135.03" y="23.91" width="150.33" height="110.02"/><rect class="cls-4" x="140.92" y="30.32" width="138.57" height="97.22"/><rect class="cls-2" x="140.92" y="30.32" width="2.72" height="97.22"/><polygon class="cls-5" points="143.63 110.85 180 86.75 222.51 95.76 266.9 47.08 279.49 60.95 279.49 127.53 143.63 127.53 143.63 110.85"/><ellipse class="cls-6" cx="165.22" cy="55.84" rx="8.94" ry="11.2"/><polygon class="cls-6" points="164.55 96.99 176.78 102.27 187.18 95.15 208.61 92.81 180 86.75 164.55 96.99"/><polygon class="cls-6" points="252.62 62.73 262.43 68.63 268.78 64.3 275.54 67.03 279.79 65.68 279.49 60.95 266.9 47.08 252.62 62.73"/><path class="cls-6" d="M143.63,117.82a53.7,53.7,0,0,1,37.4-8.06c22.09,3.28,24,14.62,44.73,9.85S255,91.26,264.49,93.05,279.79,105,279.79,105l-.31,22.54H143.63Z"/><path class="cls-7" d="M143.63,119.61s15.31-9.25,37.4-6.57,24,11.93,44.73,8S255,97.95,264.49,99.41s15.3,9.74,15.3,9.74l-.31,18.39H143.63Z"/><path class="cls-8" d="M56,314.81c2.52-12.51,19.18-15.23,25.69-4.26,15.39,25.93,49.13,72.54,80,99.46,43.32,37.77-29.12,74.87-70.47,58.14S51.88,336.38,55.85,315.43Z"/><path class="cls-9" d="M158.2,247.18s-5.13-2.3-7.3-4.74-13.52-17.5-15.61-17.93a6.3,6.3,0,0,0-5.45,1.28C128.47,227,151,271,151,271l20.1-6.93Z"/><path class="cls-10" d="M129.84,225.79s-1.14,0-2.2,2.13-.34,12,3.11,19.3,7.33,21,8.1,22.57a5.77,5.77,0,0,0,5.45,2.63c1.88-.38,5.29-.88,6.71-1.37s2.7-2.72-2.4-11.73-7.92-13.19-10.42-20.41-3.58-11.1-5.37-12.13A6.07,6.07,0,0,0,129.84,225.79Z"/><path class="cls-11" d="M323.29,296.8s-49.78-42.56-65.19-52-98.51,0-99.44,0-3.73,5.81-3.73,11.51,7.77,13,7.77,13l73,2.65,85,36.12Z"/><path class="cls-12" d="M208.24,247.76c-12.4.92-37.42,5-53.28,7.75,0,.28,0,.56,0,.84,0,5.69,7.77,13,7.77,13l73,2.65,85,36.12,2.62-11.26s-23.14-19.78-42.75-35.37C254.37,254.92,219.58,246.92,208.24,247.76Z"/><path class="cls-13" d="M171.24,268.55s-4.57-3.28-6.2-6.11-9.74-19.85-11.7-20.7a6.3,6.3,0,0,0-5.6.16c-1.58.89,11.65,48.58,11.65,48.58l21.09-2.76Z"/><polygon class="cls-14" points="359.56 471.96 281.62 481.7 365.96 481.7 365.96 471.96 359.56 471.96"/><polygon class="cls-15" points="372.36 471.96 450.29 481.7 365.96 481.7 365.96 471.96 372.36 471.96"/><rect class="cls-16" x="359.56" y="353.87" width="12.76" height="118.1"/><rect class="cls-17" x="354.23" y="359.94" width="23.42" height="21.82"/><rect class="cls-18" x="254.31" y="343.47" width="111.63" height="12.25"/><path class="cls-19" d="M462.45,202.75H349.09c-2.76,0-5,2.69-5,6h0V209a422.81,422.81,0,0,1-3,44.22,280.2,280.2,0,0,1-6.37,35.08c-2.92,11.39-6.76,21.87-11.53,29.66a70.25,70.25,0,0,1-20.85,21.72c-8.41,5.56-17.87,8.91-27.35,8.91a39.5,39.5,0,0,1-18.54-4.61c-2.53-1.33-5.47.08-6.57,3.15s.07,6.63,2.6,8a48.14,48.14,0,0,0,20,5.53l.15.07H386.17l50.41-30.43,16.55-28.4,10.14-76.55Z"/><rect class="cls-20" x="338.38" y="343.47" width="27.31" height="12.83"/><path class="cls-21" d="M455.31,208.78V209a422.84,422.84,0,0,1-3,44.22,280.2,280.2,0,0,1-6.37,35.08c-2.92,11.39-6.76,21.87-11.53,29.66a70.25,70.25,0,0,1-20.85,21.72c-8.41,5.56-17.87,8.91-27.35,8.91a39.5,39.5,0,0,1-18.54-4.61c-2.53-1.33-5.47.08-6.57,3.15s.07,6.63,2.6,8a48,48,0,0,0,22.5,5.61c11.43,0,22.46-4,32.14-10.39a81,81,0,0,0,24.1-25.15c5.92-9.73,10.15-21.79,13.33-34.44,4.76-19,7.11-39.32,8.32-55s1.24-26.71,1.24-26.84c0-3.34-2.22-6.06-5-6.07s-5,2.69-5,6Z"/><path class="cls-22" d="M395.26,313.95s-5.33,15.95-25.78,25.44-50.5,14-69.37,8c-32-10-63.41-67.91-63.41-67.91l-60.41,10.31a20,20,0,0,1-6-13.78v-9.2s62.93-15.9,76.62-16.22,71,49.17,74.15,51.81,15.91-14.89,15.91-14.89Z"/><path class="cls-23" d="M323.29,330c-18.67,1.46-35.22-8.3-49.09-17.78s-22.88-42.1-43.33-42.58c-15.68-.37-46.58,6.91-60.15,10.33a20.55,20.55,0,0,0,5.57,9.84l60.41-10.31s31.46,57.87,63.41,67.91c18.87,5.93,48.93,1.46,69.37-8S395.26,314,395.26,314l-38.75-17.55C349.08,309.36,335.79,329.06,323.29,330Z"/><path class="cls-24" d="M394.62,111.47s1.35-1.6,8-4.87,20.52-1.68,21-1.16,3.93,13.72-2.87,17.83-12.83,5.4-16.35,4.58-8.78-1.63-8.78-1.63Z"/><path class="cls-25" d="M474.79,131.85s.94-5-6.12-11.82-21-11.54-26.43-7.57-3.93,13.24-3.89,13.79S456,133,456,133l-8.1,1s10.14,6.08,14.29,7S474.79,131.85,474.79,131.85Z"/><path class="cls-26" d="M383.82,178.16s-21.59-8.69-27.43-22.33,42.8-27.58,42.8-27.58.91-6.69,1.62-11.71-6.25-6-6.25-6-16.8,3-45.19,13.48c-21.31,7.85-22,10-25.11,21.28s25.44,49.69,36.86,73.88C368,233.8,383.82,178.16,383.82,178.16Z"/><path class="cls-27" d="M416.41,183.28s22.08,1.74,27.48,5.6,9.3,13.63,10.87,23.35-17.86,67-35.18,88.58-21.4,19.51-21.4,19.51-58-6.65-68.66-12.86S314,294.66,314,294.66s27.7-45.47,34.1-69.86,11.71-41.6,22.7-44.9,23.69-3.43,23.69-3.43Z"/><path class="cls-28" d="M454.76,212.22a61.53,61.53,0,0,0-2.11-8.88l-13.44.94s4.55,16.67,2.09,23.13-16.56,19.22-32.69,22,4.3,9.27,6,14.88-33.92,17.19-55.53,11a154.88,154.88,0,0,1-28-10.85c-8.62,16.47-17,30.28-17,30.28s4.81,6.59,15.52,12.8,68.66,12.86,68.66,12.86,4.08,2.09,21.4-19.51S456.33,221.94,454.76,212.22Z"/><path class="cls-6" d="M397.82,176.72a5.58,5.58,0,0,0-3.23,2.49,7.11,7.11,0,0,0,1.64,8.67c3.09,2.56,14.28,4.66,19.82,2.54s4.69-6.11,4.69-6.11Z"/><path class="cls-29" d="M400.67,159.31l-2.85,17.42s1.23,4,8,6.65,14.95.94,14.95.94l6.5-16.36Z"/><path class="cls-30" d="M414.1,97.54S403.76,120,400.4,128s5.82,13.85,5.82,13.85l20.48-9.68,2.79-26.58Z"/><path class="cls-31" d="M403.62,125.11c-3,9.27-6.57,20.5-6.45,31.56s18.23,20.4,27.48,15.2,16.13-16.54,16.13-16.54,6.34,3,9.89-1.27,6-11.65,3.47-14.25-6.67-.37-6.67-.37,4.71-9,.29-17.46S417,105.73,415.16,106.4,406.63,115.84,403.62,125.11Z"/><path class="cls-32" d="M438.59,149.71s6.9-10.74,8-16.35-.44-10.22-5.66-14.65-23.33-9-26.78-11.65-5-5.32-.67-12.47S433,80.93,448,88.54s19.77,17.52,23.08,24.23-4.82,18.42-10.39,28.74-15,23.65-20.23,27.59-11.85.05-11.85.05L441,154.26s2.16,2.15,6.52-.23,8-8.19,7.39-11.87-5.68-4.82-8.71-1.54S438.59,149.71,438.59,149.71Z"/><path class="cls-33" d="M410.86,131.66s-6.5,10.82-7.23,13.85,7.56,3.79,7.56,3.79"/><path class="cls-34" d="M453.29,111.77c-6.95-6.29-34.4-8.42-36.59-13.18-.68-1.48-.57-4.29-.09-7.47a14.72,14.72,0,0,0-3.1,3.52c-4.29,7.15-2.77,9.86.67,12.47s21.55,7.22,26.78,11.65,6.8,9,5.66,14.65-8,16.35-8,16.35S460.24,118.06,453.29,111.77Z"/><path class="cls-33" d="M446.25,144.46s2.77-.64,2.75,1.63-.84,4.15-3.82,4.41a1.92,1.92,0,0,1-2-1.61"/><path class="cls-33" d="M418.22,127.4s1.13,7.69,5.35,8.75a10.61,10.61,0,0,0,7.09-.45"/><path class="cls-33" d="M413.08,125.17s-2.86,2.61-5.38,2-.82-4.73-.82-4.73"/><path class="cls-35" d="M440.39,187.95s50.65-6.17,57.71-12.07-36.51-34.05-36.51-34.05,6.54-11.28,10.63-11.93l4.09-.65s51.39,28.76,56.34,42.7-24.1,34-40.56,40.76-38,15.69-47.68,12.73-12.43-16.91-9.48-26.38S440.39,187.95,440.39,187.95Z"/><polygon class="cls-36" points="205.67 481.68 217.79 481.68 170.38 304.75 158.26 304.75 205.67 481.68"/><polygon class="cls-37" points="110.48 481.68 98.36 481.68 145.77 304.75 157.89 304.75 110.48 481.68"/><polygon class="cls-38" points="486.31 481.68 498.44 481.68 451.03 304.75 438.9 304.75 486.31 481.68"/><polygon class="cls-39" points="391.13 481.68 379 481.68 426.41 304.75 438.54 304.75 391.13 481.68"/><polygon class="cls-40" points="144.82 481.68 156.95 481.68 109.54 304.75 97.41 304.75 144.82 481.68"/><polygon class="cls-41" points="49.64 481.68 37.51 481.68 84.92 304.75 97.05 304.75 49.64 481.68"/><rect class="cls-2" x="63.26" y="121.58" width="3.92" height="76.27" rx="1.34" ry="1.34" transform="translate(233.99 123.94) rotate(100.24)"/><circle class="cls-42" cx="124.14" cy="197.72" r="11.22" transform="translate(-86.81 97.69) rotate(-32.51)"/><rect class="cls-2" x="64.66" y="113.8" width="3.92" height="76.27" rx="1.34" ry="1.34" transform="translate(227.99 113.4) rotate(100.24)"/><rect class="cls-2" x="48.75" y="145.71" width="3.92" height="153.64" rx="1.34" ry="1.34" transform="translate(-40.29 13.22) rotate(-10.66)"/><rect class="cls-43" x="104.01" y="149.76" width="13.26" height="53.54" rx="2.97" ry="2.97" transform="translate(298.81 265.94) rotate(147.49)"/><circle class="cls-44" cx="124.14" cy="197.72" r="7.99" transform="translate(-86.81 97.69) rotate(-32.51)"/><path class="cls-45" d="M108.31,172.88c11-7,28-.24,37.8,15.18l-40,25.49C96.28,198.13,97.27,179.92,108.31,172.88Z"/><path class="cls-2" d="M146.11,188.06l-10.75,6.85c-7.19-11.28-16.55-19.43-25.31-23C121.07,166.56,136.79,173.42,146.11,188.06Z"/><rect class="cls-2" x="40.98" y="147.17" width="3.92" height="153.64" rx="1.34" ry="1.34" transform="translate(-40.7 11.81) rotate(-10.66)"/><circle class="cls-2" cx="35.78" cy="150.04" r="9.57"/><circle class="cls-46" cx="34" cy="150.04" r="9.57"/><circle class="cls-2" cx="34" cy="150.04" r="4.79"/><rect class="cls-47" x="37.51" y="290.48" width="462.31" height="14.27" transform="translate(537.33 595.23) rotate(-180)"/><rect class="cls-7" x="414.75" y="290.48" width="85.07" height="14.27" transform="translate(914.57 595.23) rotate(-180)"/><rect class="cls-48" x="37.51" y="300.11" width="462.31" height="4.64" transform="translate(537.33 604.86) rotate(-180)"/><rect class="cls-2" x="415.16" y="300.11" width="84.66" height="4.64" transform="translate(914.98 604.86) rotate(-180)"/><polygon class="cls-49" points="427.39 481.68 439.51 481.68 392.11 304.75 379.98 304.75 427.39 481.68"/><polygon class="cls-50" points="332.21 481.68 320.08 481.68 367.49 304.75 379.62 304.75 332.21 481.68"/><polygon class="cls-51" points="0 492.21 600 492.21 558.82 481.68 37.98 481.68 0 492.21"/><path class="cls-52" d="M147.75,241.9s-1.13-.18-2.59,1.64-2.74,11.68-.82,19.53,3,22,3.41,23.73a5.77,5.77,0,0,0,4.81,3.67c1.92,0,5.36.19,6.85,0s3.19-2.12,0-12-5.11-14.51-6.12-22.09-1.28-11.59-2.83-13A6.07,6.07,0,0,0,147.75,241.9Z"/><polygon class="cls-2" points="81.83 290.51 126.43 290.51 113.96 230.77 69.36 230.77 81.83 290.51"/><polygon class="cls-53" points="77.92 290.51 123.33 290.51 110.63 230.77 65.22 230.77 77.92 290.51"/><polygon class="cls-2" points="88.31 249.33 73.21 290.51 97.07 290.51 90.7 249.33 88.31 249.33"/><polygon class="cls-46" points="90.7 249.33 75.61 290.51 99.46 290.51 90.7 249.33"/><path class="cls-54" d="M501.25,306.89c-8.81,33.4-4.78,66.24,8.61,90.22,23.48-14.26,43.18-40.84,52-74.24s4.78-66.24-8.61-90.22C529.76,246.91,510.06,273.49,501.25,306.89Z"/><path class="cls-55" d="M536.3,305.55A403.84,403.84,0,0,0,522.63,353c-6.37,28-4.76,61.28-4.76,61.28"/><path class="cls-55" d="M499.18,295.94S503,328,507.72,352.8s7.91,57.45,7.91,57.45"/><path class="cls-55" d="M491.52,349.85s7.66,20.92,13.26,34.47,10.85,27.5,10.85,27.5"/><path class="cls-56" d="M523.7,178.46c-4,29.26-.53,56.26,8.11,74.5,13.21-15.26,23.8-40.33,27.8-69.6s.53-56.26-8.11-74.5C538.29,124.12,527.7,149.19,523.7,178.46Z"/><path class="cls-57" d="M496.56,225.39c1.2-26.79,3-75.15,4-103.34-18.59,23-30.52,58.27-30.52,97.86,0,39.13,11.66,74,29.88,97C497.91,289.92,495.46,249.78,496.56,225.39Z"/><path class="cls-58" d="M532.67,219.91c0-40.16-12.26-75.88-31.31-98.87-.27.33-.52.68-.79,1-1,28.19-2.81,76.55-4,103.34-1.09,24.39,1.35,64.53,3.37,91.56.48.6.94,1.24,1.43,1.83C520.41,295.79,532.67,260.06,532.67,219.91Z"/><path class="cls-59" d="M532.87,247.33c-7.22,24.08-6.29,47.7,1,64.9,15.55-10.36,29.32-29.57,36.54-53.65s6.29-47.7-1-64.9C553.86,204,540.09,223.26,532.87,247.33Z"/><polygon class="cls-60" points="550.27 481.68 481.35 481.68 471.12 392.36 560.51 392.36 550.27 481.68"/><polygon class="cls-61" points="471.12 392.36 481.35 481.68 507.72 481.68 500.09 392.36 471.12 392.36"/><rect class="cls-62" x="467.62" y="389.81" width="96.37" height="22.01"/><ellipse class="cls-63" cx="502.73" cy="231.72" rx="3.55" ry="6.33"/><ellipse class="cls-64" cx="510.93" cy="238.72" rx="6.33" ry="3.55" transform="translate(-19.15 431.2) rotate(-45)"/><ellipse class="cls-65" cx="509.77" cy="272.33" rx="8.69" ry="4.87" transform="translate(-43.25 440.23) rotate(-45)"/><ellipse class="cls-66" cx="507.78" cy="289.67" rx="8.69" ry="4.87" transform="translate(30.82 627.69) rotate(-65.03)"/><path class="cls-67" d="M449.48,308.35c11,27.75,29.25,49.08,48.71,59.74C471.24,337.65,444,231.46,444,231.46,437.17,252.56,438.49,280.6,449.48,308.35Z"/><path class="cls-68" d="M492.75,291.2c-11-27.75-29.25-49.08-48.71-59.74,0,0,27.21,106.19,54.15,136.63C505.06,347,503.74,318.95,492.75,291.2Z"/><path class="cls-69" d="M492.75,291.2c-11-27.75-29.25-49.08-48.71-59.74,0,0,27.21,106.19,54.15,136.63C505.06,347,503.74,318.95,492.75,291.2Z"/><ellipse class="cls-70" cx="473.88" cy="311.44" rx="2.74" ry="4.88" transform="translate(-83.53 207.29) rotate(-22.73)"/><ellipse class="cls-71" cx="491.52" cy="314.27" rx="2.74" ry="4.88" transform="translate(-83.26 214.32) rotate(-22.73)"/><ellipse class="cls-72" cx="481.8" cy="313.97" rx="4.88" ry="2.74" transform="matrix(0.38, -0.93, 0.93, 0.38, 8.66, 640.85)"/><ellipse class="cls-73" cx="483.24" cy="323.41" rx="4.88" ry="2.74" transform="translate(0.81 648.04) rotate(-67.73)"/><ellipse class="cls-74" cx="491" cy="338.23" rx="6.7" ry="3.76" transform="translate(-8.08 664.42) rotate(-67.73)"/><ellipse class="cls-75" cx="494.75" cy="351.16" rx="6.7" ry="3.76" transform="translate(124.5 831.79) rotate(-87.76)"/><polygon class="cls-76" points="254.25 355.72 353.77 355.72 357.09 343.47 254.25 343.47 254.25 355.72"/><path class="cls-77" d="M248.27,177.71H221a3.73,3.73,0,0,0-3.73,3.73v16.79A3.73,3.73,0,0,0,221,202h6l5.62,7.68h2.06l7.68-7.68h6a3.73,3.73,0,0,0,3.73-3.73V181.45A3.73,3.73,0,0,0,248.27,177.71Z"/><path class="cls-78" d="M246.2,177.71H218.94a3.73,3.73,0,0,0-3.73,3.73v16.79a3.73,3.73,0,0,0,3.73,3.73h6l7.68,7.68,7.68-7.68h6a3.73,3.73,0,0,0,3.73-3.73V181.45A3.73,3.73,0,0,0,246.2,177.71Z"/><path class="cls-79" d="M206.79,126.7H179.53a3.73,3.73,0,0,0-3.73,3.73v16.79a3.73,3.73,0,0,0,3.73,3.73h6l5.62,7.68h2.06l7.68-7.68h6a3.73,3.73,0,0,0,3.73-3.73V130.43A3.73,3.73,0,0,0,206.79,126.7Z"/><path class="cls-80" d="M204.73,126.7H177.47a3.73,3.73,0,0,0-3.73,3.73v16.79a3.73,3.73,0,0,0,3.73,3.73h6l7.68,7.68,7.68-7.68h6a3.73,3.73,0,0,0,3.73-3.73V130.43A3.73,3.73,0,0,0,204.73,126.7Z"/><path class="cls-81" d="M295.41,145.77H268.14a3.73,3.73,0,0,0-3.73,3.73V166.3a3.73,3.73,0,0,0,3.73,3.73h6l5.62,7.68h2.06l7.68-7.68h6a3.73,3.73,0,0,0,3.73-3.73V149.5A3.73,3.73,0,0,0,295.41,145.77Z"/><path class="cls-82" d="M293.35,145.77H266.08a3.73,3.73,0,0,0-3.73,3.73V166.3a3.73,3.73,0,0,0,3.73,3.73h6l7.68,7.68,7.68-7.68h6a3.73,3.73,0,0,0,3.73-3.73V149.5A3.73,3.73,0,0,0,293.35,145.77Z"/><path class="cls-83" d="M252.87,290.55s-34.07.38-47.9-.77-19.25-9.68-20.53-13.5a22.63,22.63,0,0,1-1.28-6.51H139.72a22.63,22.63,0,0,0,1.28,6.51c1.28,3.82,6.7,12.35,20.53,13.5s47.9.77,47.9.77Z"/><rect class="cls-2" x="286.63" y="285.26" width="44.65" height="5.22" rx="0.56" ry="0.56"/><path class="cls-2" d="M210.12,290.48h83.63c1.63,0,2.6-1.6,2.17-3.57l-14.17-65.12c-.43-2-2.1-3.57-3.72-3.57H194.4c-1.63,0-2.6,1.6-2.17,3.57l14.17,65.12C206.83,288.88,208.5,290.48,210.12,290.48Z"/><path class="cls-84" d="M206,290.48h83.63c1.63,0,2.6-1.6,2.17-3.57l-14.17-65.12c-.43-2-2.1-3.57-3.72-3.57H190.3c-1.63,0-2.6,1.6-2.17,3.57l14.17,65.12C202.72,288.88,204.39,290.48,206,290.48Z"/><path class="cls-5" d="M235.88,247.53a16.19,16.19,0,0,1-1-3.34,4.1,4.1,0,0,0-2.63.86c-3,2.28-3.58,8.28-1.34,13.4s6.48,7.42,9.46,5.13c2.35-1.8,3.19-5.9,2.36-10.06C240.21,253.47,237.51,251.26,235.88,247.53Z"/><polygon class="cls-85" points="317.71 248.5 317.71 235.17 329.91 225.64 331.55 228.08 320.76 236.51 320.76 248.5 317.71 248.5"/><polygon class="cls-86" points="329.37 291.24 310.01 291.24 306.43 249.32 332.96 249.32 329.37 291.24"/><polygon class="cls-87" points="332.92 246.8 306.66 246.8 305.29 251.25 334.1 251.25 332.92 246.8"/><polygon class="cls-88" points="342.26 269.03 338.46 272.23 335.38 270.63 334.7 275.72 348.47 285.22 359.81 279.89 363.11 278.92 363.11 272.33 342.26 269.03"/><polygon class="cls-89" points="337.71 290.79 332.96 273.78 367.57 273.78 365.54 290.79 337.71 290.79"/><polygon class="cls-90" points="365.54 290.79 384.06 290.79 389 273.78 367.57 273.78 365.54 290.79"/><polygon class="cls-91" points="345.88 255.37 338.46 271.39 372.63 276.94 373.35 259.83 345.88 255.37"/><polygon class="cls-92" points="373.35 259.83 391.63 262.8 393.79 280.37 372.63 276.94 373.35 259.83"/></g></g></g></svg>