<svg xmlns="http://www.w3.org/2000/svg" xmlns:xlink="http://www.w3.org/1999/xlink" viewBox="0 0 600.5 525.21"><defs><style>.cls-1,.cls-2{opacity:0.49;}.cls-1{fill:url(#linear-gradient);}.cls-2{fill:url(#linear-gradient-2);}.cls-14,.cls-3,.cls-85,.cls-86{fill:none;stroke-linecap:round;}.cls-14,.cls-3{stroke:#124;stroke-linejoin:round;}.cls-3{stroke-width:0.5px;stroke-dasharray:3;}.cls-4{fill:url(#linear-gradient-3);}.cls-5{fill:url(#linear-gradient-4);}.cls-6{fill:#223762;}.cls-7{fill:#fff;}.cls-8{fill:url(#linear-gradient-5);}.cls-9{fill:url(#linear-gradient-6);}.cls-10{fill:url(#linear-gradient-7);}.cls-11{fill:url(#linear-gradient-8);}.cls-12{fill:url(#linear-gradient-9);}.cls-13{fill:url(#linear-gradient-10);}.cls-15{fill:url(#linear-gradient-11);}.cls-16{fill:url(#linear-gradient-12);}.cls-17{fill:url(#linear-gradient-13);}.cls-18{fill:url(#linear-gradient-14);}.cls-19{fill:url(#linear-gradient-15);}.cls-20{fill:url(#linear-gradient-16);}.cls-21{fill:#ffd46a;}.cls-22{fill:url(#linear-gradient-17);}.cls-23{fill:url(#linear-gradient-18);}.cls-24{fill:url(#linear-gradient-19);}.cls-25{fill:url(#linear-gradient-20);}.cls-26{fill:url(#linear-gradient-21);}.cls-27{fill:url(#linear-gradient-22);}.cls-28{fill:url(#linear-gradient-23);}.cls-29{fill:url(#linear-gradient-24);}.cls-30{fill:url(#linear-gradient-25);}.cls-31{fill:url(#linear-gradient-26);}.cls-32{fill:url(#linear-gradient-27);}.cls-33{fill:url(#linear-gradient-28);}.cls-34{fill:url(#linear-gradient-29);}.cls-35{fill:url(#linear-gradient-30);}.cls-36{fill:url(#linear-gradient-31);}.cls-37{fill:url(#linear-gradient-32);}.cls-38{fill:url(#linear-gradient-33);}.cls-39{fill:url(#linear-gradient-34);}.cls-40{fill:url(#linear-gradient-35);}.cls-41{fill:url(#linear-gradient-36);}.cls-42{fill:#3769a5;}.cls-43{fill:#83a4d6;}.cls-44{fill:url(#linear-gradient-37);}.cls-45{fill:url(#linear-gradient-38);}.cls-46{fill:url(#linear-gradient-39);}.cls-47{fill:url(#linear-gradient-40);}.cls-48{fill:url(#linear-gradient-41);}.cls-49{fill:url(#linear-gradient-42);}.cls-50{fill:url(#linear-gradient-43);}.cls-51{fill:url(#linear-gradient-44);}.cls-52{fill:url(#linear-gradient-45);}.cls-53{fill:url(#linear-gradient-46);}.cls-54{fill:url(#linear-gradient-47);}.cls-55{fill:url(#linear-gradient-48);}.cls-56{fill:url(#linear-gradient-49);}.cls-57{fill:url(#linear-gradient-50);}.cls-58{fill:url(#linear-gradient-51);}.cls-59{fill:url(#linear-gradient-52);}.cls-60{fill:url(#linear-gradient-53);}.cls-61{fill:url(#linear-gradient-54);}.cls-62{fill:url(#linear-gradient-55);}.cls-63{fill:url(#linear-gradient-56);}.cls-64{fill:url(#linear-gradient-57);}.cls-65{fill:url(#linear-gradient-58);}.cls-66{fill:url(#linear-gradient-59);}.cls-67{fill:url(#linear-gradient-60);}.cls-68{fill:url(#linear-gradient-61);}.cls-69{fill:url(#linear-gradient-62);}.cls-70{fill:url(#linear-gradient-63);}.cls-71{fill:url(#linear-gradient-64);}.cls-72{fill:url(#linear-gradient-65);}.cls-73{fill:url(#linear-gradient-66);}.cls-74{fill:url(#linear-gradient-67);}.cls-75{fill:url(#linear-gradient-68);}.cls-76{fill:url(#linear-gradient-69);}.cls-77{fill:url(#linear-gradient-70);}.cls-78{fill:url(#linear-gradient-71);}.cls-79{fill:url(#linear-gradient-72);}.cls-80{fill:url(#linear-gradient-73);}.cls-81{fill:url(#linear-gradient-74);}.cls-82{fill:url(#linear-gradient-75);}.cls-83{fill:url(#linear-gradient-76);}.cls-84{fill:url(#linear-gradient-77);}.cls-85,.cls-86{stroke-miterlimit:10;}.cls-85{stroke:url(#linear-gradient-78);}.cls-86{stroke:url(#linear-gradient-79);}.cls-87{fill:url(#linear-gradient-80);}.cls-88{fill:url(#linear-gradient-81);}.cls-89{fill:url(#linear-gradient-82);}.cls-90{fill:url(#linear-gradient-83);}.cls-91{fill:url(#linear-gradient-84);}.cls-92{fill:url(#linear-gradient-85);}.cls-93{fill:url(#linear-gradient-86);}.cls-94{fill:url(#linear-gradient-87);}.cls-95{fill:url(#linear-gradient-88);}.cls-96{fill:url(#linear-gradient-89);}.cls-97{fill:url(#linear-gradient-90);}</style><linearGradient id="linear-gradient" x1="310.04" y1="-70.66" x2="-34.91" y2="349.66" gradientUnits="userSpaceOnUse"><stop offset="0" stop-color="#eaf1fc"/><stop offset="1" stop-color="#c0d4f4"/></linearGradient><linearGradient id="linear-gradient-2" x1="549.91" y1="255.04" x2="205.39" y2="674.83" gradientTransform="matrix(1, -0.13, 0.14, 1.09, -166.33, -203.97)" xlink:href="#linear-gradient"/><linearGradient id="linear-gradient-3" x1="365.14" y1="225.86" x2="324.32" y2="303.92" gradientUnits="userSpaceOnUse"><stop offset="0" stop-color="#4c93f4"/><stop offset="1" stop-color="#0b63da"/></linearGradient><linearGradient id="linear-gradient-4" x1="333.2" y1="214.24" x2="297.63" y2="283.47" gradientUnits="userSpaceOnUse"><stop offset="0" stop-color="#3769a5"/><stop offset="1" stop-color="#08448b"/></linearGradient><linearGradient id="linear-gradient-5" x1="336.85" y1="225.86" x2="296.03" y2="303.92" gradientUnits="userSpaceOnUse"><stop offset="0" stop-color="#ff9f5b"/><stop offset="1" stop-color="#e5670e"/></linearGradient><linearGradient id="linear-gradient-6" x1="305.38" y1="266.58" x2="261.33" y2="283.05" xlink:href="#linear-gradient-5"/><linearGradient id="linear-gradient-7" x1="293.57" y1="518.45" x2="306.3" y2="510.03" gradientUnits="userSpaceOnUse"><stop offset="0" stop-color="#223762"/><stop offset="1" stop-color="#041b48"/></linearGradient><linearGradient id="linear-gradient-8" x1="307.59" y1="464.81" x2="329.43" y2="394.99" xlink:href="#linear-gradient-4"/><linearGradient id="linear-gradient-9" x1="309.26" y1="459.48" x2="330.07" y2="392.94" xlink:href="#linear-gradient-7"/><linearGradient id="linear-gradient-10" x1="218.86" y1="119.79" x2="277.09" y2="119.79" gradientTransform="matrix(1.15, 0.16, -0.1, 1, 272.25, 184.02)" xlink:href="#linear-gradient-7"/><linearGradient id="linear-gradient-11" x1="554" y1="360.18" x2="505.32" y2="460.27" gradientTransform="matrix(1, -0.04, -0.04, 1.27, 41, -299.97)" xlink:href="#linear-gradient-7"/><linearGradient id="linear-gradient-12" x1="482.52" y1="245.04" x2="513.94" y2="245.04" xlink:href="#linear-gradient-4"/><linearGradient id="linear-gradient-13" x1="543.22" y1="147.88" x2="485.89" y2="408.11" xlink:href="#linear-gradient-3"/><linearGradient id="linear-gradient-14" x1="684.52" y1="445.63" x2="618.55" y2="559.37" gradientTransform="translate(-142.14 -141.67) rotate(-7.69)" xlink:href="#linear-gradient-4"/><linearGradient id="linear-gradient-15" x1="610.4" y1="430.58" x2="486.66" y2="485.78" xlink:href="#linear-gradient-5"/><linearGradient id="linear-gradient-16" x1="601.41" y1="468.96" x2="581.39" y2="468.96" xlink:href="#linear-gradient-5"/><linearGradient id="linear-gradient-17" x1="530.91" y1="218.58" x2="525.76" y2="232.22" xlink:href="#linear-gradient-3"/><linearGradient id="linear-gradient-18" x1="249.12" y1="-1033.29" x2="243.97" y2="-1019.65" gradientTransform="translate(-466.14 31.77) rotate(90)" xlink:href="#linear-gradient-3"/><linearGradient id="linear-gradient-19" x1="278.16" y1="-1022.32" x2="273.01" y2="-1008.67" gradientTransform="translate(-442.02 42.74) rotate(90)" xlink:href="#linear-gradient-3"/><linearGradient id="linear-gradient-20" x1="537.91" y1="-484.11" x2="532.75" y2="-470.46" gradientTransform="translate(102.34 -196.05) rotate(90)" xlink:href="#linear-gradient-3"/><linearGradient id="linear-gradient-21" x1="455.23" y1="250.1" x2="489.12" y2="379.76" xlink:href="#linear-gradient-4"/><linearGradient id="linear-gradient-22" x1="470.41" y1="246.13" x2="504.3" y2="375.79" xlink:href="#linear-gradient-3"/><linearGradient id="linear-gradient-23" x1="465.64" y1="227.9" x2="514.23" y2="413.75" xlink:href="#linear-gradient-3"/><linearGradient id="linear-gradient-24" x1="251.77" y1="920.91" x2="247.79" y2="931.44" gradientTransform="translate(246.07 -611.34)" xlink:href="#linear-gradient-3"/><linearGradient id="linear-gradient-25" x1="267.39" y1="930.61" x2="263.42" y2="941.14" gradientTransform="translate(248.61 -618.13)" xlink:href="#linear-gradient-3"/><linearGradient id="linear-gradient-26" x1="538.24" y1="-338.05" x2="534.26" y2="-327.52" gradientTransform="translate(189.39 -183.54) rotate(90)" xlink:href="#linear-gradient-3"/><linearGradient id="linear-gradient-27" x1="543.29" y1="-329.62" x2="539.31" y2="-319.09" gradientTransform="translate(199.3 -178.88) rotate(90)" xlink:href="#linear-gradient-3"/><linearGradient id="linear-gradient-28" x1="560.64" y1="-329.59" x2="556.66" y2="-319.06" gradientTransform="translate(218.37 -176.8) rotate(90)" xlink:href="#linear-gradient-3"/><linearGradient id="linear-gradient-29" x1="568.2" y1="263.92" x2="564.22" y2="274.45" gradientTransform="translate(822.07 -168.66) rotate(90)" xlink:href="#linear-gradient-3"/><linearGradient id="linear-gradient-30" x1="210.32" y1="517.5" x2="224.47" y2="508.14" xlink:href="#linear-gradient-7"/><linearGradient id="linear-gradient-31" x1="62.09" y1="509.51" x2="120.73" y2="509.51" gradientUnits="userSpaceOnUse"><stop offset="0" stop-color="#a7bde5"/><stop offset="1" stop-color="#2f66cb"/></linearGradient><linearGradient id="linear-gradient-32" x1="176.63" y1="260.48" x2="226.29" y2="260.48" xlink:href="#linear-gradient-31"/><linearGradient id="linear-gradient-33" x1="27.72" y1="376.07" x2="183.42" y2="376.07" xlink:href="#linear-gradient-5"/><linearGradient id="linear-gradient-34" x1="-1583.24" y1="381.45" x2="-1583.24" y2="332.38" gradientTransform="matrix(-1, 0, 0, 1, -1486.34, 0)" xlink:href="#linear-gradient-4"/><linearGradient id="linear-gradient-35" x1="-1643.36" y1="381.45" x2="-1643.36" y2="332.38" gradientTransform="matrix(-1, 0, 0, 1, -1486.34, 0)" xlink:href="#linear-gradient-4"/><linearGradient id="linear-gradient-36" x1="-1670.5" y1="323.34" x2="-2165.13" y2="351.51" gradientTransform="matrix(1, 0, 0, -1, 2084.44, 659.77)" xlink:href="#linear-gradient-31"/><linearGradient id="linear-gradient-37" x1="-1987.54" y1="423.7" x2="-1987.54" y2="298.73" gradientTransform="matrix(-1, 0, 0, 1, -1486.34, 0)" xlink:href="#linear-gradient-31"/><linearGradient id="linear-gradient-38" x1="257.98" y1="436.64" x2="307.75" y2="403.7" xlink:href="#linear-gradient-3"/><linearGradient id="linear-gradient-39" x1="-1940.79" y1="381.45" x2="-1940.79" y2="332.38" gradientTransform="matrix(-1, 0, 0, 1, -1486.34, 0)" xlink:href="#linear-gradient-4"/><linearGradient id="linear-gradient-40" x1="-1880.66" y1="381.45" x2="-1880.66" y2="332.38" gradientTransform="matrix(-1, 0, 0, 1, -1486.34, 0)" xlink:href="#linear-gradient-4"/><linearGradient id="linear-gradient-41" x1="-1927.41" y1="423.7" x2="-1927.41" y2="298.73" gradientTransform="matrix(-1, 0, 0, 1, -1486.34, 0)" xlink:href="#linear-gradient-31"/><linearGradient id="linear-gradient-42" x1="-1690.12" y1="423.7" x2="-1690.12" y2="298.73" gradientTransform="matrix(-1, 0, 0, 1, -1486.34, 0)" xlink:href="#linear-gradient-31"/><linearGradient id="linear-gradient-43" x1="-1629.99" y1="423.7" x2="-1629.99" y2="298.73" gradientTransform="matrix(-1, 0, 0, 1, -1486.34, 0)" xlink:href="#linear-gradient-31"/><linearGradient id="linear-gradient-44" x1="28.88" y1="519.92" x2="600.5" y2="519.92" xlink:href="#linear-gradient-7"/><linearGradient id="linear-gradient-45" x1="230.07" y1="292.35" x2="238.21" y2="295.18" xlink:href="#linear-gradient-3"/><linearGradient id="linear-gradient-46" x1="236.15" y1="314.51" x2="250.52" y2="319.5" xlink:href="#linear-gradient-7"/><linearGradient id="linear-gradient-47" x1="269.72" y1="439.58" x2="312.29" y2="411.4" xlink:href="#linear-gradient-4"/><linearGradient id="linear-gradient-48" x1="409.32" y1="263.93" x2="356.8" y2="378.04" gradientUnits="userSpaceOnUse"><stop offset="0" stop-color="#ffc063"/><stop offset="1" stop-color="#e58f0f"/></linearGradient><linearGradient id="linear-gradient-49" x1="222.58" y1="300.34" x2="237.87" y2="300.34" xlink:href="#linear-gradient-3"/><linearGradient id="linear-gradient-50" x1="230.53" y1="300.34" x2="245.82" y2="300.34" xlink:href="#linear-gradient-3"/><linearGradient id="linear-gradient-51" x1="238.33" y1="300.34" x2="253.61" y2="300.34" xlink:href="#linear-gradient-3"/><linearGradient id="linear-gradient-52" x1="234.18" y1="308" x2="249.46" y2="308" xlink:href="#linear-gradient-3"/><linearGradient id="linear-gradient-53" x1="242.13" y1="308" x2="257.41" y2="308" xlink:href="#linear-gradient-3"/><linearGradient id="linear-gradient-54" x1="249.92" y1="308" x2="265.21" y2="308" xlink:href="#linear-gradient-3"/><linearGradient id="linear-gradient-55" x1="245.05" y1="315.43" x2="260.34" y2="315.43" xlink:href="#linear-gradient-3"/><linearGradient id="linear-gradient-56" x1="253" y1="315.43" x2="268.29" y2="315.43" xlink:href="#linear-gradient-3"/><linearGradient id="linear-gradient-57" x1="260.8" y1="315.43" x2="276.08" y2="315.43" xlink:href="#linear-gradient-3"/><linearGradient id="linear-gradient-58" x1="360.38" y1="164.94" x2="377.89" y2="164.94" xlink:href="#linear-gradient-7"/><linearGradient id="linear-gradient-59" x1="366.52" y1="172.17" x2="376.13" y2="172.17" gradientUnits="userSpaceOnUse"><stop offset="0" stop-color="#f8a695"/><stop offset="1" stop-color="#e56045"/></linearGradient><linearGradient id="linear-gradient-60" x1="368.78" y1="175.3" x2="423.63" y2="175.3" xlink:href="#linear-gradient-59"/><linearGradient id="linear-gradient-61" x1="356.2" y1="166.11" x2="432.44" y2="166.11" xlink:href="#linear-gradient-7"/><linearGradient id="linear-gradient-62" x1="256.33" y1="290.52" x2="282.95" y2="290.75" xlink:href="#linear-gradient-59"/><linearGradient id="linear-gradient-63" x1="446.88" y1="289.77" x2="334.2" y2="317.46" gradientUnits="userSpaceOnUse"><stop offset="0" stop-color="#ffc063"/><stop offset="0.95" stop-color="#e44d0b"/></linearGradient><linearGradient id="linear-gradient-64" x1="340.38" y1="232.2" x2="287.86" y2="346.31" xlink:href="#linear-gradient-48"/><linearGradient id="linear-gradient-65" x1="174.46" y1="287.82" x2="156.1" y2="324.9" xlink:href="#linear-gradient-31"/><linearGradient id="linear-gradient-66" x1="188.67" y1="493.36" x2="162.24" y2="516.27" xlink:href="#linear-gradient-5"/><linearGradient id="linear-gradient-67" x1="388.32" y1="514.86" x2="404.4" y2="520.45" xlink:href="#linear-gradient-7"/><linearGradient id="linear-gradient-68" x1="-968.83" y1="514.86" x2="-952.74" y2="520.45" gradientTransform="matrix(-1, 0, 0, 1, -527.68, 0)" xlink:href="#linear-gradient-7"/><linearGradient id="linear-gradient-69" x1="-2872.11" y1="513.9" x2="-2857.89" y2="518.83" gradientTransform="matrix(-1, 0, 0, 1, -2415.13, 0)" xlink:href="#linear-gradient-7"/><linearGradient id="linear-gradient-70" x1="385.47" y1="476.35" x2="420.47" y2="445.12" xlink:href="#linear-gradient-7"/><linearGradient id="linear-gradient-71" x1="404.1" y1="420.21" x2="416.81" y2="408.88" xlink:href="#linear-gradient-7"/><linearGradient id="linear-gradient-72" x1="320.49" y1="513.03" x2="332.09" y2="494.73" xlink:href="#linear-gradient-4"/><linearGradient id="linear-gradient-73" x1="296.26" y1="468.86" x2="304.97" y2="455.12" xlink:href="#linear-gradient-7"/><linearGradient id="linear-gradient-74" x1="246.04" y1="48.82" x2="184.5" y2="99.92" xlink:href="#linear-gradient-5"/><linearGradient id="linear-gradient-75" x1="257.17" y1="62.22" x2="195.63" y2="113.32" xlink:href="#linear-gradient-5"/><linearGradient id="linear-gradient-76" x1="257.89" y1="63.09" x2="196.35" y2="114.19" xlink:href="#linear-gradient-5"/><linearGradient id="linear-gradient-77" x1="262.63" y1="68.8" x2="201.1" y2="119.9" xlink:href="#linear-gradient-5"/><linearGradient id="linear-gradient-78" x1="153.31" y1="101.55" x2="244.31" y2="101.55" xlink:href="#linear-gradient-3"/><linearGradient id="linear-gradient-79" x1="0" y1="171.54" x2="100.92" y2="171.54" xlink:href="#linear-gradient-3"/><linearGradient id="linear-gradient-80" x1="92.5" y1="123.99" x2="105.41" y2="123.99" xlink:href="#linear-gradient-7"/><linearGradient id="linear-gradient-81" x1="92.5" y1="130.62" x2="116.43" y2="130.62" xlink:href="#linear-gradient-7"/><linearGradient id="linear-gradient-82" x1="71.86" y1="175.38" x2="84.77" y2="175.38" xlink:href="#linear-gradient-7"/><linearGradient id="linear-gradient-83" x1="71.86" y1="182" x2="80.84" y2="182" xlink:href="#linear-gradient-7"/><linearGradient id="linear-gradient-84" x1="59.04" y1="144.67" x2="71.95" y2="144.67" xlink:href="#linear-gradient-7"/><linearGradient id="linear-gradient-85" x1="59.04" y1="151.3" x2="73.97" y2="151.3" xlink:href="#linear-gradient-7"/><linearGradient id="linear-gradient-86" x1="48.76" y1="206.98" x2="61.67" y2="206.98" xlink:href="#linear-gradient-7"/><linearGradient id="linear-gradient-87" x1="48.76" y1="213.6" x2="70.63" y2="213.6" xlink:href="#linear-gradient-7"/><linearGradient id="linear-gradient-88" x1="24.31" y1="172.06" x2="42.56" y2="172.06" xlink:href="#linear-gradient-7"/><linearGradient id="linear-gradient-89" x1="24.31" y1="178.69" x2="33.59" y2="178.69" xlink:href="#linear-gradient-7"/><linearGradient id="linear-gradient-90" x1="-133.98" y1="654.1" x2="-130.4" y2="624.02" gradientTransform="translate(-70.55 -369.08) rotate(-23.11)" xlink:href="#linear-gradient-5"/></defs><title>Asset 2</title><g id="Layer_2" data-name="Layer 2"><g id="Layer_1-2" data-name="Layer 1"><g id="_2" data-name="2"><path class="cls-1" d="M286.37,28.35a19.36,19.36,0,0,1,3.51,34.21c-15.83,10.58-41.38,26-62.32,31-32.92,7.88-87.45,16.21-102.56,10.79s-27.63-37.29,8.11-67,128.22-19,152.54-9.31Z"/><path class="cls-2" d="M143.46,121.36c127.56.75,205.3-96.78,266-115.54,91.15-28.18,211.39,44.74,133.85,246.45S425.56,505.3,285.9,522.51C174.15,536.28,75.74,457.35,36.53,394.36-24.81,295.82,15.9,120.61,143.46,121.36Z"/><path class="cls-3" d="M88.72,204.28s14.32,31,38.41,25.61,21.23-13.33,14.06-20.11-32.67,18.67-23.7,39.67c9.27,21.7,72.82,37.1,72.82,37.1"/><rect class="cls-4" x="325.05" y="234.82" width="24.35" height="88.83"/><rect class="cls-5" x="274.56" y="234.82" width="50.49" height="88.83"/><ellipse class="cls-6" cx="337.23" cy="249.45" rx="7.64" ry="8.63"/><rect class="cls-7" x="329.59" y="265.51" width="15.28" height="50.8"/><rect class="cls-8" x="296.76" y="234.82" width="24.35" height="88.83"/><rect class="cls-9" x="246.27" y="234.82" width="50.49" height="88.83"/><ellipse class="cls-6" cx="308.94" cy="249.45" rx="7.64" ry="8.63"/><rect class="cls-7" x="301.3" y="265.51" width="15.28" height="50.8"/><path class="cls-10" d="M327.34,491.55l3.4,23.39H272.56s-.36-3.7,4.66-6.74,24.44-6.27,24.44-6.27l4-7.52Z"/><path class="cls-11" d="M344.59,352s-52,6.68-58.25,8.12-10.5,8.12-7.16,21S302.1,496.62,302.1,496.62s1.19,4.3,13,2.86,14.21-4.77,14.21-4.77l-7.16-104.08,72.48-14.55Z"/><path class="cls-12" d="M344.59,352s-52,6.68-58.25,8.12-10.5,8.12-7.16,21c.93,3.58,3.11,14.09,5.78,27.4,10.71.53,22.54-3.55,24.76-1.26,3.48,3.58-.26,7.65,0,20.66.19,9.76,9.81,50.1,14.6,69.63,4-1.38,5-2.8,5-2.8l-7.16-104.08,72.48-14.55Z"/><path class="cls-13" d="M514.64,335c-9.07,34.38-4.92,68.19,8.86,92.88,24.17-14.67,44.45-42,53.52-76.42s4.92-68.19-8.86-92.88C544,273.25,523.71,300.62,514.64,335Z"/><path class="cls-14" d="M550.72,333.62a415.74,415.74,0,0,0-14.07,48.83c-6.55,28.81-4.9,63.09-4.9,63.09"/><path class="cls-14" d="M512.51,323.72s3.93,33.06,8.79,58.54,8.14,59.14,8.14,59.14"/><path class="cls-14" d="M504.62,379.23s7.89,21.53,13.65,35.49S529.44,443,529.44,443"/><path class="cls-15" d="M537.76,202.78c-4.12,30.13-.55,57.92,8.34,76.7,13.6-15.71,24.5-41.52,28.62-71.65s.55-57.92-8.34-76.7C552.77,146.84,541.87,172.66,537.76,202.78Z"/><path class="cls-16" d="M509.81,251.1c1.24-27.58,3.08-77.36,4.13-106.38-19.14,23.69-31.41,60-31.41,100.74,0,40.28,12,76.19,30.76,99.9C511.2,317.53,508.68,276.21,509.81,251.1Z"/><path class="cls-17" d="M547,245.46c0-41.34-12.62-78.12-32.23-101.78-.28.33-.54.7-.81,1-1.05,29-2.89,78.8-4.13,106.38-1.13,25.11,1.39,66.43,3.47,94.26.49.62,1,1.27,1.47,1.88C534.36,323.57,547,286.79,547,245.46Z"/><path class="cls-18" d="M547.19,273.69c-7.43,24.78-6.47,49.1,1,66.81,16-10.66,30.18-30.45,37.61-55.23s6.47-49.1-1-66.81C568.8,229.12,554.62,248.9,547.19,273.69Z"/><polygon class="cls-19" points="565.11 514.94 494.15 514.94 483.62 422.99 575.64 422.99 565.11 514.94"/><polygon class="cls-20" points="483.62 422.99 494.15 514.94 521.3 514.94 513.44 422.99 483.62 422.99"/><rect class="cls-21" x="480.02" y="420.36" width="99.21" height="22.66"/><ellipse class="cls-22" cx="516.16" cy="257.62" rx="3.65" ry="6.52"/><ellipse class="cls-23" cx="524.6" cy="264.82" rx="6.52" ry="3.65" transform="translate(-33.6 448.51) rotate(-45)"/><ellipse class="cls-24" cx="523.42" cy="299.42" rx="8.94" ry="5.01" transform="translate(-58.42 457.81) rotate(-45)"/><ellipse class="cls-25" cx="521.36" cy="317.27" rx="8.94" ry="5.01" transform="translate(13.65 655.95) rotate(-65.03)"/><path class="cls-26" d="M461.35,336.5c11.32,28.56,30.11,50.52,50.14,61.5-27.74-31.34-55.75-140.65-55.75-140.65C448.67,279.07,450,307.94,461.35,336.5Z"/><path class="cls-27" d="M505.89,318.85c-11.32-28.56-30.11-50.52-50.14-61.5,0,0,28,109.32,55.75,140.65C518.56,376.28,517.21,347.41,505.89,318.85Z"/><path class="cls-28" d="M505.89,318.85c-11.32-28.56-30.11-50.52-50.14-61.5,0,0,28,109.32,55.75,140.65C518.56,376.28,517.21,347.41,505.89,318.85Z"/><ellipse class="cls-29" cx="486.47" cy="339.68" rx="2.82" ry="5.03" transform="translate(-93.47 214.34) rotate(-22.73)"/><ellipse class="cls-30" cx="504.62" cy="342.59" rx="2.82" ry="5.03" transform="translate(-93.18 221.59) rotate(-22.73)"/><ellipse class="cls-31" cx="494.62" cy="342.29" rx="5.03" ry="2.82" transform="translate(-9.59 670.29) rotate(-67.73)"/><ellipse class="cls-32" cx="496.1" cy="352.01" rx="5.03" ry="2.82" transform="translate(-17.66 677.7) rotate(-67.73)"/><ellipse class="cls-33" cx="504.08" cy="367.26" rx="6.9" ry="3.87" transform="translate(-26.82 694.56) rotate(-67.73)"/><ellipse class="cls-34" cx="507.94" cy="380.57" rx="6.9" ry="3.87" transform="translate(107.79 873.24) rotate(-87.76)"/><path class="cls-35" d="M250.89,492.2l-4.83,22.74H187.87s-.36-3.7,4.66-6.74,33.18-8.42,33.18-8.42l9.07-2.08Z"/><path class="cls-36" d="M116.09,513.83c-13.76-2.35-30.53-7.77-36.36-9.73H62.09c6.5,2.19,26.63,8.68,41,10.41a34.9,34.9,0,0,0,10.91,0h6.73C119.23,514.33,117.68,514.1,116.09,513.83Z"/><path class="cls-37" d="M194.27,237.81a12.38,12.38,0,0,0-4.39,0H176.63a17.09,17.09,0,0,1,6.78,3c13.77,9.69,23.8,38.26,25.24,42.52h17.64C224.62,278.4,211.43,240.88,194.27,237.81Z"/><path class="cls-38" d="M141.66,489.6c-5.44-10.15-40.24-9.79-68.15-22.11s-37-49.3-18.49-70.42,59.09-18.51,76.82-30.83c17.28-12,29.93-108.17,51.58-125.41a17.09,17.09,0,0,0-6.78-3h-4.21a16.39,16.39,0,0,0-4.91,1.79c-22.72,13.29-35.58,114.3-53.31,126.63s-58.33,9.7-76.82,30.83S28,455.16,55.87,467.49s62.71,12,68.15,22.11,1.82,19.27-9.49,24.23c1.2.21,2.38.39,3.53.54H130.7a9.11,9.11,0,0,0,1.15-.39C143.41,509.06,147.09,499.75,141.66,489.6Z"/><polygon class="cls-39" points="79.18 514.65 67.01 514.65 114.6 337.05 126.77 337.05 79.18 514.65"/><polygon class="cls-40" points="174.73 514.65 186.9 514.65 139.31 337.05 127.14 337.05 174.73 514.65"/><rect class="cls-41" x="67.01" y="322.72" width="464.07" height="14.32" transform="translate(598.09 659.77) rotate(-180)"/><rect class="cls-42" x="66.6" y="322.72" width="85.39" height="14.32" transform="translate(218.6 659.77) rotate(-180)"/><rect class="cls-43" x="67.01" y="332.39" width="464.07" height="4.66" transform="translate(598.09 669.44) rotate(-180)"/><rect class="cls-6" x="67.01" y="332.39" width="84.99" height="4.66" transform="translate(219 669.44) rotate(-180)"/><polygon class="cls-44" points="518.91 514.65 531.08 514.65 483.49 337.05 471.32 337.05 518.91 514.65"/><path class="cls-45" d="M338.27,355.3s-69.83,6-79.14,19.58c-5.62,8.22-32.43,124.73-32.43,124.73s.56,2.9,9.87,4.49,13.06,0,13.06,0,29.62-92.58,32.81-97.6,28.81-10.82,44.4-9.38,49.17,3.29,64-4.59,22.6-25.78,22.6-25.78Z"/><polygon class="cls-46" points="472.15 514.65 484.33 514.65 436.74 337.05 424.56 337.05 472.15 514.65"/><polygon class="cls-47" points="376.61 514.65 364.44 514.65 412.02 337.05 424.2 337.05 376.61 514.65"/><polygon class="cls-48" points="423.36 514.65 411.19 514.65 458.78 337.05 470.95 337.05 423.36 514.65"/><polygon class="cls-49" points="221.48 514.65 233.66 514.65 186.07 337.05 173.89 337.05 221.48 514.65"/><polygon class="cls-50" points="125.94 514.65 113.76 514.65 161.35 337.05 173.53 337.05 125.94 514.65"/><polygon class="cls-51" points="600.5 525.21 28.88 525.21 68.11 514.64 564.31 514.64 600.5 525.21"/><polygon class="cls-7" points="216.83 295.5 242.35 295.5 282.44 322.72 256.91 322.72 216.83 295.5"/><path class="cls-52" d="M206.66,282.78h26.82a8.87,8.87,0,0,1,8.87,8.87v3.84a0,0,0,0,1,0,0H206.66a0,0,0,0,1,0,0V282.78a0,0,0,0,1,0,0Z"/><path class="cls-53" d="M216.83,295.5c0-7-4.55-12.71-10.16-12.71s-10.16,5.69-10.16,12.71v27.23h60.41Z"/><path class="cls-54" d="M327.18,397.12c15.6,1.44,49.17,3.29,64-4.59A45.52,45.52,0,0,0,404,381.86l-41.88-23-11.22-1.71c-1.6,4.65-4.74,12.57-9.06,17.7-6.45,7.64-41,4.06-48.3,11s-24.29.48-28,5.25,7.64,10.5,7.34,16.71-12.95,12.42-17,23.87S250,504.1,250,504.1s29.62-92.58,32.81-97.6S311.58,395.68,327.18,397.12Z"/><path class="cls-55" d="M387.41,216.55s-34.32,8.77-42.12,14.85S348,299.09,348,309.11s-12.48,47.26-12.48,47.26,31.22,20.79,59.09,19.7,47-9.68,47-9.68-7.1-130-10.35-139.29a16.73,16.73,0,0,0-15.84-11.66Z"/><polygon class="cls-56" points="222.58 297.17 228.53 297.17 237.87 303.51 231.92 303.51 222.58 297.17"/><polygon class="cls-57" points="230.53 297.17 236.48 297.17 245.82 303.51 239.87 303.51 230.53 297.17"/><polygon class="cls-58" points="238.33 297.17 244.28 297.17 253.62 303.51 247.67 303.51 238.33 297.17"/><polygon class="cls-59" points="234.18 304.82 240.13 304.82 249.47 311.17 243.52 311.17 234.18 304.82"/><polygon class="cls-60" points="242.13 304.82 248.07 304.82 257.42 311.17 251.47 311.17 242.13 304.82"/><polygon class="cls-61" points="249.92 304.82 255.87 304.82 265.21 311.17 259.26 311.17 249.92 304.82"/><polygon class="cls-62" points="245.05 312.26 251 312.26 260.34 318.6 254.39 318.6 245.05 312.26"/><polygon class="cls-63" points="253 312.26 258.95 312.26 268.29 318.6 262.34 318.6 253 312.26"/><polygon class="cls-64" points="260.8 312.26 266.74 312.26 276.08 318.6 270.14 318.6 260.8 312.26"/><path class="cls-65" d="M369.13,154.35c-4.84,0-8.75,4.74-8.75,10.58s3.92,10.59,8.75,10.59,8.75-4.74,8.75-10.59S374,154.35,369.13,154.35Zm0,19.35c-4,0-7.25-3.93-7.25-8.77s3.25-8.77,7.25-8.77,7.25,3.93,7.25,8.77S373.14,173.71,369.13,173.71Z"/><path class="cls-66" d="M369.45,161.68l-2.93,18.65s5.49,2.92,7.55,2.23l2.06-.69Z"/><path class="cls-67" d="M373.87,139.65l-5.09,16.48s2.91,23.34,2.55,26.09-1.09,8.93,0,13,3.27,4.12,10.55,6.87,5.82,14.42,5.82,14.42L399,219.06a16.51,16.51,0,0,0,19.77-12.83c2.76-13.57,5.83-32.51,4.55-44.61-2.18-20.6-11.64-28.15-22.55-30.21S373.87,139.65,373.87,139.65Z"/><path class="cls-68" d="M370.38,146.26c5.92,1.8,7.75.64,11.44,4s2.73,23.61,2.73,23.61,4-11.36,8.07-11.88,5.32,8,4.55,10.81-9.78,7.47-9.78,7.47a49,49,0,0,0,1.54,12.62c1.8,7.47,3.6,10.56,9.53,13.65s21.37,5.92,25.49,1.8,9.78-31.41,8.24-47.12-1-24.72-12.62-31.15-22.91-10.56-36.3-6.69-27.06,2.06-27.06,2.06S364.46,144.45,370.38,146.26Z"/><path class="cls-69" d="M277.15,280.81s-10.62-3.1-17.55-.6-14.68,17.19-14.32,19.22,1.67,2.63,2.86,2.27,6-9,6-9-.6,1,1.19,2.75,4.18,2.51,7.52,1.67,5.13-6.09,5.13-6.09l4.89-.56Z"/><path class="cls-70" d="M414.36,357.8s-43.15-9.67-43-15,7.4-13.07,2.93-21.66-9.67-9.31-10-22.56,10.06-34.79,5.4-50.91a141.21,141.21,0,0,0-5.4-14.18l-21.55,22C343.84,276,348,302.79,348,309.11c0,10-12.48,47.26-12.48,47.26s31.22,20.79,59.09,19.7a149,149,0,0,0,37.9-6.41Z"/><path class="cls-71" d="M348.41,229.49s-3.34.3-7.81,9.43-16,57.59-16,57.59L276.5,279s-4.83,3.22-6.27,8.59L268.8,293s42.55,27.32,54.19,29.12,21.72-3.52,28.89-17.67,20.56-48.88,17.26-59.8-5.69-13.73-11.71-15.16S348.41,229.49,348.41,229.49Z"/><path class="cls-72" d="M132.92,322.92s22.47,1.45,33.24-4.86,3-22.57,3-22.57h15.41s7.76,16.25-3,22.57-33.24,4.86-33.24,4.86Z"/><path class="cls-73" d="M208.19,514.7s-23.82,1.54-35.23-5.15-3.18-23.92-3.18-23.92H153.45s-8.23,17.23,3.18,23.92,35.23,5.15,35.23,5.15Z"/><polygon class="cls-74" points="408.73 505.71 335.53 514.86 414.74 514.86 414.74 505.71 408.73 505.71"/><polygon class="cls-75" points="420.73 505.71 493.94 514.86 414.73 514.86 414.73 505.71 420.73 505.71"/><line class="cls-76" x1="430.78" y1="505.71" x2="503.98" y2="514.86"/><rect class="cls-77" x="408.73" y="394.79" width="11.99" height="110.92"/><rect class="cls-78" x="403.73" y="400.49" width="22" height="20.49"/><path class="cls-79" d="M515.42,253.43l0-.58H408.92c-2.59,0-4.7,2.52-4.71,5.66h0v.18a397.15,397.15,0,0,1-2.85,41.54,263.2,263.2,0,0,1-6,32.95c-2.74,10.7-6.35,20.54-10.83,27.86A66,66,0,0,1,365,381.43c-7.89,5.22-16.78,8.37-25.69,8.37a37.1,37.1,0,0,1-17.41-4.33c-2.38-1.25-5.14.08-6.17,3s.06,6.23,2.44,7.47a45.22,45.22,0,0,0,18.76,5.2l.14.07H443.75c10.74,0,21.1-3.76,30.18-9.76a76.1,76.1,0,0,0,22.64-23.63A98.28,98.28,0,0,0,505.46,348l1.6-5.1c.72-2.44,1.41-4.91,2-7.42,4.47-17.82,6.68-36.94,7.82-51.68s1.16-25.09,1.16-25.21A5.86,5.86,0,0,0,515.42,253.43Z"/><path class="cls-80" d="M404.21,258.51v.18a397.16,397.16,0,0,1-2.85,41.54,263.19,263.19,0,0,1-6,32.95c-2.74,10.7-6.35,20.54-10.83,27.86A66,66,0,0,1,365,381.43c-7.89,5.22-16.78,8.37-25.69,8.37a37.1,37.1,0,0,1-17.41-4.33c-2.38-1.25-5.14.08-6.17,3s.06,6.23,2.44,7.47a45.12,45.12,0,0,0,21.14,5.27c10.74,0,21.1-3.76,30.18-9.76a76.1,76.1,0,0,0,22.64-23.63c5.56-9.14,9.53-20.46,12.52-32.34,4.47-17.82,6.68-36.94,7.82-51.68s1.16-25.09,1.16-25.21c0-3.14-2.08-5.69-4.67-5.7s-4.7,2.52-4.71,5.66Z"/><rect class="cls-81" x="166.29" y="87.49" width="11.94" height="45.18"/><rect class="cls-82" x="184.35" y="102.79" width="11.94" height="29.89"/><rect class="cls-83" x="202.26" y="75.98" width="11.94" height="56.69"/><rect class="cls-84" x="220.17" y="65.54" width="11.94" height="67.14"/><polyline class="cls-85" points="153.81 57.97 153.81 145.13 243.81 145.13"/><polyline class="cls-86" points="0.5 203.32 24.16 188.08 48.62 197.09 59.18 160.72 71.72 166.17 92.19 140.41 100.42 180.3"/><ellipse class="cls-21" cx="92.5" cy="141.45" rx="3.77" ry="4.21"/><ellipse class="cls-21" cx="71.86" cy="165.8" rx="3.77" ry="4.21"/><ellipse class="cls-21" cx="59.04" cy="160.52" rx="3.77" ry="4.21"/><ellipse class="cls-21" cx="48.76" cy="196.95" rx="3.77" ry="4.21"/><ellipse class="cls-21" cx="24.31" cy="188.09" rx="3.77" ry="4.21"/><rect class="cls-87" x="92.5" y="122.11" width="12.91" height="3.76"/><rect class="cls-88" x="92.5" y="128.74" width="23.93" height="3.76"/><rect class="cls-89" x="71.86" y="173.5" width="12.91" height="3.76"/><rect class="cls-90" x="71.86" y="180.12" width="8.97" height="3.76"/><rect class="cls-91" x="59.04" y="142.79" width="12.91" height="3.76"/><rect class="cls-92" x="59.04" y="149.42" width="14.93" height="3.76"/><rect class="cls-93" x="48.76" y="205.1" width="12.91" height="3.76"/><rect class="cls-94" x="48.76" y="211.72" width="21.87" height="3.76"/><rect class="cls-95" x="24.31" y="170.18" width="18.25" height="3.76"/><rect class="cls-96" x="24.31" y="176.81" width="9.28" height="3.76"/><path class="cls-3" d="M202.26,153.18S274,166.44,278,183.88s-66.12,8.55-79.21,19.44,30.63,32,33.3,47.78-1.58,24.56-1.58,24.56"/><path class="cls-97" d="M82,291.39s-20.54-9.78-22.57-23,10.45-23.69,10.45-23.69L52,252.28S39.56,262.71,41.58,276s22.57,23,22.57,23Z"/><ellipse class="cls-21" cx="116.03" cy="242.78" rx="3.4" ry="3.67"/><ellipse class="cls-21" cx="236.34" cy="196.95" rx="3.4" ry="3.67"/></g></g></g></svg>