<svg xmlns="http://www.w3.org/2000/svg" xmlns:xlink="http://www.w3.org/1999/xlink" viewBox="0 0 600 506.48"><defs><style>.cls-1,.cls-2{opacity:0.49;}.cls-1{fill:url(#linear-gradient);}.cls-2{fill:url(#linear-gradient-2);}.cls-3{fill:#223762;}.cls-4{fill:url(#linear-gradient-3);}.cls-5{fill:url(#linear-gradient-4);}.cls-6{fill:url(#linear-gradient-5);}.cls-7{fill:url(#linear-gradient-6);}.cls-8{fill:url(#linear-gradient-7);}.cls-9{fill:url(#linear-gradient-8);}.cls-10{fill:#fff;}.cls-11{fill:url(#linear-gradient-9);}.cls-12{fill:url(#linear-gradient-10);}.cls-13{fill:url(#linear-gradient-11);}.cls-14{fill:url(#linear-gradient-12);}.cls-15{fill:url(#linear-gradient-13);}.cls-16{fill:url(#linear-gradient-14);}.cls-17{fill:url(#linear-gradient-15);}.cls-18{fill:url(#linear-gradient-16);}.cls-19{fill:url(#linear-gradient-17);}.cls-20{fill:url(#linear-gradient-18);}.cls-21{fill:url(#linear-gradient-19);}.cls-22{fill:url(#linear-gradient-20);}.cls-23{fill:url(#linear-gradient-21);}.cls-24{fill:url(#linear-gradient-22);}.cls-25{fill:url(#linear-gradient-23);}.cls-26{fill:url(#linear-gradient-24);}.cls-27{fill:url(#linear-gradient-25);}.cls-28{fill:url(#linear-gradient-26);}.cls-29{fill:url(#linear-gradient-27);}.cls-30{fill:url(#linear-gradient-28);}.cls-31{fill:url(#linear-gradient-29);}.cls-32{fill:#d6e3fa;}.cls-33{fill:url(#linear-gradient-30);}.cls-34{fill:url(#linear-gradient-31);}.cls-35{fill:url(#linear-gradient-32);}.cls-36{fill:url(#linear-gradient-33);}.cls-37{fill:url(#linear-gradient-34);}.cls-38{fill:url(#linear-gradient-35);}.cls-39{fill:url(#linear-gradient-36);}.cls-40{fill:url(#linear-gradient-37);}.cls-41{fill:url(#linear-gradient-38);}.cls-42{fill:url(#linear-gradient-39);}.cls-43{fill:url(#linear-gradient-40);}.cls-44{fill:url(#linear-gradient-41);}.cls-45{fill:url(#linear-gradient-42);}.cls-46{fill:url(#linear-gradient-43);}.cls-47{fill:#ffd46a;}.cls-48{fill:url(#linear-gradient-44);}.cls-49{fill:url(#linear-gradient-45);}.cls-50{fill:url(#linear-gradient-46);}.cls-51{fill:url(#linear-gradient-47);}.cls-52{fill:url(#linear-gradient-48);}.cls-53{fill:url(#linear-gradient-49);}.cls-54{fill:url(#linear-gradient-50);}.cls-55{fill:url(#linear-gradient-51);}.cls-56{fill:url(#linear-gradient-52);}.cls-57{fill:url(#linear-gradient-53);}.cls-58{fill:url(#linear-gradient-54);}.cls-59{opacity:0.45;fill:url(#linear-gradient-55);}.cls-60{fill:url(#linear-gradient-56);}.cls-61,.cls-81{fill:none;stroke-linecap:round;stroke-linejoin:round;}.cls-61{stroke:#124;}.cls-62{fill:url(#linear-gradient-57);}.cls-63{fill:url(#linear-gradient-58);}.cls-64{fill:url(#linear-gradient-59);}.cls-65{fill:url(#linear-gradient-60);}.cls-66{fill:url(#linear-gradient-61);}.cls-67{fill:url(#linear-gradient-62);}.cls-68{fill:url(#linear-gradient-63);}.cls-69{fill:url(#linear-gradient-64);}.cls-70{fill:url(#linear-gradient-65);}.cls-71{fill:url(#linear-gradient-66);}.cls-72{fill:url(#linear-gradient-67);}.cls-73{fill:url(#linear-gradient-68);}.cls-74{fill:url(#linear-gradient-69);}.cls-75{fill:url(#linear-gradient-70);}.cls-76{fill:url(#linear-gradient-71);}.cls-77{fill:url(#linear-gradient-72);}.cls-78{fill:url(#linear-gradient-73);}.cls-79{fill:url(#linear-gradient-74);}.cls-80{fill:url(#linear-gradient-75);}.cls-81{stroke:#eb6057;}.cls-82{fill:#ef8c48;opacity:0.48;}.cls-83{fill:url(#linear-gradient-76);}.cls-84{fill:url(#linear-gradient-77);}</style><linearGradient id="linear-gradient" x1="280.51" y1="72.02" x2="316.59" y2="294.04" gradientUnits="userSpaceOnUse"><stop offset="0" stop-color="#eaf1fc"/><stop offset="1" stop-color="#c0d4f4"/></linearGradient><linearGradient id="linear-gradient-2" x1="122.64" y1="142.35" x2="158.72" y2="364.37" gradientTransform="translate(57.83 -45.04) rotate(-5.06)" xlink:href="#linear-gradient"/><linearGradient id="linear-gradient-3" x1="169.82" y1="356.86" x2="174.33" y2="360.67" gradientUnits="userSpaceOnUse"><stop offset="0" stop-color="#223762"/><stop offset="1" stop-color="#041b48"/></linearGradient><linearGradient id="linear-gradient-4" x1="399.26" y1="289.08" x2="378.53" y2="367.64" gradientUnits="userSpaceOnUse"><stop offset="0" stop-color="#3769a5"/><stop offset="1" stop-color="#08448b"/></linearGradient><linearGradient id="linear-gradient-5" x1="266.94" y1="381.71" x2="245.38" y2="463.44" xlink:href="#linear-gradient-3"/><linearGradient id="linear-gradient-6" x1="755.86" y1="716.43" x2="221.32" y2="162.98" xlink:href="#linear-gradient-3"/><linearGradient id="linear-gradient-7" x1="321.86" y1="292.75" x2="309.02" y2="291.54" gradientUnits="userSpaceOnUse"><stop offset="0" stop-color="#ffc063"/><stop offset="0.95" stop-color="#e44d0b"/></linearGradient><linearGradient id="linear-gradient-8" x1="361.1" y1="263.87" x2="299.86" y2="375.22" xlink:href="#linear-gradient-7"/><linearGradient id="linear-gradient-9" x1="331.94" y1="216.04" x2="329.97" y2="203.28" gradientUnits="userSpaceOnUse"><stop offset="0" stop-color="#f8a695"/><stop offset="1" stop-color="#e56045"/></linearGradient><linearGradient id="linear-gradient-10" x1="205.77" y1="279.56" x2="188.52" y2="267.43" gradientTransform="matrix(0.99, -0.15, 0.15, 0.99, 93.96, -61.47)" xlink:href="#linear-gradient-3"/><linearGradient id="linear-gradient-11" x1="86.03" y1="431.71" x2="109.62" y2="431.71" xlink:href="#linear-gradient-3"/><linearGradient id="linear-gradient-12" x1="100.84" y1="426.41" x2="119.31" y2="429.01" xlink:href="#linear-gradient-3"/><linearGradient id="linear-gradient-13" x1="194.71" y1="274.53" x2="194.99" y2="253.71" gradientTransform="matrix(0.99, -0.15, 0.15, 0.99, 93.96, -61.47)" xlink:href="#linear-gradient-9"/><linearGradient id="linear-gradient-14" x1="189.76" y1="289.79" x2="211.2" y2="213.28" gradientTransform="matrix(0.99, -0.15, 0.15, 0.99, 93.96, -61.47)" xlink:href="#linear-gradient-3"/><linearGradient id="linear-gradient-15" x1="306.17" y1="398.41" x2="167.67" y2="417.07" xlink:href="#linear-gradient-3"/><linearGradient id="linear-gradient-16" x1="160" y1="429.99" x2="174.23" y2="432.07" xlink:href="#linear-gradient-3"/><linearGradient id="linear-gradient-17" x1="206.81" y1="276.22" x2="207.12" y2="253.69" gradientTransform="matrix(0.99, -0.15, 0.15, 0.99, 93.96, -61.47)" xlink:href="#linear-gradient-9"/><linearGradient id="linear-gradient-18" x1="352" y1="246.33" x2="338.47" y2="357.42" xlink:href="#linear-gradient-7"/><linearGradient id="linear-gradient-19" x1="234.7" y1="429.69" x2="317.87" y2="446.22" xlink:href="#linear-gradient-3"/><linearGradient id="linear-gradient-20" x1="222.08" y1="411.68" x2="260.39" y2="419.3" xlink:href="#linear-gradient-4"/><linearGradient id="linear-gradient-21" x1="228.68" y1="411.52" x2="311.3" y2="427.95" gradientUnits="userSpaceOnUse"><stop offset="0" stop-color="#4c93f4"/><stop offset="1" stop-color="#0b63da"/></linearGradient><linearGradient id="linear-gradient-22" x1="385.75" y1="374.55" x2="275.43" y2="260.33" xlink:href="#linear-gradient-7"/><linearGradient id="linear-gradient-23" x1="240.63" y1="419.69" x2="312.66" y2="434.01" xlink:href="#linear-gradient-4"/><linearGradient id="linear-gradient-24" x1="426" y1="380.74" x2="404.78" y2="461.17" xlink:href="#linear-gradient-4"/><linearGradient id="linear-gradient-25" x1="358.68" y1="385.1" x2="340.2" y2="455.1" xlink:href="#linear-gradient-21"/><linearGradient id="linear-gradient-26" x1="-1443.43" y1="498.8" x2="-870" y2="498.8" gradientTransform="matrix(-1, 0, 0, 1, -870, 0)" xlink:href="#linear-gradient-3"/><linearGradient id="linear-gradient-27" x1="305.62" y1="349.41" x2="311.73" y2="345.83" xlink:href="#linear-gradient-9"/><linearGradient id="linear-gradient-28" x1="372.94" y1="270.78" x2="311.88" y2="381.79" xlink:href="#linear-gradient-7"/><linearGradient id="linear-gradient-29" x1="98.49" y1="290.07" x2="42.45" y2="387.74" gradientTransform="matrix(1, 0, 0.18, 1, 99.85, 0)" xlink:href="#linear-gradient-21"/><linearGradient id="linear-gradient-30" x1="126.01" y1="355.5" x2="148.12" y2="342.55" xlink:href="#linear-gradient-21"/><linearGradient id="linear-gradient-31" x1="64.86" y1="425.32" x2="76.94" y2="418.24" xlink:href="#linear-gradient-4"/><linearGradient id="linear-gradient-32" x1="170.19" y1="425.32" x2="182.27" y2="418.24" xlink:href="#linear-gradient-4"/><linearGradient id="linear-gradient-33" x1="120.92" y1="423.33" x2="136.78" y2="414.04" xlink:href="#linear-gradient-21"/><linearGradient id="linear-gradient-34" x1="92" y1="205.59" x2="68.28" y2="262.35" xlink:href="#linear-gradient-3"/><linearGradient id="linear-gradient-35" x1="89.84" y1="204.69" x2="66.13" y2="261.45" xlink:href="#linear-gradient-3"/><linearGradient id="linear-gradient-36" x1="118.03" y1="216.47" x2="94.31" y2="273.23" xlink:href="#linear-gradient-3"/><linearGradient id="linear-gradient-37" x1="130.03" y1="221.49" x2="106.31" y2="278.25" xlink:href="#linear-gradient-3"/><linearGradient id="linear-gradient-38" x1="114.64" y1="229.1" x2="76.8" y2="301.95" xlink:href="#linear-gradient-21"/><linearGradient id="linear-gradient-39" x1="145.03" y1="216.16" x2="71.33" y2="290.5" xlink:href="#linear-gradient-4"/><linearGradient id="linear-gradient-40" x1="109.27" y1="226.31" x2="71.43" y2="299.16" xlink:href="#linear-gradient-21"/><linearGradient id="linear-gradient-41" x1="144.12" y1="215.25" x2="70.42" y2="289.59" xlink:href="#linear-gradient-4"/><linearGradient id="linear-gradient-42" x1="122.46" y1="306.58" x2="78.98" y2="346.11" gradientUnits="userSpaceOnUse"><stop offset="0" stop-color="#ff9f5b"/><stop offset="1" stop-color="#e5670e"/></linearGradient><linearGradient id="linear-gradient-43" x1="116.07" y1="299.55" x2="72.59" y2="339.08" xlink:href="#linear-gradient-42"/><linearGradient id="linear-gradient-44" x1="58.08" y1="399.68" x2="64.8" y2="400.63" xlink:href="#linear-gradient-21"/><linearGradient id="linear-gradient-45" x1="69.11" y1="399.68" x2="75.84" y2="400.63" xlink:href="#linear-gradient-4"/><linearGradient id="linear-gradient-46" x1="94.08" y1="401.61" x2="100.58" y2="401.61" xlink:href="#linear-gradient-4"/><linearGradient id="linear-gradient-47" x1="58.99" y1="464.58" x2="64.4" y2="465.35" xlink:href="#linear-gradient-21"/><linearGradient id="linear-gradient-48" x1="66.5" y1="464.58" x2="71.91" y2="465.35" xlink:href="#linear-gradient-4"/><linearGradient id="linear-gradient-49" x1="85.19" y1="466.14" x2="89.62" y2="466.14" xlink:href="#linear-gradient-4"/><linearGradient id="linear-gradient-50" x1="107.74" y1="399.84" x2="145.5" y2="399.84" xlink:href="#linear-gradient-21"/><linearGradient id="linear-gradient-51" x1="107.52" y1="425.43" x2="145.5" y2="425.43" xlink:href="#linear-gradient-3"/><linearGradient id="linear-gradient-52" x1="142.04" y1="332.62" x2="119.02" y2="355.53" xlink:href="#linear-gradient-3"/><linearGradient id="linear-gradient-53" x1="208.6" y1="256.67" x2="222.65" y2="250.68" xlink:href="#linear-gradient-7"/><linearGradient id="linear-gradient-54" x1="228.36" y1="226.75" x2="214.96" y2="292.45" xlink:href="#linear-gradient-7"/><linearGradient id="linear-gradient-55" x1="713.49" y1="-233.64" x2="662.29" y2="-98.1" xlink:href="#linear-gradient-3"/><linearGradient id="linear-gradient-56" x1="429.63" y1="172.42" x2="496.24" y2="172.42" gradientTransform="matrix(1.15, 0.16, -0.1, 1, -5.99, 48.55)" xlink:href="#linear-gradient-3"/><linearGradient id="linear-gradient-57" x1="569.99" y1="-59.08" x2="514.32" y2="55.4" gradientTransform="matrix(1, -0.04, -0.04, 1.27, -20.9, 152.92)" xlink:href="#linear-gradient-3"/><linearGradient id="linear-gradient-58" x1="437.25" y1="182.32" x2="473.18" y2="182.32" xlink:href="#linear-gradient-4"/><linearGradient id="linear-gradient-59" x1="506.67" y1="71.2" x2="441.1" y2="368.85" xlink:href="#linear-gradient-21"/><linearGradient id="linear-gradient-60" x1="459.65" y1="248.01" x2="384.19" y2="378.09" gradientTransform="translate(78.19 -43.92) rotate(-7.69)" xlink:href="#linear-gradient-4"/><linearGradient id="linear-gradient-61" x1="583.51" y1="394.55" x2="441.98" y2="457.68" xlink:href="#linear-gradient-42"/><linearGradient id="linear-gradient-62" x1="573.22" y1="438.44" x2="550.33" y2="438.44" xlink:href="#linear-gradient-42"/><linearGradient id="linear-gradient-63" x1="492.59" y1="152.06" x2="486.7" y2="167.67" xlink:href="#linear-gradient-21"/><linearGradient id="linear-gradient-64" x1="1550.31" y1="-927.73" x2="1544.41" y2="-912.12" gradientTransform="translate(-393.69 -1326.97) rotate(90)" xlink:href="#linear-gradient-21"/><linearGradient id="linear-gradient-65" x1="1583.53" y1="-915.19" x2="1577.63" y2="-899.57" gradientTransform="translate(-366.1 -1314.42) rotate(90)" xlink:href="#linear-gradient-21"/><linearGradient id="linear-gradient-66" x1="1232.58" y1="-319.4" x2="1226.68" y2="-303.79" gradientTransform="translate(236.71 -939.52) rotate(90)" xlink:href="#linear-gradient-21"/><linearGradient id="linear-gradient-67" x1="406.03" y1="188.12" x2="444.79" y2="336.42" xlink:href="#linear-gradient-4"/><linearGradient id="linear-gradient-68" x1="423.39" y1="183.58" x2="462.16" y2="331.88" xlink:href="#linear-gradient-21"/><linearGradient id="linear-gradient-69" x1="417.94" y1="162.72" x2="473.51" y2="375.3" xlink:href="#linear-gradient-21"/><linearGradient id="linear-gradient-70" x1="-317.95" y1="407.22" x2="-322.5" y2="419.26" gradientTransform="translate(772.72 -151.09)" xlink:href="#linear-gradient-21"/><linearGradient id="linear-gradient-71" x1="-300.09" y1="418.32" x2="-304.63" y2="430.36" gradientTransform="translate(775.62 -158.85)" xlink:href="#linear-gradient-21"/><linearGradient id="linear-gradient-72" x1="1146.01" y1="-172.75" x2="1141.46" y2="-160.71" gradientTransform="translate(315.87 -838.26) rotate(90)" xlink:href="#linear-gradient-21"/><linearGradient id="linear-gradient-73" x1="1151.78" y1="-163.11" x2="1147.23" y2="-151.07" gradientTransform="translate(327.2 -832.92) rotate(90)" xlink:href="#linear-gradient-21"/><linearGradient id="linear-gradient-74" x1="1171.63" y1="-163.08" x2="1167.08" y2="-151.03" gradientTransform="translate(349.02 -830.55) rotate(90)" xlink:href="#linear-gradient-21"/><linearGradient id="linear-gradient-75" x1="590.47" y1="246.67" x2="585.92" y2="258.71" gradientTransform="translate(770.41 -231.43) rotate(90)" xlink:href="#linear-gradient-21"/><linearGradient id="linear-gradient-76" x1="-635.05" y1="417.36" x2="-625.78" y2="405.26" gradientTransform="translate(501.4 -567.63) rotate(-32.51)" xlink:href="#linear-gradient-7"/><linearGradient id="linear-gradient-77" x1="-196.51" y1="477.76" x2="-244.09" y2="418.09" gradientTransform="matrix(-0.72, 0.66, 0.69, 0.66, -273.09, -62.41)" xlink:href="#linear-gradient-21"/></defs><title>Asset 11</title><g id="Layer_2" data-name="Layer 2"><g id="Layer_1-2" data-name="Layer 1"><g id="_11" data-name="11"><path class="cls-1" d="M100.8,145.23c56.11,9.32,116.79,23,139.68,4.86S325.4,71.91,369.41,50.53C418.67,26.59,498.32,16.18,561.53,71S595.6,275.8,575.48,350.32,533.33,479.52,505.14,491s-344,15.82-379.66,7.77S135.63,447,83.58,382.85,18.07,278.43,10.72,264.94C-17.73,212.74,44.69,135.91,100.8,145.23Z"/><path class="cls-2" d="M210.16,145.18c30.21-6.85,52-29.16,67.29-44.09s10.13-43.21-29.32-52.26S61.89,104.76,119.24,131.11C124.93,133.72,180,152,210.16,145.18Z"/><path class="cls-3" d="M95.59,457a3.61,3.61,0,0,1-3.1-1.74c-.3-.49-29.9-49.74-55.23-118.14C-5.19,222.51-3.31,142.94,5.74,96.38,15.13,48.11,34.93,17.58,64.61,5.65,116.3-15.13,178.3,27.94,180.91,29.78a3.61,3.61,0,0,1-4.16,5.91C176.14,35.26,115.31-7,67.28,12.37,40,23.33,21.72,52.06,12.84,97.76S2.17,221.5,44,334.5c25.09,67.79,54.4,116.56,54.69,117A3.61,3.61,0,0,1,95.59,457Z"/><rect class="cls-4" x="174.63" y="362.08" width="14.8" height="10.21"/><rect class="cls-5" x="322.52" y="243.44" width="136.75" height="154.65" rx="8.74" ry="8.74"/><path class="cls-6" d="M316,333.38H196.4c-9.1,0-16.48,7.71-16.48,17.22V491.13h154v-139C333.93,341.76,325.91,333.38,316,333.38Z"/><rect class="cls-7" x="302.9" y="243.44" width="141.63" height="154.65" rx="8.74" ry="8.74"/><polygon class="cls-8" points="303.89 226.78 306.83 287.15 262.09 340.92 276.31 352.71 323.66 300.33 303.89 226.78"/><path class="cls-9" d="M353.19,216.78s11.58,6.1,20.68,12.09,15.87,27.32,16.65,50S383,365.2,383,365.2s-48.47,10.06-79.35-3.64c-10.38-4.61-10.67-3.9-10.67-3.9s9.63-53.86,9.37-60.1-6-14.83-6-26.28,2.6-35.64,7.55-44.49,15.35-14,15.35-14Z"/><path class="cls-10" d="M345.69,215.51l4.17.23,3.33,1s-8.88,13.39-18.68,13.91-12.15-10.27-12.15-10.27-2.34,5.33-4.42,5.59-6-3.38-4.42-7,5.72-6.24,5.72-6.24Z"/><path class="cls-11" d="M318.93,199.21l-1,15.74s3,5.33,11.59,5.46,16.16-4.9,16.16-4.9l-4.9-15.26Z"/><path class="cls-12" d="M289.17,143.09s-6.32,9.38-.74,30c3.19,11.79,8.16,20.63,9.82,30.48s6.06,10.71,10.86,11.34,21.68-6.39,28.2-6.4,14.64,1.57,20.52-2.55c3.31-2.32,5-28.56,5-28.56l-20.36-40-12.13-6.67Z"/><rect class="cls-13" x="58.28" y="372.29" width="96.66" height="118.84"/><rect class="cls-14" x="122.02" y="372.29" width="32.92" height="118.84"/><path class="cls-15" d="M293.6,168.79c2.35,11.29,5.28,24.91,11.9,36.19s30.69,10.25,37.14-.51S349.5,178,349.5,178s8.25-.69,9.41-7.11-.71-15.46-4.79-16.67-7.07,3.53-7.07,3.53-.43-12-9.95-18.1S296,141,294.47,142.8,291.25,157.51,293.6,168.79Z"/><path class="cls-16" d="M291.09,136.68s-2.83,4.92-2.5,14.37,6.45,12.56,16.73,13.43,17.4-2.9,23.28-2.63,9.9,14.55,9.93,29.38,6.67,16,12.47,17,28.26-14,14.71-41.12c-11.12-22.27-8.27-33-27.19-40.63s-35,.59-40.3,4S291.09,136.68,291.09,136.68Z"/><path class="cls-17" d="M187.84,333.38h23.83a7.92,7.92,0,0,1,7.92,7.92V491.13a0,0,0,0,1,0,0H179.92a0,0,0,0,1,0,0V341.3a7.92,7.92,0,0,1,7.92-7.92Z"/><rect class="cls-18" x="163.61" y="372.29" width="16.3" height="118.84"/><path class="cls-19" d="M334.11,172.2s.14-2.1,3.9-3.68,6.39-1,7.39,4.48-1.72,9.81-4.57,11.33-5.9-1.32-5.9-1.32Z"/><path class="cls-20" d="M303.63,361.56c30.88,13.7,79.35,3.64,79.35,3.64s8.33-63.74,7.55-86.38c-.51-14.9-3.63-29.2-8.29-39l-26.33-1.63s4.52,38.68,3.48,46.83S310,326.69,303.89,334a125.7,125.7,0,0,0-8.81,11.6h0c-1.23,7.09-2.12,12.07-2.12,12.07S293.24,356.95,303.63,361.56Z"/><path class="cls-21" d="M232,386.23h98.78a0,0,0,0,1,0,0V490.85a0,0,0,0,1,0,0h-103a0,0,0,0,1,0,0V390.48A4.25,4.25,0,0,1,232,386.23Z"/><path class="cls-10" d="M240.06,474.23l1.55,6.23s-16.27,3.39-19,4.68-3.68,2.17-3.49,3.82,3.87,2.17,3.87,2.17l39-.27-3.77-15.25Z"/><path class="cls-10" d="M203.89,471.26s-4.51,6.42-6.59,8.24-16.22,2.6-19.6,4.6-1.47,7-1.47,7l40.93-.27,2.25-15.51Z"/><path class="cls-22" d="M259.48,358.39s-24.11,0-29.49,2.13-7.11,5.9-5.9,16.13S239,475,239,475s15.75,5.16,18,3.1l2.22-2.06Z"/><path class="cls-23" d="M300.81,358.39s-35,.94-43.89,2.49S201.9,472,201.9,472s6.59,5.55,12.14,5.9,6.94,0,6.94,0l63.59-88.39,39.77,1.07a18.88,18.88,0,0,0,19.27-20.9l-.53-4.86Z"/><path class="cls-24" d="M308.2,285.06c-10.14-4.94-11.61-10.6-11.73-11.15.77,10.14,5.63,17.88,5.87,23.64.12,3-2,16.89-4.28,30.57h0s12.61-7.81,19.63-19.64,28.1-20,25.11-22.77S318.86,290.27,308.2,285.06Z"/><path class="cls-25" d="M342.88,376.79c-6.18,3.61-14,7.59-19.36,8.15-10.06,1-38.68-5.72-47.18-5.9s1,6.42,0,10.75-18.91,9.37-27.75,25c-8.76,15.46-32,62.37-32.41,63.28a22,22,0,0,0,4.66-.11l63.59-88.39,39.77,1.07A18.87,18.87,0,0,0,342.88,376.79Z"/><path class="cls-26" d="M350.6,333.38H476.17a8.6,8.6,0,0,1,8.6,8.6V491.13a0,0,0,0,1,0,0H350.6a0,0,0,0,1,0,0V333.38A0,0,0,0,1,350.6,333.38Z"/><path class="cls-27" d="M338.69,333.38h23.83a7.92,7.92,0,0,1,7.92,7.92V491.13a0,0,0,0,1,0,0H330.77a0,0,0,0,1,0,0V341.3A7.92,7.92,0,0,1,338.69,333.38Z"/><polygon class="cls-28" points="0 506.48 573.43 506.48 534.08 491.13 36.3 491.13 0 506.48"/><path class="cls-29" d="M307,344.73a102.29,102.29,0,0,0-12.73,2.69c-5.41,1.65-10.55,2.86-11.89,5.29s0,3.19,0,3.19H312.5c1.7,0,6.91-4.06,6.91-4.06Z"/><path class="cls-30" d="M357.53,230.71c-7.49,5.64,12.8,65.61,12.8,65.61l-63.51,48.22s4.83,9.37,10,10.75l5.2,1.39s61-40.64,68.37-49.29S389.13,206.93,357.53,230.71Z"/><rect class="cls-3" x="279.53" y="355.9" width="42.57" height="4.98" rx="0.56" ry="0.56"/><path class="cls-3" d="M206.58,360.88h79.75c1.55,0,2.48-1.52,2.07-3.41l-13.51-62.09c-.41-1.88-2-3.41-3.55-3.41H191.59c-1.55,0-2.48,1.52-2.07,3.41L203,357.47C203.44,359.35,205,360.88,206.58,360.88Z"/><path class="cls-31" d="M202.66,360.88h79.75c1.55,0,2.48-1.52,2.07-3.41L271,295.38c-.41-1.88-2-3.41-3.55-3.41H187.67c-1.55,0-2.48,1.52-2.07,3.41l13.51,62.09C199.52,359.35,201.11,360.88,202.66,360.88Z"/><path class="cls-32" d="M231.13,319.92a15.44,15.44,0,0,1-1-3.19,3.91,3.91,0,0,0-2.5.82c-2.84,2.18-3.42,7.9-1.28,12.77s6.17,7.07,9,4.9c2.24-1.71,3-5.62,2.25-9.59C235.27,325.58,232.69,323.48,231.13,319.92Z"/><rect class="cls-33" x="37.47" y="362.08" width="137.16" height="10.21"/><rect class="cls-34" x="49.61" y="372.29" width="8.67" height="118.84"/><rect class="cls-35" x="154.94" y="372.29" width="8.67" height="118.84"/><rect class="cls-36" x="58.28" y="426.6" width="96.66" height="10.21"/><path class="cls-37" d="M77.41,189.26a34.54,34.54,0,0,1,13.4,6.84l-6.56,3.49,9-1.26a34.33,34.33,0,0,1,5,6.29l-12,3.4,13.22-1.25c.24.47.47,1,.69,1.44L86.7,214.69l14.43-4.09c.33.89.64,1.79.9,2.71a34.58,34.58,0,0,1,1.27,11.12l-12.75,1.51,12.6.45c0,.31-.06.62-.11.93L92.1,229l10.71-.19A34.5,34.5,0,0,1,100.7,236l-8.32.17,7,2.72a34.46,34.46,0,0,1-5.63,7.81C87.21,218.19,77.41,189.26,77.41,189.26Z"/><path class="cls-38" d="M88.13,236.21l-6.91,4.38a34.48,34.48,0,0,1-4.5-4.13l8.47-7.61-11.32,4a34.58,34.58,0,0,1-4.8-10.21c-.08-.3-.14-.59-.22-.89L80.52,217l-12.46.69c-.12-.93-.2-1.85-.25-2.77l11.88-5.5-11.94,4a34.32,34.32,0,0,1,.8-7.54l11.12-4.5-10.53,2.17a34.56,34.56,0,0,1,1.65-4.48l7.49-2.59-7,1.51a34.48,34.48,0,0,1,6.12-8.74s9.8,28.93,16.29,57.44a34.4,34.4,0,0,1-6-2.17Z"/><path class="cls-39" d="M109.71,206.26A58.77,58.77,0,0,0,90.4,223l12.3,3L87.3,227.72a58,58,0,0,0-5.6,12.39l21.26.63-22.38,3.41c-.21.88-.37,1.77-.54,2.66L105,251.89l-25.58-.75c-.18,1.59-.31,3.2-.36,4.83a58.27,58.27,0,0,0,2.53,18.81l21.72-2.8-20.64,5.95c.18.5.37,1,.56,1.49L102,277.71l-17.79,4.11a58.42,58.42,0,0,0,6.47,10.91l13.84-3.16-10.37,7.34a58.72,58.72,0,0,0,12.57,10.5C105.57,257.86,109.71,206.26,109.71,206.26Z"/><path class="cls-40" d="M111.57,287.86l13.25,4.35a58.37,58.37,0,0,0,5.71-8.65l-17.18-9,20.39,1.92a58.27,58.27,0,0,0,3.69-18.77c0-.52,0-1,0-1.55l-21.26-3,20.89-4c-.18-1.57-.44-3.12-.75-4.66l-21.94-4.13,21.41,1.6a58,58,0,0,0-4.47-12.06L111,227.13l18.31-.79a58.59,58.59,0,0,0-4.59-6.68l-13.46-1.16,12.19-.41a58.74,58.74,0,0,0-13.76-11.83s-4.14,51.6-3,101.15a58.67,58.67,0,0,0,9.06-6.05Z"/><path class="cls-41" d="M125.3,209.62a39.42,39.42,0,0,0-14.7,8.62l6.27,4.25L107.79,221a50,50,0,0,0-6,7.84l11.87,4.08-13.41-1.4c-.31.59-.61,1.19-.9,1.8l12.93,7.87L98,236.31c-.46,1.1-.9,2.22-1.3,3.37a53.88,53.88,0,0,0-2.81,13.79l12.9,1.73-13,.69c0,.39,0,.77,0,1.16l11,2-11-.12a46.35,46.35,0,0,0,1.2,8.85l8.53.12-7.51,3.44a37.3,37.3,0,0,0,4.73,9.6C111.32,245.56,125.3,209.62,125.3,209.62Z"/><path class="cls-42" d="M107.94,267.88l6.51,5.35a46.62,46.62,0,0,0,5.18-5.17l-7.68-9.33L123,263.58a53.87,53.87,0,0,0,6.32-12.7c.13-.37.23-.74.35-1.1L118.35,244l12.71.72c.25-1.15.46-2.29.63-3.44l-11.46-6.68L132,239.44a50.25,50.25,0,0,0,.2-9.33l-10.82-5.44,10.52,2.57a44.71,44.71,0,0,0-1.09-5.53l-7.34-3.12,7,1.79a37.7,37.7,0,0,0-5.1-10.75s-14,35.93-24.5,71.31a36,36,0,0,0,6.48-2.75Z"/><path class="cls-43" d="M79.65,234.42a45.43,45.43,0,0,0-11.8,15.88l9.79.24-11.36,3.81a44.82,44.82,0,0,0-2.17,10.28l16.15-3.05-16.33,6.29c0,.7,0,1.4,0,2.1l19.66-.29L64.2,273.34c.13,1.23.29,2.47.53,3.71a45,45,0,0,0,5,13.78l15.93-5.71L71.09,293c.22.35.44.69.67,1l13.92-4.42L72.94,295.7a45.16,45.16,0,0,0,6.7,7.16l9.92-4.68L83,305.44a45.39,45.39,0,0,0,11.23,5.84C85.09,274.07,79.65,234.42,79.65,234.42Z"/><path class="cls-44" d="M94.59,295.71l10.73,1.08a45.12,45.12,0,0,0,2.88-7.48l-14.47-3.94,15.71-1.93a45,45,0,0,0-.33-14.79c-.07-.4-.18-.78-.26-1.17L92.3,268.78l15.1-6.5c-.4-1.16-.85-2.29-1.34-3.39l-17.25.53,16.43-2.34a44.8,44.8,0,0,0-5.38-8.37L84.11,250l13.69-3.64A45.29,45.29,0,0,0,93.22,242L82.87,243.4,92,241.07a45.41,45.41,0,0,0-12.35-6.65s5.44,39.65,14.54,76.86A45.35,45.35,0,0,0,100,305.2Z"/><polygon class="cls-45" points="120.3 362.08 74.55 362.08 67.75 302.78 127.1 302.78 120.3 362.08"/><polygon class="cls-46" points="67.75 302.78 74.55 362.08 92.05 362.08 86.98 302.78 67.75 302.78"/><rect class="cls-47" x="65.44" y="301.08" width="63.98" height="14.61"/><rect class="cls-48" x="66.26" y="376.62" width="11.04" height="49.98"/><rect class="cls-49" x="77.3" y="376.62" width="11.04" height="49.98"/><rect class="cls-10" x="88.33" y="376.62" width="8.63" height="49.98"/><rect class="cls-50" x="96.95" y="376.62" width="34.46" height="49.98"/><rect class="cls-51" x="66.26" y="441.15" width="7.51" height="49.98"/><rect class="cls-52" x="73.77" y="441.15" width="7.51" height="49.98"/><rect class="cls-10" x="81.28" y="441.15" width="5.87" height="49.98"/><rect class="cls-53" x="87.15" y="441.15" width="23.45" height="49.98"/><rect class="cls-10" x="102.11" y="376.02" width="11.04" height="49.98" transform="translate(-82.35 31.82) rotate(-12.21)"/><rect class="cls-10" x="129.3" y="376.02" width="11.04" height="49.98" transform="translate(-81.74 37.57) rotate(-12.21)"/><polygon class="cls-54" points="107.74 375.42 134.93 375.42 145.5 424.27 118.31 424.27 107.74 375.42"/><polygon class="cls-55" points="107.52 426.6 118.31 424.27 145.5 424.27 134.71 426.6 107.52 426.6"/><path class="cls-56" d="M146.19,333.64h-3.83v-5.79H116.41V359a3.08,3.08,0,0,0,3.08,3.08h19.8a3.08,3.08,0,0,0,3.08-3.08v-2.71h3.83a6,6,0,0,0,6-6V339.67A6,6,0,0,0,146.19,333.64ZM149,348.21a4.81,4.81,0,0,1-4.81,4.81h-1.79v-16.1h1.79a4.81,4.81,0,0,1,4.81,4.81Z"/><path class="cls-57" d="M241.1,235.07H211.32a4.08,4.08,0,0,0-4.08,4.08v18.34a4.08,4.08,0,0,0,4.08,4.08h6.5L224,270h2.25l8.39-8.39h6.5a4.08,4.08,0,0,0,4.08-4.08V239.15A4.08,4.08,0,0,0,241.1,235.07Z"/><path class="cls-58" d="M238.85,235.07H209.07a4.08,4.08,0,0,0-4.08,4.08v18.34a4.08,4.08,0,0,0,4.08,4.08h6.5L224,270l8.39-8.39h6.5a4.08,4.08,0,0,0,4.08-4.08V239.15A4.08,4.08,0,0,0,238.85,235.07Z"/><path class="cls-59" d="M527.72,382.85H483.54A3.56,3.56,0,0,1,480,378.7l1.11-6.55a3.46,3.46,0,0,1,.53-1.34,161.92,161.92,0,0,0,18.19-37.43H424.61q2.45,2.76,5,5.31a3.47,3.47,0,0,1,.89,1.55l10.22,38.12a3.56,3.56,0,0,1-3.44,4.48h-15.9a3.56,3.56,0,0,0-3.56,3.56v18.8a3.56,3.56,0,0,0,3.56,3.56h0a3.56,3.56,0,0,1,3.54,3.15l8.7,76a3.56,3.56,0,0,0,3.54,3.15h33.76l0,.09h17.69l0-.09h23.36a3.56,3.56,0,0,0,3.54-3.15l8.7-76a3.56,3.56,0,0,1,3.54-3.15,3.56,3.56,0,0,0,3.56-3.56v-18.8A3.56,3.56,0,0,0,527.72,382.85Zm-53,0h-2.09c.74-.88,1.5-1.73,2.22-2.64Q474.78,381.55,474.72,382.85Z"/><path class="cls-60" d="M474,285.22c-10.37,39.32-5.63,78,10.14,106.23C511.77,374.67,535,343.36,545.33,304s5.63-78-10.14-106.23C507.55,214.59,484.35,245.9,474,285.22Z"/><path class="cls-61" d="M515.25,283.65a475.51,475.51,0,0,0-16.09,55.85c-7.5,33-5.61,72.16-5.61,72.16"/><path class="cls-61" d="M471.55,272.32s4.5,37.81,10.05,67,9.31,67.65,9.31,67.65"/><path class="cls-61" d="M462.53,335.81s9,24.63,15.61,40.59,12.78,32.38,12.78,32.38"/><path class="cls-62" d="M500.42,134c-4.71,34.46-.62,66.24,9.54,87.72,15.56-18,28-47.49,32.73-81.95s.62-66.24-9.54-87.72C517.6,70,505.13,99.54,500.42,134Z"/><path class="cls-63" d="M468.46,189.26c1.42-31.55,3.52-88.49,4.72-121.68-21.89,27.1-35.93,68.61-35.93,115.22,0,46.07,13.73,87.15,35.18,114.26C470,265.24,467.17,218,468.46,189.26Z"/><path class="cls-64" d="M511,182.81c0-47.28-14.43-89.35-36.86-116.41-.32.38-.62.8-.93,1.19-1.2,33.19-3.31,90.13-4.72,121.68-1.29,28.72,1.59,76,4,107.81.56.71,1.11,1.46,1.68,2.15C496.54,272.15,511,230.09,511,182.81Z"/><path class="cls-65" d="M511.21,215.1c-8.5,28.35-7.4,56.16,1.18,76.42,18.31-12.2,34.52-34.82,43-63.17s7.4-56.16-1.18-76.42C535.92,164.12,519.71,186.75,511.21,215.1Z"/><polygon class="cls-66" points="531.71 491.03 450.55 491.03 438.5 385.86 543.75 385.86 531.71 491.03"/><polygon class="cls-67" points="438.5 385.86 450.55 491.03 481.6 491.03 472.61 385.86 438.5 385.86"/><rect class="cls-47" x="434.39" y="382.85" width="113.48" height="25.92"/><ellipse class="cls-68" cx="475.72" cy="196.71" rx="4.18" ry="7.45"/><ellipse class="cls-69" cx="485.38" cy="204.95" rx="7.45" ry="4.18" transform="translate(-2.76 403.24) rotate(-45)"/><ellipse class="cls-70" cx="484.02" cy="244.53" rx="10.23" ry="5.73" transform="translate(-31.14 413.87) rotate(-45)"/><ellipse class="cls-71" cx="481.67" cy="264.94" rx="10.23" ry="5.73" transform="translate(38.14 589.73) rotate(-65.03)"/><path class="cls-72" d="M413,286.94c12.95,32.67,34.44,57.78,57.35,70.34-31.73-35.84-63.76-160.87-63.76-160.87C398.53,221.25,400.08,254.27,413,286.94Z"/><path class="cls-73" d="M464,266.75C451,234.08,429.53,209,406.62,196.41c0,0,32,125,63.76,160.87C478.47,332.44,476.92,299.42,464,266.75Z"/><path class="cls-74" d="M464,266.75C451,234.08,429.53,209,406.62,196.41c0,0,32,125,63.76,160.87C478.47,332.44,476.92,299.42,464,266.75Z"/><ellipse class="cls-75" cx="441.76" cy="290.58" rx="3.22" ry="5.75" transform="translate(-77.97 193.26) rotate(-22.73)"/><ellipse class="cls-76" cx="462.53" cy="293.91" rx="3.22" ry="5.75" transform="translate(-77.64 201.54) rotate(-22.73)"/><ellipse class="cls-77" cx="451.08" cy="293.56" rx="5.75" ry="3.22" transform="translate(8.47 599.74) rotate(-67.73)"/><ellipse class="cls-78" cx="452.77" cy="304.68" rx="5.75" ry="3.22" transform="translate(-0.77 608.21) rotate(-67.73)"/><ellipse class="cls-79" cx="461.91" cy="322.12" rx="7.89" ry="4.42" transform="translate(-11.24 627.5) rotate(-67.73)"/><ellipse class="cls-80" cx="466.32" cy="337.35" rx="7.89" ry="4.42" transform="translate(110.99 790.12) rotate(-87.76)"/><path class="cls-81" d="M303,178.5s1.2,13.95,1.2,17,4.17.24,5.45,0"/><circle class="cls-82" cx="193.16" cy="90.8" r="25.36" transform="translate(-14.41 41.09) rotate(-11.71)"/><circle class="cls-83" cx="193.16" cy="90.8" r="18.06" transform="translate(-14.41 41.09) rotate(-11.71)"/><path class="cls-84" d="M180.71,30.74c-29,6-46.17,41.4-38.37,79L247.34,88C239.53,50.38,209.71,24.73,180.71,30.74Z"/><path class="cls-3" d="M142.33,109.78l28.21-5.85c-5.7-27.52-3-53.65,5.83-72C150,40.38,134.93,74.06,142.33,109.78Z"/></g></g></g></svg>