<svg xmlns="http://www.w3.org/2000/svg" viewBox="0 0 230.6 230.61"><defs><style>.cls-1{fill:#fff;}.cls-2{opacity:0.5;}</style></defs><title>Asset 1</title><g id="Layer_2" data-name="Layer 2"><g id="Layer_2-2" data-name="Layer 2"><path class="cls-1" d="M152.77,192.41a7.74,7.74,0,0,0,1.76,6.73l15.57,15.57c1.55,1.56,3.33,1,3.9-1.07L230.46,3c.57-2.12-.69-3.4-2.82-2.83L17,56.61c-2.12.57-2.62,2.34-1.07,3.9L31.47,76.08a7.75,7.75,0,0,0,6.73,1.76L190.86,36.91c2.13-.57,3.39.72,2.82,2.84Z"/><g class="cls-2"><path class="cls-1" d="M176.11,57.32c.57-2.12-.7-3.39-2.83-2.82L48.36,88c-2.13.57-2.63,2.34-1.07,3.9l91.42,91.42c1.55,1.56,3.33,1.05,3.9-1.07Z"/></g><path class="cls-1" d="M3,230.47c-2.12.57-3.39-.7-2.82-2.83L33.56,102.8c.57-2.13,2.27-2.56,3.83-1l91.42,91.42c1.55,1.56,1.13,3.26-1,3.83Z"/></g></g></svg>